{"glyphs":{"0":{"ha":899,"x_min":0,"x_max":0,"o":"m 636 935 b 674 897 636 913 651 897 b 711 935 697 897 711 913 b 674 972 711 958 696 972 b 636 935 650 972 636 957 z m 263 935 b 300 897 263 913 278 897 b 338 935 324 897 338 913 b 300 972 338 958 322 972 b 263 935 276 972 263 957 z m 338 933 b 374 897 338 911 351 897 b 411 933 396 897 411 911 b 375 972 411 957 397 972 b 338 936 353 972 338 958 z m 411 935 b 449 897 411 913 426 897 b 486 935 472 897 486 913 b 449 972 486 958 471 972 b 411 935 425 972 411 957 z m 225 897 b 263 935 247 897 263 913 b 225 972 263 958 247 972 b 188 935 201 972 188 957 b 225 897 188 911 203 897 z m 486 935 b 524 897 486 913 501 897 b 561 935 547 897 561 913 b 524 972 561 958 546 972 b 486 935 500 972 486 957 z m 561 935 b 599 897 561 913 576 897 b 636 935 622 897 636 913 b 599 972 636 958 621 972 b 561 935 575 972 561 957 z m 561 860 b 599 822 561 838 576 822 b 636 860 622 822 636 838 b 599 897 636 883 621 897 b 561 860 575 897 561 882 z m 486 860 b 524 822 486 838 501 822 b 561 860 547 822 561 838 b 524 897 561 883 546 897 b 486 860 500 897 486 882 z m 411 860 b 449 822 411 838 426 822 b 486 860 472 822 486 838 b 449 897 486 883 471 897 b 411 860 425 897 411 882 z m 338 858 b 374 822 338 836 351 822 b 411 858 396 822 411 836 b 375 897 411 882 397 897 b 338 861 353 897 338 883 z m 263 860 b 300 822 263 838 278 822 b 338 860 324 822 338 838 b 300 897 338 883 322 897 b 263 860 276 897 263 882 z m 263 860 b 225 897 263 882 247 897 b 188 860 201 897 188 882 b 225 822 188 836 203 822 b 263 860 249 822 263 838 z m 711 860 b 749 822 711 836 726 822 b 786 860 772 822 786 838 b 749 897 786 882 771 897 b 711 860 725 897 711 882 z m 150 897 b 113 860 128 897 113 882 b 150 822 113 836 128 822 b 188 860 174 822 188 838 b 150 897 188 883 172 897 z m 636 860 b 674 822 636 836 651 822 b 711 860 697 822 711 838 b 674 897 711 882 696 897 b 636 860 650 897 636 882 z m 786 785 b 824 747 786 763 801 747 b 861 785 847 747 861 763 b 824 822 861 808 846 822 b 786 785 800 822 786 807 z m 113 785 b 150 747 113 763 128 747 b 188 785 174 747 188 763 b 150 822 188 808 172 822 b 113 785 126 822 113 807 z m 263 785 b 225 822 263 807 247 822 b 188 785 201 822 188 807 b 225 747 188 761 203 747 b 263 785 249 747 263 763 z m 711 785 b 674 822 711 807 696 822 b 636 785 650 822 636 807 b 674 747 636 761 651 747 b 711 785 697 747 711 763 z m 75 747 b 113 785 97 747 113 763 b 75 822 113 808 97 822 b 38 785 51 822 38 807 b 75 747 38 761 53 747 z m 711 785 b 749 747 711 763 726 747 b 786 785 772 747 786 763 b 749 822 786 808 771 822 b 711 785 725 822 711 807 z m 711 710 b 747 674 711 688 725 674 b 786 710 771 674 786 688 b 750 747 786 732 772 747 b 711 711 726 747 711 733 z m 113 710 b 76 747 113 732 99 747 b 38 711 53 747 38 733 b 74 674 38 689 51 674 l 76 674 b 113 710 99 674 113 688 z m 113 710 b 149 674 113 688 126 674 b 188 710 172 674 188 688 b 151 747 188 732 174 747 b 113 711 128 747 113 733 z m 786 710 b 822 674 786 688 800 674 b 861 710 846 674 861 688 b 825 747 861 732 847 747 b 786 711 801 747 786 733 z m 711 710 b 674 747 711 732 696 747 b 636 710 650 747 636 732 b 674 672 636 686 651 672 b 711 710 697 672 711 688 z m 636 636 b 607 672 636 656 625 669 b 636 710 625 676 636 690 b 599 747 636 732 621 747 b 561 710 575 747 561 732 b 590 674 561 689 572 676 b 561 636 572 669 561 656 b 599 599 561 613 576 599 b 636 636 622 599 636 614 z m 711 636 b 749 599 711 614 726 599 b 786 636 772 599 786 614 b 749 674 786 660 771 674 b 711 636 725 674 711 658 z m 113 636 b 75 674 113 660 97 674 b 38 636 51 674 38 658 b 75 599 38 613 53 599 b 113 636 97 599 113 614 z m 786 636 b 824 599 786 614 801 599 b 861 636 847 599 861 614 b 824 674 861 660 846 674 b 786 636 800 674 786 658 z m 113 636 b 150 599 113 614 128 599 b 188 636 174 599 188 614 b 150 674 188 660 172 674 b 113 636 126 674 113 658 z m 561 561 b 532 597 561 581 550 594 b 561 635 550 601 561 615 b 524 672 561 657 546 672 b 486 635 500 672 486 657 b 515 599 486 614 497 601 b 486 561 497 594 486 581 b 524 524 486 538 501 524 b 561 561 547 524 561 539 z m 711 636 b 675 672 711 658 697 672 b 636 636 651 672 636 658 b 672 599 636 614 650 599 b 711 635 696 599 711 613 z m 786 561 b 824 524 786 539 801 524 b 861 561 847 524 861 539 b 824 599 861 585 846 599 b 786 561 800 599 786 583 z m 113 561 b 150 524 113 539 128 524 b 188 561 174 524 188 539 b 150 599 188 585 172 599 b 113 561 126 599 113 583 z m 636 561 b 599 599 636 583 621 599 b 561 561 575 599 561 583 b 599 524 561 538 576 524 b 636 561 622 524 636 539 z m 75 599 b 38 561 51 599 38 583 b 75 524 38 538 53 524 b 113 561 97 524 113 539 b 75 599 113 585 97 599 z m 711 561 b 749 524 711 539 726 524 b 786 561 772 524 786 539 b 749 599 786 585 771 599 b 711 561 725 599 711 583 z m 486 486 b 457 522 486 506 475 519 b 486 560 475 526 486 540 b 449 597 486 582 471 597 b 411 560 425 597 411 582 b 440 524 411 539 422 526 b 411 486 422 519 411 506 b 449 449 411 463 426 449 b 486 486 472 449 486 464 z m 113 486 b 150 449 113 464 128 449 b 188 486 174 449 188 464 b 150 524 188 510 172 524 b 113 486 126 524 113 508 z m 561 486 b 524 524 561 508 546 524 b 486 486 500 524 486 508 b 524 449 486 463 501 449 b 561 486 547 449 561 464 z m 711 486 b 749 449 711 464 726 449 b 786 486 772 449 786 464 b 749 524 786 510 771 524 b 711 486 725 524 711 508 z m 786 486 b 824 449 786 464 801 449 b 861 486 847 449 861 464 b 824 524 861 510 846 524 b 786 486 800 524 786 508 z m 75 524 b 38 486 51 524 38 508 b 75 449 38 463 53 449 b 113 486 97 449 113 464 b 75 524 113 510 97 524 z m 411 413 b 382 449 411 432 400 446 b 411 483 400 451 411 464 l 411 486 b 375 522 411 508 397 522 b 338 486 353 522 338 508 b 367 447 338 465 349 451 b 338 413 349 444 338 432 b 374 374 338 389 351 374 b 411 410 396 374 411 388 z m 113 411 b 150 374 113 389 128 374 b 188 411 174 374 188 389 b 150 449 188 435 172 449 b 113 411 126 449 113 433 z m 486 411 b 449 449 486 433 471 449 b 411 411 425 449 411 433 b 449 374 411 388 426 374 b 486 411 472 374 486 389 z m 711 411 b 749 374 711 389 726 374 b 786 411 772 374 786 389 b 749 449 786 435 771 449 b 711 411 725 449 711 433 z m 786 411 b 824 374 786 389 801 374 b 861 411 847 374 861 389 b 824 449 861 435 846 449 b 786 411 800 449 786 433 z m 75 449 b 38 411 51 449 38 433 b 75 374 38 388 53 374 b 113 411 97 374 113 389 b 75 449 113 435 97 449 z m 338 336 b 308 372 338 356 326 369 b 338 410 326 376 338 390 b 300 447 338 432 322 447 b 263 410 276 447 263 432 b 292 374 263 389 274 376 b 263 336 274 369 263 356 b 300 299 263 313 278 299 b 338 336 324 299 338 314 z m 113 336 b 75 374 113 360 97 374 b 38 336 51 374 38 358 b 75 299 38 313 53 299 b 113 336 97 299 113 314 z m 711 336 b 749 299 711 314 726 299 b 786 336 772 299 786 314 b 749 374 786 360 771 374 b 711 336 725 374 711 358 z m 113 336 b 150 299 113 314 128 299 b 188 336 174 299 188 314 b 150 374 188 360 172 374 b 113 336 126 374 113 358 z m 786 336 b 824 299 786 314 801 299 b 861 336 847 299 861 314 b 824 374 861 360 846 374 b 786 336 800 374 786 358 z m 411 338 b 375 374 411 360 397 374 b 338 338 353 374 338 360 b 374 299 338 314 351 299 b 411 335 396 299 411 313 z m 263 336 b 226 372 263 358 249 372 b 188 336 203 372 188 358 b 224 299 188 314 201 299 b 263 335 247 299 263 313 z m 263 261 b 225 299 263 283 247 299 b 188 261 201 299 188 283 b 225 224 188 238 203 224 b 263 261 249 224 263 239 z m 113 261 b 76 299 113 283 99 299 b 38 263 53 299 38 285 b 74 225 38 240 51 225 l 76 225 b 113 261 99 225 113 239 z m 113 261 b 149 225 113 239 126 225 b 188 261 172 225 188 239 b 151 299 188 283 174 299 b 113 263 128 299 113 285 z m 786 261 b 822 225 786 239 800 225 b 861 261 846 225 861 239 b 825 299 861 283 847 299 b 786 263 801 299 786 285 z m 338 261 b 300 299 338 283 322 299 b 263 261 276 299 263 283 b 300 224 263 238 278 224 b 338 261 324 224 338 239 z m 711 261 b 747 225 711 239 725 225 b 786 261 771 225 786 239 b 750 299 786 283 772 299 b 711 263 726 299 711 285 z m 711 188 b 674 225 711 211 696 225 b 636 188 650 225 636 210 b 674 150 636 165 651 150 b 711 188 697 150 711 165 z m 113 188 b 75 225 113 211 97 225 b 38 188 51 225 38 210 b 75 150 38 164 53 150 b 113 188 97 150 113 165 z m 786 188 b 749 225 786 211 771 225 b 711 188 725 225 711 210 b 749 150 711 165 726 150 b 786 188 772 150 786 165 z m 150 150 b 188 188 174 150 188 165 b 150 225 188 211 172 225 b 113 188 126 225 113 210 b 150 150 113 165 128 150 z m 786 188 b 824 150 786 165 801 150 b 861 188 847 150 861 165 b 824 225 861 211 846 225 b 786 188 800 225 786 210 z m 263 188 b 226 224 263 210 249 224 b 188 188 203 224 188 210 b 224 150 188 165 201 150 b 263 186 247 150 263 164 z m 263 113 b 300 75 263 89 278 75 b 338 113 324 75 338 90 b 300 150 338 135 322 150 b 263 113 276 150 263 135 z m 711 113 b 749 75 711 89 726 75 b 786 113 772 75 786 90 b 749 150 786 135 771 150 b 711 113 725 150 711 135 z m 636 113 b 674 75 636 89 651 75 b 711 113 697 75 711 90 b 674 150 711 135 696 150 b 636 113 650 150 636 135 z m 113 113 b 150 75 113 89 128 75 b 188 113 174 75 188 90 b 150 150 188 136 172 150 b 113 113 128 150 113 135 z m 188 113 b 225 75 188 89 203 75 b 263 113 249 75 263 90 b 225 150 263 135 247 150 b 188 113 201 150 188 135 z m 561 113 b 599 75 561 89 576 75 b 636 113 622 75 636 90 b 599 150 636 135 621 150 b 561 113 575 150 561 135 z m 561 114 b 525 150 561 136 547 150 b 488 114 503 150 488 136 b 524 75 488 90 501 75 b 561 111 546 75 561 89 z m 488 113 b 450 150 488 135 472 150 b 413 113 426 150 413 135 b 450 75 413 89 428 75 b 488 113 474 75 488 90 z m 413 113 b 375 150 413 135 397 150 b 338 113 351 150 338 135 b 375 75 338 89 353 75 b 413 113 399 75 413 90 z m 263 38 b 300 0 263 15 278 0 b 338 38 324 0 338 15 b 300 75 338 61 322 75 b 263 38 276 75 263 60 z m 338 36 b 374 0 338 14 351 0 b 411 36 396 0 411 14 b 375 75 411 60 397 75 b 338 39 353 75 338 61 z m 411 38 b 449 0 411 15 426 0 b 486 38 472 0 486 15 b 449 75 486 61 471 75 b 411 38 425 75 411 60 z m 486 38 b 524 0 486 15 501 0 b 561 38 547 0 561 15 b 524 75 561 61 546 75 b 486 38 500 75 486 60 z m 636 38 b 674 0 636 15 651 0 b 711 38 697 0 711 15 b 674 75 711 61 696 75 b 636 38 650 75 636 60 z m 225 0 b 263 38 247 0 263 15 b 225 75 263 61 247 75 b 188 38 201 75 188 60 b 225 0 188 14 203 0 z m 561 38 b 599 0 561 15 576 0 b 636 38 622 0 636 15 b 599 75 636 61 621 75 b 561 38 575 75 561 60 z "},"1":{"ha":524,"x_min":0,"x_max":0,"o":"m 263 935 b 300 897 263 913 278 897 b 338 935 324 897 338 913 b 300 972 338 958 322 972 b 263 935 276 972 263 957 z m 188 935 b 225 897 188 913 203 897 b 263 935 249 897 263 913 b 225 972 263 958 247 972 b 188 935 201 972 188 957 z m 188 860 b 150 897 188 882 172 897 b 113 860 126 897 113 882 b 150 822 113 836 128 822 b 188 860 174 822 188 838 z m 263 860 b 225 897 263 882 247 897 b 188 860 201 897 188 882 b 225 822 188 836 203 822 b 263 860 249 822 263 838 z m 338 860 b 300 897 338 882 322 897 b 263 860 276 897 263 882 b 300 822 263 836 278 822 b 338 860 324 822 338 838 z m 38 785 b 75 747 38 763 53 747 b 113 785 99 747 113 763 b 75 822 113 808 97 822 b 38 785 51 822 38 807 z m 188 785 b 150 822 188 807 172 822 b 113 785 126 822 113 807 b 150 747 113 761 128 747 b 188 785 174 747 188 763 z m 263 785 b 300 747 263 761 278 747 b 338 785 324 747 338 763 b 300 822 338 807 322 822 b 263 785 276 822 263 807 z m 188 785 b 225 747 188 761 203 747 b 263 785 249 747 263 763 b 225 822 263 807 247 822 b 188 785 201 822 188 807 z m 263 711 b 299 674 263 689 276 674 b 338 710 322 674 338 688 l 338 711 b 301 747 338 733 324 747 b 263 711 278 747 263 733 z m 38 710 b 75 672 38 688 53 672 b 113 710 99 672 113 688 b 75 747 113 733 97 747 b 38 710 51 747 38 732 z m 224 674 b 263 710 247 674 263 688 l 263 711 b 226 747 263 733 249 747 b 188 711 203 747 188 733 b 224 674 188 689 201 674 z m 263 636 b 225 674 263 658 247 674 b 188 636 201 674 188 658 b 225 599 188 613 203 599 b 263 636 249 599 263 614 z m 338 636 b 300 674 338 658 322 674 b 263 636 276 674 263 658 b 300 599 263 613 278 599 b 338 636 324 599 338 614 z m 263 561 b 300 524 263 538 278 524 b 338 561 324 524 338 539 b 300 599 338 583 322 599 b 263 561 276 599 263 583 z m 188 561 b 225 524 188 538 203 524 b 263 561 249 524 263 539 b 225 599 263 583 247 599 b 188 561 201 599 188 583 z m 263 486 b 300 449 263 463 278 449 b 338 486 324 449 338 464 b 300 524 338 508 322 524 b 263 486 276 524 263 508 z m 188 486 b 225 449 188 463 203 449 b 263 486 249 449 263 464 b 225 524 263 508 247 524 b 188 486 201 524 188 508 z m 263 411 b 225 449 263 433 247 449 b 188 411 201 449 188 433 b 225 374 188 388 203 374 b 263 411 249 374 263 389 z m 338 411 b 300 449 338 433 322 449 b 263 411 276 449 263 433 b 300 374 263 388 278 374 b 338 411 324 374 338 389 z m 263 336 b 225 374 263 358 247 374 b 188 336 201 374 188 358 b 225 299 188 313 203 299 b 263 336 249 299 263 314 z m 338 336 b 300 374 338 358 322 374 b 263 336 276 374 263 358 b 300 299 263 313 278 299 b 338 336 324 299 338 314 z m 263 263 b 226 299 263 285 249 299 b 188 263 203 299 188 285 b 224 225 188 240 201 225 b 263 261 247 225 263 239 z m 338 263 b 301 299 338 285 324 299 b 263 263 278 299 263 285 b 299 225 263 240 276 225 b 338 261 322 225 338 239 z m 263 188 b 225 225 263 210 247 225 b 188 188 201 225 188 210 b 225 150 188 164 203 150 b 263 188 249 150 263 165 z m 338 188 b 300 225 338 210 322 225 b 263 188 276 225 263 210 b 300 150 263 164 278 150 b 338 188 324 150 338 165 z m 263 113 b 225 150 263 135 247 150 b 188 113 201 150 188 135 b 225 75 188 89 203 75 b 263 113 249 75 263 90 z m 411 113 b 374 150 411 136 396 150 b 336 121 353 150 340 139 b 300 150 333 139 319 150 b 263 113 276 150 263 135 b 300 75 263 89 278 75 b 338 104 321 75 333 86 b 374 75 340 86 354 75 b 411 113 397 75 411 90 z m 38 113 b 75 75 38 90 53 75 b 113 113 99 75 113 90 b 75 150 113 136 97 150 b 38 113 51 150 38 135 z m 113 113 b 150 75 113 90 128 75 b 188 113 174 75 188 90 b 150 150 188 136 172 150 b 113 113 126 150 113 135 z m 411 113 b 449 75 411 90 426 75 b 486 113 472 75 486 90 b 449 150 486 136 471 150 b 411 113 425 150 411 135 z m 188 38 b 225 0 188 15 203 0 b 263 38 249 0 263 15 b 225 75 263 61 247 75 b 188 38 201 75 188 60 z m 263 36 b 299 0 263 14 276 0 b 336 36 321 0 336 14 b 300 75 336 60 322 75 b 263 39 278 75 263 61 z m 336 38 b 374 0 336 15 351 0 b 411 38 397 0 411 15 b 374 75 411 61 396 75 b 336 38 350 75 336 60 z m 38 38 b 75 0 38 15 53 0 b 113 38 99 0 113 15 b 75 75 113 61 97 75 b 38 38 51 75 38 60 z m 113 38 b 150 0 113 15 128 0 b 188 38 174 0 188 15 b 150 75 188 61 172 75 b 113 38 126 75 113 60 z m 411 38 b 449 0 411 15 426 0 b 486 38 472 0 486 15 b 449 75 486 61 471 75 b 411 38 425 75 411 60 z "},"2":{"ha":822,"x_min":0,"x_max":0,"o":"m 186 935 b 224 897 186 913 200 897 b 261 935 246 897 261 911 b 224 972 261 957 247 972 b 186 935 201 972 186 957 z m 261 935 b 299 897 261 913 275 897 b 336 935 321 897 336 911 b 299 972 336 957 322 972 b 261 935 276 972 261 957 z m 336 935 b 374 897 336 913 350 897 b 411 935 396 897 411 911 b 374 972 411 957 397 972 b 336 935 351 972 336 957 z m 411 935 b 449 897 411 913 425 897 b 486 935 471 897 486 911 b 449 972 486 957 472 972 b 411 935 426 972 411 957 z m 486 935 b 524 897 486 913 500 897 b 561 935 546 897 561 911 b 524 972 561 957 547 972 b 486 935 501 972 486 957 z m 561 935 b 599 897 561 913 575 897 b 636 935 621 897 636 911 b 599 972 636 957 622 972 b 561 935 576 972 561 957 z m 261 860 b 222 897 261 882 247 897 b 186 868 203 897 189 886 b 149 897 182 886 169 897 b 111 860 126 897 111 883 b 149 822 111 838 125 822 b 185 851 168 822 182 833 b 224 822 189 833 201 822 b 261 860 246 822 261 838 z m 486 860 b 524 822 486 838 500 822 b 561 860 546 822 561 836 b 524 897 561 882 547 897 b 486 860 501 897 486 882 z m 411 860 b 449 822 411 838 425 822 b 486 860 471 822 486 836 b 449 897 486 882 472 897 b 411 860 426 897 411 882 z m 336 860 b 374 822 336 838 350 822 b 411 860 396 822 411 836 b 374 897 411 882 397 897 b 336 860 351 897 336 882 z m 261 860 b 299 822 261 838 275 822 b 336 860 321 822 336 836 b 299 897 336 882 322 897 b 261 860 276 897 261 882 z m 636 860 b 599 897 636 882 622 897 b 561 860 576 897 561 883 b 599 822 561 838 575 822 b 636 860 621 822 636 838 z m 710 861 b 672 897 710 883 694 897 b 636 858 650 897 636 882 b 674 822 636 836 651 822 b 710 858 696 822 710 836 z m 111 786 b 74 822 111 808 96 822 b 38 783 51 822 38 807 b 75 747 38 761 53 747 b 111 783 97 747 111 761 z m 260 785 b 222 822 260 807 246 822 b 185 785 200 822 185 808 b 222 747 185 763 199 747 b 260 785 244 747 260 763 z m 710 785 b 672 822 710 807 696 822 b 636 793 653 822 639 811 b 599 822 632 811 619 822 b 561 785 576 822 561 808 b 599 747 561 763 575 747 b 635 776 618 747 632 758 b 672 747 639 758 651 747 b 710 785 694 747 710 761 z m 185 786 b 147 822 185 808 169 822 b 111 783 125 822 111 807 b 149 747 111 761 126 747 b 185 783 171 747 185 761 z m 710 785 b 747 747 710 763 724 747 b 785 785 769 747 785 761 b 747 822 785 807 771 822 b 710 785 725 822 710 807 z m 111 711 b 74 747 111 733 96 747 b 38 710 51 747 38 732 b 75 674 38 688 51 674 b 111 710 97 674 111 688 z m 185 711 b 147 747 185 733 169 747 b 111 710 125 747 111 732 b 149 674 111 688 125 674 b 185 710 171 674 185 688 z m 710 710 b 749 674 710 688 725 674 b 785 711 771 674 785 689 b 746 747 785 733 769 747 b 710 711 724 747 710 733 z m 635 710 b 674 674 635 688 650 674 b 710 711 696 674 710 689 b 671 747 710 733 694 747 b 635 711 649 747 635 733 z m 111 638 b 74 674 111 660 96 674 b 38 635 51 674 38 658 b 75 599 38 613 53 599 b 111 635 97 599 111 613 z m 710 636 b 672 674 710 658 696 674 b 636 644 653 674 639 663 b 599 674 632 663 619 674 b 561 636 576 674 561 660 b 599 599 561 614 575 599 b 635 628 618 599 632 610 b 672 599 639 610 651 599 b 710 636 694 599 710 613 z m 185 638 b 147 674 185 660 169 674 b 111 635 125 674 111 658 b 149 599 111 613 126 599 b 185 635 171 599 185 613 z m 710 636 b 747 599 710 614 724 599 b 785 636 769 599 785 613 b 747 674 785 658 771 674 b 710 636 725 674 710 658 z m 561 561 b 524 599 561 583 547 599 b 486 561 501 599 486 585 b 524 524 486 539 500 524 b 561 561 546 524 561 539 z m 710 563 b 672 599 710 585 694 599 b 636 560 650 599 636 583 b 674 524 636 538 651 524 b 710 560 696 524 710 538 z m 636 561 b 599 599 636 583 622 599 b 561 561 576 599 561 585 b 599 524 561 539 575 524 b 636 561 621 524 636 539 z m 486 486 b 449 524 486 508 472 524 b 411 486 426 524 411 510 b 449 449 411 464 425 449 b 486 486 471 449 486 464 z m 561 486 b 599 449 561 464 575 449 b 636 486 621 449 636 464 b 599 524 636 508 622 524 b 561 486 576 524 561 510 z m 486 486 b 524 449 486 464 500 449 b 561 486 546 449 561 464 b 524 524 561 508 547 524 b 486 486 501 524 486 510 z m 486 411 b 524 374 486 389 500 374 b 561 411 546 374 561 389 b 524 449 561 433 547 449 b 486 411 501 449 486 435 z m 411 411 b 374 449 411 433 397 449 b 336 411 351 449 336 435 b 374 374 336 389 350 374 b 411 411 396 374 411 389 z m 411 411 b 449 374 411 389 425 374 b 486 411 471 374 486 389 b 449 449 486 433 472 449 b 411 411 426 449 411 435 z m 411 336 b 449 299 411 314 425 299 b 486 336 471 299 486 314 b 449 374 486 358 472 374 b 411 336 426 374 411 360 z m 336 338 b 297 374 336 360 321 374 b 261 336 275 374 261 358 b 300 300 261 314 276 300 b 336 336 322 300 336 314 z m 336 336 b 374 299 336 314 350 299 b 411 336 396 299 411 314 b 374 374 411 358 397 374 b 336 336 351 374 336 360 z m 261 263 b 224 300 261 285 247 300 b 186 263 201 300 186 286 b 224 225 186 240 200 225 b 261 263 246 225 261 240 z m 336 263 b 299 300 336 285 322 300 b 261 263 276 300 261 286 b 299 225 261 240 275 225 b 336 263 321 225 336 240 z m 411 263 b 372 299 411 285 396 299 b 336 261 350 299 336 283 b 375 225 336 239 351 225 b 411 261 397 225 411 239 z m 261 188 b 299 150 261 165 275 150 b 336 188 321 150 336 165 b 299 225 336 210 322 225 b 261 188 276 225 261 211 z m 186 188 b 224 150 186 165 200 150 b 261 188 246 150 261 165 b 224 225 261 210 247 225 b 186 188 201 225 186 211 z m 111 188 b 149 150 111 165 125 150 b 186 188 171 150 186 165 b 149 225 186 210 172 225 b 111 188 126 225 111 211 z m 186 113 b 149 150 186 135 172 150 b 111 113 126 150 111 136 b 149 75 111 90 125 75 b 186 113 171 75 186 90 z m 38 111 b 75 75 38 89 53 75 b 111 114 97 75 111 90 b 74 150 111 136 96 150 b 38 114 51 150 38 136 z m 261 113 b 299 75 261 90 275 75 b 336 113 321 75 336 89 b 299 150 336 135 322 150 b 261 113 276 150 261 135 z m 336 113 b 374 75 336 90 350 75 b 411 113 396 75 411 89 b 374 150 411 135 397 150 b 336 113 351 150 336 135 z m 411 113 b 449 75 411 90 425 75 b 486 113 471 75 486 89 b 449 150 486 135 472 150 b 411 113 426 150 411 135 z m 486 113 b 524 75 486 90 500 75 b 561 113 546 75 561 89 b 524 150 561 135 547 150 b 486 113 501 150 486 135 z m 561 111 b 599 75 561 89 576 75 b 635 114 621 75 635 90 b 597 150 635 136 619 150 b 561 114 575 150 561 136 z m 635 113 b 672 75 635 90 649 75 b 710 113 694 75 710 89 b 672 150 710 135 696 150 b 635 113 650 150 635 135 z m 710 113 b 747 75 710 90 724 75 b 785 113 769 75 785 89 b 747 150 785 135 771 150 b 710 113 725 150 710 135 z m 261 113 b 224 150 261 135 247 150 b 186 113 201 150 186 136 b 224 75 186 90 200 75 b 261 113 246 75 261 90 z m 411 38 b 449 0 411 15 425 0 b 486 38 471 0 486 14 b 449 75 486 60 472 75 b 411 38 426 75 411 60 z m 261 38 b 299 0 261 15 275 0 b 336 38 321 0 336 14 b 299 75 336 60 322 75 b 261 38 276 75 261 60 z m 710 38 b 747 0 710 15 724 0 b 785 38 769 0 785 14 b 747 75 785 60 771 75 b 710 38 725 75 710 60 z m 336 38 b 374 0 336 15 350 0 b 411 38 396 0 411 14 b 374 75 411 60 397 75 b 336 38 351 75 336 60 z m 111 38 b 149 0 111 15 125 0 b 186 38 171 0 186 14 b 149 75 186 60 172 75 b 111 38 126 75 111 60 z m 486 38 b 524 0 486 15 500 0 b 561 38 546 0 561 14 b 524 75 561 60 547 75 b 486 38 501 75 486 60 z m 561 36 b 599 0 561 14 576 0 b 635 39 621 0 635 15 b 597 75 635 61 619 75 b 561 39 575 75 561 61 z m 635 38 b 672 0 635 15 649 0 b 710 38 694 0 710 14 b 672 75 710 60 696 75 b 635 38 650 75 635 60 z m 38 36 b 75 0 38 14 53 0 b 111 39 97 0 111 15 b 74 75 111 61 96 75 b 38 39 51 75 38 61 z m 186 38 b 224 0 186 15 200 0 b 261 38 246 0 261 14 b 224 75 261 60 247 75 b 186 38 201 75 186 60 z "},"3":{"ha":747,"x_min":0,"x_max":0,"o":"m 186 935 b 224 897 186 913 200 897 b 261 935 246 897 261 911 b 224 972 261 957 247 972 b 186 935 201 972 186 957 z m 261 935 b 299 897 261 913 275 897 b 336 935 321 897 336 911 b 299 972 336 957 322 972 b 261 935 276 972 261 957 z m 486 935 b 524 897 486 913 500 897 b 561 935 546 897 561 911 b 524 972 561 957 547 972 b 486 935 501 972 486 957 z m 336 935 b 374 897 336 913 350 897 b 411 935 396 897 411 911 b 374 972 411 957 397 972 b 336 935 351 972 336 957 z m 411 935 b 449 897 411 913 425 897 b 486 935 471 897 486 911 b 449 972 486 957 472 972 b 411 935 426 972 411 957 z m 261 860 b 299 822 261 838 275 822 b 336 860 321 822 336 836 b 299 897 336 882 322 897 b 261 860 276 897 261 882 z m 186 861 b 149 897 186 883 171 897 b 113 858 126 897 113 882 b 150 822 113 836 128 822 b 186 858 172 822 186 836 z m 486 860 b 524 822 486 838 500 822 b 561 860 546 822 561 836 b 524 897 561 882 547 897 b 486 860 501 897 486 882 z m 411 860 b 449 822 411 838 425 822 b 486 860 471 822 486 836 b 449 897 486 882 472 897 b 411 860 426 897 411 882 z m 336 860 b 374 822 336 838 350 822 b 411 860 396 822 411 836 b 374 897 411 882 397 897 b 336 860 351 897 336 882 z m 186 860 b 224 822 186 838 200 822 b 261 860 246 822 261 836 b 224 897 261 882 247 897 b 186 860 201 897 186 882 z m 636 860 b 599 897 636 882 622 897 b 561 860 576 897 561 883 b 599 822 561 838 575 822 b 636 860 621 822 636 838 z m 113 785 b 75 822 113 807 99 822 b 38 785 53 822 38 808 b 75 747 38 763 51 747 b 113 785 97 747 113 763 z m 524 822 b 486 785 501 822 486 808 b 524 747 486 763 500 747 b 561 785 546 747 561 761 b 524 822 561 807 546 822 z m 186 785 b 224 747 186 763 200 747 b 261 785 246 747 261 761 b 224 822 261 807 247 822 b 186 785 201 822 186 807 z m 636 783 b 674 747 636 761 651 747 b 710 786 696 747 710 763 b 672 822 710 808 694 822 b 636 786 650 822 636 808 z m 186 786 b 149 822 186 808 171 822 b 113 783 126 822 113 807 b 150 747 113 761 128 747 b 186 783 172 747 186 761 z m 636 785 b 599 822 636 807 622 822 b 561 785 576 822 561 808 b 599 747 561 763 575 747 b 636 785 621 747 636 763 z m 636 636 b 607 674 636 656 625 669 b 635 711 624 676 635 690 b 599 747 635 733 621 747 l 597 747 b 561 708 575 747 561 732 b 590 674 561 689 572 676 b 561 636 572 669 561 657 b 599 599 561 614 575 599 b 636 636 621 599 636 614 z m 113 708 b 150 672 113 686 128 672 b 186 711 172 672 186 688 b 149 747 186 733 171 747 b 113 711 126 747 113 733 z m 635 710 b 674 674 635 688 650 674 b 710 711 696 674 710 689 b 671 747 710 733 694 747 b 635 711 649 747 635 733 z m 113 710 b 75 747 113 732 99 747 b 38 710 53 747 38 733 b 75 672 38 688 51 672 b 113 710 97 672 113 688 z m 561 636 b 524 674 561 658 547 674 b 486 636 501 674 486 660 b 524 599 486 614 500 599 b 561 636 546 599 561 614 z m 636 635 b 674 599 636 613 651 599 b 710 638 696 599 710 614 b 672 674 710 660 694 674 b 636 638 650 674 636 660 z m 636 561 b 599 599 636 583 622 599 b 561 561 576 599 561 585 b 599 524 561 539 575 524 b 636 561 621 524 636 539 z m 486 561 b 524 524 486 539 500 524 b 561 561 546 524 561 539 b 524 599 561 583 547 599 b 486 561 501 599 486 585 z m 411 561 b 449 524 411 539 425 524 b 486 561 471 524 486 539 b 449 599 486 583 472 599 b 411 561 426 599 411 585 z m 336 561 b 374 524 336 539 350 524 b 411 561 396 524 411 539 b 374 599 411 583 397 599 b 336 561 351 599 336 585 z m 261 561 b 299 524 261 539 275 524 b 336 561 321 524 336 539 b 299 599 336 583 322 599 b 261 561 276 599 261 585 z m 186 561 b 224 524 186 539 200 524 b 261 561 246 524 261 539 b 224 599 261 583 247 599 b 186 561 201 599 186 585 z m 411 486 b 449 449 411 464 425 449 b 486 486 471 449 486 464 b 449 524 486 508 472 524 b 411 486 426 524 411 510 z m 486 486 b 524 449 486 464 500 449 b 561 486 546 449 561 464 b 524 524 561 508 547 524 b 486 486 501 524 486 510 z m 261 486 b 299 449 261 464 275 449 b 336 486 321 449 336 464 b 299 524 336 508 322 524 b 261 486 276 524 261 510 z m 336 486 b 374 449 336 464 350 449 b 411 486 396 449 411 464 b 374 524 411 508 397 524 b 336 486 351 524 336 510 z m 186 486 b 224 449 186 464 200 449 b 261 486 246 449 261 464 b 224 524 261 508 247 524 b 186 486 201 524 186 510 z m 486 411 b 449 449 486 433 472 449 b 411 411 426 449 411 435 b 449 374 411 389 425 374 b 486 411 471 374 486 389 z m 636 411 b 599 449 636 433 622 449 b 561 411 576 449 561 435 b 599 374 561 389 575 374 b 636 411 621 374 636 389 z m 561 411 b 524 449 561 433 547 449 b 486 411 501 449 486 435 b 524 374 486 389 500 374 b 561 411 546 374 561 389 z m 486 335 b 524 299 486 313 501 299 b 560 338 546 299 560 314 b 522 374 560 360 544 374 b 486 338 500 374 486 360 z m 635 336 b 672 299 635 314 649 299 b 710 336 694 299 710 313 b 672 374 710 358 696 374 b 635 336 650 374 635 358 z m 560 336 b 597 299 560 314 574 299 b 635 336 619 299 635 313 b 597 374 635 358 621 374 b 560 336 575 374 560 358 z m 75 300 b 38 263 53 300 38 286 b 75 225 38 240 51 225 b 113 263 97 225 113 239 b 75 300 113 285 97 300 z m 150 225 b 188 263 172 225 188 239 b 150 300 188 285 172 300 b 113 263 128 300 113 286 b 150 225 113 240 126 225 z m 635 261 b 674 225 635 239 650 225 b 710 263 696 225 710 240 b 671 299 710 285 694 299 b 635 263 649 299 635 285 z m 599 225 b 635 263 621 225 635 240 b 597 299 635 285 621 299 b 561 263 575 299 561 285 l 561 261 b 599 225 561 239 576 225 z m 561 188 b 599 150 561 165 575 150 b 636 188 621 150 636 164 b 599 225 636 210 621 225 b 561 188 576 225 561 211 z m 113 188 b 75 225 113 210 99 225 b 38 188 53 225 38 211 b 75 150 38 165 51 150 b 113 188 97 150 113 165 z m 636 186 b 674 150 636 164 651 150 b 710 189 696 150 710 165 b 672 225 710 211 694 225 b 636 189 650 225 636 211 z m 524 225 b 486 188 501 225 486 211 b 524 150 486 165 500 150 b 561 188 546 150 561 164 b 524 225 561 210 546 225 z m 224 225 b 188 186 201 225 188 210 b 225 150 188 164 203 150 b 261 189 247 150 261 165 b 225 225 261 211 247 225 z m 113 188 b 150 150 113 165 126 150 b 188 188 172 150 188 164 b 150 225 188 210 172 225 b 113 188 128 225 113 211 z m 299 75 b 336 113 321 75 336 89 b 299 150 336 135 322 150 b 261 113 276 150 261 136 b 299 75 261 90 276 75 z m 374 75 b 411 113 396 75 411 89 b 374 150 411 135 397 150 b 336 113 351 150 336 136 b 374 75 336 90 351 75 z m 449 75 b 486 113 471 75 486 89 b 449 150 486 135 472 150 b 411 113 426 150 411 136 b 449 75 411 90 426 75 z m 524 75 b 561 113 546 75 561 89 b 524 150 561 135 547 150 b 486 113 501 150 486 136 b 524 75 486 90 501 75 z m 224 75 b 261 113 246 75 261 89 b 224 150 261 135 247 150 b 186 113 201 150 186 136 b 224 75 186 90 201 75 z m 186 114 b 149 150 186 136 171 150 b 113 111 126 150 113 135 b 150 75 113 89 128 75 b 186 111 172 75 186 89 z m 636 113 b 599 150 636 135 622 150 b 561 113 576 150 561 136 b 599 75 561 90 575 75 b 636 113 621 75 636 90 z m 486 38 b 524 0 486 15 500 0 b 561 38 546 0 561 14 b 524 75 561 60 547 75 b 486 38 501 75 486 60 z m 186 38 b 224 0 186 15 200 0 b 261 38 246 0 261 14 b 224 75 261 60 247 75 b 186 38 201 75 186 60 z m 261 38 b 299 0 261 15 275 0 b 336 38 321 0 336 14 b 299 75 336 60 322 75 b 261 38 276 75 261 60 z m 411 38 b 449 0 411 15 425 0 b 486 38 471 0 486 14 b 449 75 486 60 472 75 b 411 38 426 75 411 60 z m 336 38 b 374 0 336 15 350 0 b 411 38 396 0 411 14 b 374 75 411 60 397 75 b 336 38 351 75 336 60 z "},"4":{"ha":972,"x_min":0,"x_max":0,"o":"m 636 935 b 674 897 636 913 650 897 b 711 935 696 897 711 911 b 674 972 711 957 697 972 b 636 935 651 972 636 957 z m 711 935 b 749 897 711 913 725 897 b 786 935 771 897 786 911 b 749 972 786 957 772 972 b 711 935 726 972 711 957 z m 711 860 b 749 822 711 838 725 822 b 786 860 771 822 786 838 b 749 897 786 882 772 897 b 711 860 726 897 711 883 z m 636 860 b 599 897 636 882 622 897 b 561 860 576 897 561 883 b 599 822 561 838 575 822 b 636 860 621 822 636 838 z m 636 860 b 674 822 636 838 650 822 b 711 860 696 822 711 838 b 674 897 711 882 697 897 b 636 860 651 897 636 883 z m 711 785 b 674 822 711 807 697 822 b 636 785 651 822 636 808 b 674 747 636 763 650 747 b 711 785 696 747 711 763 z m 561 785 b 599 747 561 763 575 747 b 636 785 621 747 636 763 b 599 822 636 807 622 822 b 561 785 576 822 561 808 z m 786 785 b 749 822 786 807 772 822 b 711 785 726 822 711 808 b 749 747 711 763 725 747 b 786 785 771 747 786 763 z m 486 785 b 524 747 486 763 500 747 b 561 785 546 747 561 763 b 524 822 561 807 547 822 b 486 785 501 822 486 808 z m 561 710 b 524 747 561 732 547 747 b 486 710 501 747 486 733 b 524 672 486 688 500 672 b 561 710 546 672 561 688 z m 486 711 b 447 747 486 733 471 747 b 411 710 425 747 411 732 b 450 674 411 688 426 674 b 486 710 472 674 486 688 z m 786 711 b 747 747 786 733 771 747 b 711 710 725 747 711 732 b 750 674 711 688 726 674 b 786 710 772 674 786 688 z m 711 711 b 672 747 711 733 696 747 b 636 710 650 747 636 732 b 675 674 636 688 651 674 b 711 710 697 674 711 688 z m 636 710 b 599 747 636 732 622 747 b 561 710 576 747 561 733 b 599 672 561 688 575 672 b 636 710 621 672 636 688 z m 411 636 b 449 599 411 614 425 599 b 486 636 471 599 486 614 b 449 674 486 658 472 674 b 411 636 426 674 411 660 z m 711 636 b 749 599 711 614 725 599 b 786 636 771 599 786 614 b 749 674 786 658 772 674 b 711 636 726 674 711 660 z m 336 636 b 374 599 336 614 350 599 b 411 636 396 599 411 614 b 374 674 411 658 397 674 b 336 636 351 674 336 660 z m 636 636 b 674 599 636 614 650 599 b 711 636 696 599 711 614 b 674 674 711 658 697 674 b 636 636 651 674 636 660 z m 561 635 b 524 672 561 657 547 672 b 486 635 501 672 486 658 b 524 597 486 613 500 597 b 561 635 546 597 561 613 z m 411 561 b 374 599 411 583 397 599 b 336 561 351 599 336 585 b 374 524 336 539 350 524 b 411 561 396 524 411 539 z m 336 563 b 299 599 336 585 321 599 b 263 560 276 599 263 583 b 300 524 263 538 278 524 b 336 560 322 524 336 538 z m 711 561 b 749 524 711 539 725 524 b 786 561 771 524 786 539 b 749 599 786 583 772 599 b 711 561 726 599 711 585 z m 486 561 b 449 599 486 583 472 599 b 411 561 426 599 411 585 b 449 524 411 539 425 524 b 486 561 471 524 486 539 z m 636 561 b 674 524 636 539 650 524 b 711 561 696 524 711 539 b 674 599 711 583 697 599 b 636 561 651 599 636 585 z m 336 488 b 299 524 336 510 321 524 b 263 485 276 524 263 508 b 300 449 263 463 278 449 b 336 485 322 449 336 463 z m 711 486 b 674 524 711 508 697 524 b 636 486 651 524 636 510 b 674 449 636 464 650 449 b 711 486 696 449 711 464 z m 411 486 b 374 524 411 508 397 524 b 336 486 351 524 336 510 b 374 449 336 464 350 449 b 411 486 396 449 411 464 z m 263 486 b 225 524 263 508 249 524 b 188 486 203 524 188 510 b 225 449 188 464 201 449 b 263 486 247 449 263 464 z m 786 486 b 749 524 786 508 772 524 b 711 486 726 524 711 510 b 749 449 711 464 725 449 b 786 486 771 449 786 464 z m 711 411 b 674 449 711 433 697 449 b 636 411 651 449 636 435 b 674 374 636 389 650 374 b 711 411 696 374 711 389 z m 336 413 b 299 449 336 435 321 449 b 263 408 276 449 263 433 b 300 372 263 386 278 372 b 336 408 322 372 336 386 z m 188 411 b 150 449 188 433 174 449 b 113 411 128 449 113 435 b 150 374 113 389 126 374 b 188 411 172 374 188 389 z m 786 411 b 749 449 786 433 772 449 b 711 410 726 449 711 435 b 749 372 711 388 725 372 b 786 410 771 372 786 388 z m 263 411 b 225 449 263 433 249 449 b 188 411 203 449 188 435 b 225 374 188 389 201 374 b 263 411 247 374 263 389 z m 113 336 b 75 374 113 358 99 374 b 38 336 53 374 38 360 b 75 299 38 314 51 299 b 113 336 97 299 113 314 z m 188 336 b 150 374 188 358 174 374 b 113 336 128 374 113 360 b 150 299 113 314 126 299 b 188 336 172 299 188 314 z m 263 336 b 225 374 263 358 249 374 b 188 336 203 374 188 360 b 225 299 188 314 201 299 b 263 336 247 299 263 314 z m 711 336 b 674 374 711 358 697 374 b 636 336 651 374 636 360 b 674 299 636 314 650 299 b 711 336 696 299 711 314 z m 336 336 b 299 372 336 358 321 372 b 263 335 276 372 263 357 b 300 299 263 313 276 299 b 336 335 322 299 336 313 z m 411 336 b 372 372 411 358 396 372 b 336 335 350 372 336 357 b 375 299 336 313 351 299 b 411 335 397 299 411 313 z m 486 336 b 447 372 486 358 471 372 b 411 335 425 372 411 357 b 450 299 411 313 426 299 b 486 335 472 299 486 313 z m 561 336 b 522 372 561 358 546 372 b 486 335 500 372 486 357 b 525 299 486 313 501 299 b 561 335 547 299 561 313 z m 636 336 b 597 372 636 358 621 372 b 561 335 575 372 561 357 b 600 299 561 313 576 299 b 636 335 622 299 636 313 z m 785 336 b 747 372 785 358 769 372 b 711 335 725 372 711 357 b 749 299 711 313 725 299 b 785 335 771 299 785 313 b 824 299 785 313 800 299 b 860 336 846 299 860 314 b 821 372 860 358 844 372 b 785 336 799 372 785 358 z m 860 335 b 899 299 860 313 875 299 b 935 336 921 299 935 314 b 896 372 935 358 919 372 b 860 336 874 372 860 358 z m 785 263 b 747 299 785 285 769 299 b 711 261 725 299 711 283 b 749 225 711 239 725 225 b 785 261 771 225 785 239 b 824 225 785 239 800 225 b 860 263 846 225 860 240 b 821 299 860 285 844 299 b 785 263 799 299 785 285 z m 711 263 b 672 299 711 285 696 299 b 636 261 650 299 636 283 b 675 225 636 239 651 225 b 711 261 697 225 711 239 z m 636 263 b 597 299 636 285 621 299 b 561 261 575 299 561 283 b 600 225 561 239 576 225 b 636 261 622 225 636 239 z m 561 263 b 522 299 561 285 546 299 b 486 261 500 299 486 283 b 525 225 486 239 501 225 b 561 261 547 225 561 239 z m 486 263 b 447 299 486 285 471 299 b 411 261 425 299 411 283 b 450 225 411 239 426 225 b 486 261 472 225 486 239 z m 411 263 b 372 299 411 285 396 299 b 336 261 350 299 336 283 b 375 225 336 239 351 225 b 411 261 397 225 411 239 z m 336 263 b 299 299 336 285 321 299 b 263 261 276 299 263 283 b 300 225 263 239 276 225 b 336 261 322 225 336 239 z m 263 263 b 224 299 263 285 247 299 b 188 261 201 299 188 283 b 226 225 188 239 203 225 b 263 261 249 225 263 239 z m 188 263 b 149 299 188 285 172 299 b 113 261 126 299 113 283 b 151 225 113 239 128 225 b 188 261 174 225 188 239 z m 113 263 b 74 299 113 285 97 299 b 38 261 51 299 38 283 b 76 225 38 239 53 225 b 113 261 99 225 113 239 z m 860 261 b 899 225 860 239 875 225 b 935 263 921 225 935 240 b 896 299 935 285 919 299 b 860 263 874 299 860 285 z m 711 188 b 674 225 711 210 697 225 b 636 188 651 225 636 211 b 674 150 636 165 650 150 b 711 188 696 150 711 165 z m 786 188 b 749 225 786 210 772 225 b 711 188 726 225 711 211 b 749 150 711 165 725 150 b 786 188 771 150 786 165 z m 711 113 b 674 150 711 135 697 150 b 636 113 651 150 636 136 b 674 75 636 90 650 75 b 711 113 696 75 711 90 z m 786 113 b 749 150 786 135 772 150 b 711 113 726 150 711 136 b 749 75 711 90 725 75 b 786 113 771 75 786 90 z m 636 38 b 674 0 636 15 650 0 b 711 38 696 0 711 14 b 674 75 711 60 697 75 b 636 38 651 75 636 60 z m 711 38 b 749 0 711 15 725 0 b 786 38 771 0 786 14 b 749 75 786 60 772 75 b 711 38 726 75 711 60 z "},"5":{"ha":824,"x_min":0,"x_max":0,"o":"m 188 935 b 150 972 188 957 174 972 b 113 935 128 972 113 957 b 150 897 113 913 126 897 b 188 935 172 897 188 911 z m 263 935 b 225 972 263 957 249 972 b 188 935 203 972 188 957 b 225 897 188 913 201 897 b 263 935 247 897 263 911 z m 338 935 b 300 972 338 957 324 972 b 263 935 278 972 263 957 b 300 897 263 913 276 897 b 338 935 322 897 338 911 z m 413 935 b 375 972 413 957 399 972 b 338 935 353 972 338 957 b 375 897 338 913 351 897 b 413 935 397 897 413 911 z m 636 935 b 674 897 636 913 650 897 b 711 935 696 897 711 911 b 674 972 711 957 697 972 b 636 935 651 972 636 957 z m 561 935 b 599 897 561 913 575 897 b 636 935 621 897 636 911 b 599 972 636 957 622 972 b 561 935 576 972 561 957 z m 413 935 b 450 897 413 913 426 897 b 488 935 472 897 488 911 b 450 972 488 957 474 972 b 413 935 428 972 413 957 z m 488 933 b 525 897 488 911 503 897 b 561 936 547 897 561 913 b 524 972 561 958 546 972 b 488 936 501 972 488 958 z m 636 860 b 674 822 636 838 650 822 b 711 860 696 822 711 836 b 674 897 711 882 697 897 b 636 860 651 897 636 882 z m 263 860 b 225 897 263 882 249 897 b 188 860 203 897 188 883 b 225 822 188 838 201 822 b 263 860 247 822 263 838 z m 561 860 b 599 822 561 838 575 822 b 636 860 621 822 636 836 b 599 897 636 882 622 897 b 561 860 576 897 561 882 z m 488 858 b 525 822 488 836 503 822 b 561 861 547 822 561 838 b 524 897 561 883 546 897 b 488 861 501 897 488 883 z m 413 860 b 450 822 413 838 426 822 b 488 860 472 822 488 836 b 450 897 488 882 474 897 b 413 860 428 897 413 882 z m 338 860 b 375 822 338 838 351 822 b 413 860 397 822 413 836 b 375 897 413 882 399 897 b 338 860 353 897 338 882 z m 263 860 b 300 822 263 838 276 822 b 338 860 322 822 338 836 b 300 897 338 882 324 897 b 263 860 278 897 263 882 z m 188 860 b 150 897 188 882 174 897 b 113 860 128 897 113 883 b 150 822 113 838 126 822 b 188 860 172 822 188 838 z m 263 785 b 225 822 263 807 249 822 b 188 785 203 822 188 808 b 225 747 188 763 201 747 b 263 785 247 747 263 763 z m 188 785 b 150 822 188 807 174 822 b 113 785 128 822 113 808 b 150 747 113 763 126 747 b 188 785 172 747 188 763 z m 113 785 b 74 821 113 807 97 821 b 38 783 51 821 38 806 b 76 747 38 761 53 747 b 113 783 99 747 113 761 z m 188 711 b 149 747 188 733 172 747 b 113 710 126 747 113 732 b 151 674 113 688 128 674 b 188 710 174 674 188 688 z m 113 711 b 74 747 113 733 97 747 b 38 710 51 747 38 732 b 76 674 38 688 53 674 b 113 710 99 674 113 688 z m 188 636 b 150 674 188 658 174 674 b 113 636 128 674 113 660 b 150 599 113 614 126 599 b 188 636 172 599 188 614 z m 113 636 b 75 674 113 658 99 674 b 38 636 53 674 38 660 b 75 599 38 614 51 599 b 113 636 97 599 113 614 z m 188 561 b 225 524 188 539 201 524 b 263 561 247 524 263 539 b 225 599 263 583 249 599 b 188 561 203 599 188 585 z m 561 563 b 524 599 561 585 546 599 b 488 560 501 599 488 583 b 525 524 488 538 503 524 b 561 560 547 524 561 538 z m 636 561 b 599 599 636 583 622 599 b 561 561 576 599 561 585 b 599 524 561 539 575 524 b 636 561 621 524 636 539 z m 113 561 b 150 524 113 539 126 524 b 188 561 172 524 188 539 b 150 599 188 583 174 599 b 113 561 128 599 113 585 z m 338 561 b 300 599 338 583 324 599 b 263 561 278 599 263 585 b 300 524 263 539 276 524 b 338 561 322 524 338 539 z m 413 561 b 375 599 413 583 399 599 b 338 561 353 599 338 585 b 375 524 338 539 351 524 b 413 561 397 524 413 539 z m 488 561 b 450 599 488 583 474 599 b 413 561 428 599 413 585 b 450 524 413 539 426 524 b 488 561 472 524 488 539 z m 38 561 b 75 524 38 539 51 524 b 113 561 97 524 113 539 b 75 599 113 583 99 599 b 38 561 53 599 38 585 z m 263 486 b 300 449 263 464 276 449 b 338 486 322 449 338 464 b 300 524 338 508 324 524 b 263 486 278 524 263 510 z m 561 488 b 524 524 561 510 546 524 b 488 485 501 524 488 508 b 525 449 488 463 503 449 b 561 485 547 449 561 463 z m 338 486 b 375 449 338 464 351 449 b 413 486 397 449 413 464 b 375 524 413 508 399 524 b 338 486 353 524 338 510 z m 711 486 b 674 524 711 508 697 524 b 636 486 651 524 636 510 b 674 449 636 464 650 449 b 711 486 696 449 711 464 z m 113 486 b 75 524 113 508 99 524 b 38 486 53 524 38 510 b 75 449 38 464 51 449 b 113 486 97 449 113 464 z m 636 486 b 599 524 636 508 622 524 b 561 486 576 524 561 510 b 599 449 561 464 575 449 b 636 486 621 449 636 464 z m 188 486 b 225 449 188 464 201 449 b 263 486 247 449 263 464 b 225 524 263 508 249 524 b 188 486 203 524 188 510 z m 113 486 b 150 449 113 464 126 449 b 188 486 172 449 188 464 b 150 524 188 508 174 524 b 113 486 128 524 113 510 z m 413 486 b 450 449 413 464 426 449 b 488 486 472 449 488 464 b 450 524 488 508 474 524 b 413 486 428 524 413 510 z m 636 411 b 599 449 636 433 622 449 b 561 411 576 449 561 435 b 599 374 561 389 575 374 b 636 411 621 374 636 389 z m 711 411 b 749 374 711 389 725 374 b 786 411 771 374 786 388 b 749 449 786 433 772 449 b 711 411 726 449 711 433 z m 113 411 b 75 449 113 433 99 449 b 38 411 53 449 38 435 b 75 374 38 389 51 374 b 113 411 97 374 113 389 z m 188 411 b 225 374 188 389 201 374 b 263 411 247 374 263 389 b 225 449 263 433 249 449 b 188 411 203 449 188 435 z m 711 411 b 674 449 711 433 697 449 b 636 411 651 449 636 435 b 674 374 636 389 650 374 b 711 411 696 374 711 389 z m 113 411 b 150 374 113 389 126 374 b 188 411 172 374 188 389 b 150 449 188 433 174 449 b 113 411 128 449 113 435 z m 711 336 b 749 299 711 314 725 299 b 786 336 771 299 786 313 b 749 374 786 358 772 374 b 711 336 726 374 711 358 z m 636 336 b 674 299 636 314 650 299 b 711 336 696 299 711 313 b 674 374 711 358 697 374 b 636 336 651 374 636 358 z m 113 263 b 75 300 113 285 99 300 b 38 263 53 300 38 286 b 75 225 38 240 51 225 b 113 263 97 225 113 240 z m 188 263 b 150 300 188 285 174 300 b 113 263 128 300 113 286 b 150 225 113 240 126 225 b 188 263 172 225 188 240 z m 636 261 b 675 225 636 239 651 225 b 711 263 697 225 711 240 b 672 299 711 285 696 299 b 636 263 650 299 636 285 z m 711 261 b 750 225 711 239 726 225 b 786 263 772 225 786 240 b 747 299 786 285 771 299 b 711 263 725 299 711 285 z m 711 188 b 749 150 711 165 725 150 b 786 188 771 150 786 164 b 749 225 786 210 772 225 b 711 188 726 225 711 210 z m 188 188 b 150 225 188 210 174 225 b 113 188 128 225 113 211 b 150 150 113 165 126 150 b 188 188 172 150 188 165 z m 263 188 b 225 225 263 210 249 225 b 188 188 203 225 188 211 b 225 150 188 165 201 150 b 263 188 247 150 263 165 z m 711 188 b 674 225 711 210 697 225 b 636 188 651 225 636 211 b 674 150 636 165 650 150 b 711 188 696 150 711 165 z m 113 188 b 75 225 113 210 99 225 b 38 188 53 225 38 211 b 75 150 38 165 51 150 b 113 188 97 150 113 165 z m 636 188 b 599 225 636 210 622 225 b 561 188 576 225 561 211 b 599 150 561 165 575 150 b 636 188 621 150 636 165 z m 263 113 b 225 150 263 135 249 150 b 188 113 203 150 188 136 b 225 75 188 90 201 75 b 263 113 247 75 263 90 z m 263 113 b 300 75 263 90 276 75 b 338 113 322 75 338 89 b 300 150 338 135 324 150 b 263 113 278 150 263 135 z m 338 113 b 375 75 338 90 351 75 b 413 113 397 75 413 89 b 375 150 413 135 399 150 b 338 113 353 150 338 135 z m 413 113 b 450 75 413 90 426 75 b 488 113 472 75 488 89 b 450 150 488 135 474 150 b 413 113 428 150 413 135 z m 488 111 b 525 75 488 89 503 75 b 561 114 547 75 561 90 b 524 150 561 136 546 150 b 488 114 501 150 488 136 z m 561 113 b 599 75 561 90 575 75 b 636 113 621 75 636 89 b 599 150 636 135 622 150 b 561 113 576 150 561 135 z m 188 113 b 150 150 188 135 174 150 b 113 113 128 150 113 136 b 150 75 113 90 126 75 b 188 113 172 75 188 90 z m 711 113 b 674 150 711 135 697 150 b 636 113 651 150 636 136 b 674 75 636 90 650 75 b 711 113 696 75 711 90 z m 561 38 b 599 0 561 15 575 0 b 636 38 621 0 636 14 b 599 75 636 60 622 75 b 561 38 576 75 561 60 z m 338 38 b 375 0 338 15 351 0 b 413 38 397 0 413 14 b 375 75 413 60 399 75 b 338 38 353 75 338 60 z m 263 38 b 225 75 263 60 249 75 b 188 38 203 75 188 60 b 225 0 188 15 201 0 b 263 38 247 0 263 14 z m 413 38 b 450 0 413 15 426 0 b 488 38 472 0 488 14 b 450 75 488 60 474 75 b 413 38 428 75 413 60 z m 488 36 b 525 0 488 14 503 0 b 561 39 547 0 561 15 b 524 75 561 61 546 75 b 488 39 501 75 488 61 z m 263 38 b 300 0 263 15 276 0 b 338 38 322 0 338 14 b 300 75 338 60 324 75 b 263 38 278 75 263 60 z "},"6":{"ha":749,"x_min":0,"x_max":0,"o":"m 488 933 b 525 897 488 911 503 897 b 561 936 547 897 561 913 b 524 972 561 958 546 972 b 488 936 501 972 488 958 z m 413 935 b 450 897 413 913 426 897 b 488 935 472 897 488 911 b 450 972 488 957 474 972 b 413 935 428 972 413 957 z m 338 935 b 375 897 338 913 351 897 b 413 935 397 897 413 911 b 375 972 413 957 399 972 b 338 935 353 972 338 957 z m 263 935 b 300 897 263 913 276 897 b 338 935 322 897 338 911 b 300 972 338 957 324 972 b 263 935 278 972 263 957 z m 188 935 b 225 897 188 913 201 897 b 263 935 247 897 263 911 b 225 972 263 957 249 972 b 188 935 203 972 188 957 z m 488 858 b 525 822 488 836 503 822 b 561 861 547 822 561 838 b 524 897 561 883 546 897 b 488 861 501 897 488 883 z m 413 860 b 450 822 413 838 426 822 b 488 860 472 822 488 836 b 450 897 488 882 474 897 b 413 860 428 897 413 882 z m 338 860 b 375 822 338 838 351 822 b 413 860 397 822 413 836 b 375 897 413 882 399 897 b 338 860 353 897 338 882 z m 263 860 b 300 822 263 838 276 822 b 338 860 322 822 338 836 b 300 897 338 882 324 897 b 263 860 278 897 263 882 z m 188 860 b 150 897 188 882 174 897 b 113 860 128 897 113 883 b 150 822 113 838 126 822 b 188 860 172 822 188 838 z m 188 860 b 225 822 188 838 201 822 b 263 860 247 822 263 836 b 225 897 263 882 249 897 b 188 860 203 897 188 882 z m 636 860 b 599 897 636 882 622 897 b 561 860 576 897 561 883 b 599 822 561 838 575 822 b 636 860 621 822 636 838 z m 113 785 b 150 747 113 763 126 747 b 188 785 172 747 188 763 b 150 822 188 807 174 822 b 113 785 128 822 113 808 z m 636 785 b 599 822 636 807 622 822 b 561 785 576 822 561 808 b 599 747 561 763 575 747 b 636 785 621 747 636 763 z m 561 785 b 524 822 561 807 547 822 b 486 785 501 822 486 808 b 524 747 486 763 500 747 b 561 785 546 747 561 763 z m 188 785 b 225 747 188 763 201 747 b 263 785 247 747 263 763 b 225 822 263 807 249 822 b 188 785 203 822 188 808 z m 636 785 b 674 747 636 763 650 747 b 711 785 696 747 711 761 b 674 822 711 807 697 822 b 636 785 651 822 636 807 z m 38 785 b 75 747 38 763 51 747 b 113 785 97 747 113 763 b 75 822 113 807 99 822 b 38 785 53 822 38 808 z m 636 710 b 599 747 636 732 622 747 b 561 710 576 747 561 732 b 599 672 561 688 575 672 b 636 710 621 672 636 686 z m 188 711 b 149 747 188 733 172 747 b 113 710 126 747 113 732 b 151 674 113 688 128 674 b 188 710 174 674 188 688 z m 636 710 b 674 672 636 688 650 672 b 711 710 696 672 711 686 b 674 747 711 732 697 747 b 636 710 651 747 636 732 z m 113 711 b 74 747 113 733 97 747 b 38 710 51 747 38 732 b 76 674 38 688 53 674 b 113 710 99 674 113 688 z m 113 636 b 150 599 113 614 126 599 b 188 636 172 599 188 614 b 150 674 188 658 174 674 b 113 636 128 674 113 660 z m 38 636 b 75 599 38 614 51 599 b 113 636 97 599 113 614 b 75 674 113 658 99 674 b 38 636 53 674 38 660 z m 113 561 b 150 524 113 539 126 524 b 188 561 172 524 188 539 b 150 599 188 583 174 599 b 113 561 128 599 113 585 z m 488 560 b 525 524 488 538 503 524 b 561 563 547 524 561 539 b 524 599 561 585 546 599 b 488 563 501 599 488 585 z m 413 561 b 450 524 413 539 426 524 b 488 561 472 524 488 538 b 450 599 488 583 474 599 b 413 561 428 599 413 583 z m 338 561 b 375 524 338 539 351 524 b 413 561 397 524 413 538 b 375 599 413 583 399 599 b 338 561 353 599 338 583 z m 263 561 b 300 524 263 539 276 524 b 338 561 322 524 338 538 b 300 599 338 583 324 599 b 263 561 278 599 263 583 z m 38 561 b 75 524 38 539 51 524 b 113 561 97 524 113 539 b 75 599 113 583 99 599 b 38 561 53 599 38 585 z m 338 486 b 300 524 338 508 324 524 b 263 486 278 524 263 510 b 300 449 263 464 276 449 b 338 486 322 449 338 464 z m 413 486 b 375 524 413 508 399 524 b 338 486 353 524 338 510 b 375 449 338 464 351 449 b 413 486 397 449 413 464 z m 488 486 b 450 524 488 508 474 524 b 413 486 428 524 413 510 b 450 449 413 464 426 449 b 488 486 472 449 488 464 z m 636 486 b 599 524 636 508 622 524 b 561 486 576 524 561 510 b 599 449 561 464 575 449 b 636 486 621 449 636 464 z m 561 488 b 524 524 561 510 546 524 b 488 485 501 524 488 508 b 525 449 488 463 503 449 b 561 485 547 449 561 463 z m 188 486 b 225 449 188 464 201 449 b 263 486 247 449 263 463 b 225 524 263 508 249 524 b 188 486 203 524 188 508 z m 113 486 b 150 449 113 464 126 449 b 188 486 172 449 188 464 b 150 524 188 508 174 524 b 113 486 128 524 113 510 z m 38 486 b 75 449 38 464 51 449 b 113 486 97 449 113 464 b 75 524 113 508 99 524 b 38 486 53 524 38 510 z m 113 411 b 150 374 113 389 126 374 b 188 411 172 374 188 389 b 150 449 188 433 174 449 b 113 411 128 449 113 435 z m 636 411 b 674 374 636 389 650 374 b 711 411 696 374 711 388 b 674 449 711 433 697 449 b 636 411 651 449 636 433 z m 561 411 b 524 449 561 433 547 449 b 486 411 501 449 486 435 b 524 374 486 389 500 374 b 561 411 546 374 561 389 z m 636 411 b 599 449 636 433 622 449 b 561 411 576 449 561 435 b 599 374 561 389 575 374 b 636 411 621 374 636 389 z m 38 411 b 75 374 38 389 51 374 b 113 411 97 374 113 389 b 75 449 113 433 99 449 b 38 411 53 449 38 435 z m 188 411 b 225 374 188 389 201 374 b 263 411 247 374 263 389 b 225 449 263 433 249 449 b 188 411 203 449 188 435 z m 636 336 b 599 374 636 358 622 374 b 561 336 576 374 561 358 b 599 299 561 314 575 299 b 636 336 621 299 636 313 z m 636 336 b 674 299 636 314 650 299 b 711 336 696 299 711 313 b 674 374 711 358 697 374 b 636 336 651 374 636 358 z m 113 336 b 75 374 113 358 99 374 b 38 336 53 374 38 360 b 75 299 38 314 51 299 b 113 336 97 299 113 314 z m 188 336 b 150 374 188 358 174 374 b 113 336 128 374 113 360 b 150 299 113 314 126 299 b 188 336 172 299 188 314 z m 561 261 b 600 225 561 239 576 225 b 636 263 622 225 636 240 b 597 299 636 285 621 299 b 561 263 575 299 561 285 z m 636 261 b 675 225 636 239 651 225 b 711 263 697 225 711 240 b 672 299 711 285 696 299 b 636 263 650 299 636 285 z m 188 263 b 149 299 188 285 172 299 b 113 261 126 299 113 283 b 151 225 113 239 128 225 b 188 261 174 225 188 239 z m 113 263 b 74 299 113 285 97 299 b 38 261 51 299 38 283 b 76 225 38 239 53 225 b 113 261 99 225 113 239 z m 561 188 b 524 225 561 210 547 225 b 486 188 501 225 486 211 b 524 150 486 165 500 150 b 561 188 546 150 561 165 z m 636 188 b 599 225 636 210 622 225 b 561 188 576 225 561 211 b 599 150 561 165 575 150 b 636 188 621 150 636 165 z m 113 188 b 75 225 113 210 99 225 b 38 188 53 225 38 211 b 75 150 38 165 51 150 b 113 188 97 150 113 165 z m 188 188 b 150 225 188 210 174 225 b 113 188 128 225 113 211 b 150 150 113 165 126 150 b 188 188 172 150 188 165 z m 263 188 b 225 225 263 210 249 225 b 188 188 203 225 188 211 b 225 150 188 165 201 150 b 263 188 247 150 263 165 z m 636 188 b 674 150 636 165 650 150 b 711 188 696 150 711 164 b 674 225 711 210 697 225 b 636 188 651 225 636 210 z m 338 113 b 375 75 338 90 351 75 b 413 113 397 75 413 89 b 375 150 413 135 399 150 b 338 113 353 150 338 135 z m 263 113 b 300 75 263 90 276 75 b 338 113 322 75 338 89 b 300 150 338 135 324 150 b 263 113 278 150 263 135 z m 488 111 b 525 75 488 89 503 75 b 561 114 547 75 561 90 b 524 150 561 136 546 150 b 488 114 501 150 488 136 z m 188 113 b 225 75 188 90 201 75 b 263 113 247 75 263 89 b 225 150 263 135 249 150 b 188 113 203 150 188 135 z m 636 113 b 599 150 636 135 622 150 b 561 113 576 150 561 136 b 599 75 561 90 575 75 b 636 113 621 75 636 90 z m 188 113 b 150 150 188 135 174 150 b 113 113 128 150 113 136 b 150 75 113 90 126 75 b 188 113 172 75 188 90 z m 413 113 b 450 75 413 90 426 75 b 488 113 472 75 488 89 b 450 150 488 135 474 150 b 413 113 428 150 413 135 z m 338 38 b 375 0 338 15 351 0 b 413 38 397 0 413 14 b 375 75 413 60 399 75 b 338 38 353 75 338 60 z m 413 38 b 450 0 413 15 426 0 b 488 38 472 0 488 14 b 450 75 488 60 474 75 b 413 38 428 75 413 60 z m 263 38 b 300 0 263 15 276 0 b 338 38 322 0 338 14 b 300 75 338 60 324 75 b 263 38 278 75 263 60 z m 188 38 b 225 0 188 15 201 0 b 263 38 247 0 263 14 b 225 75 263 60 249 75 b 188 38 203 75 188 60 z m 488 36 b 525 0 488 14 503 0 b 561 39 547 0 561 15 b 524 75 561 61 546 75 b 488 39 501 75 488 61 z "},"7":{"ha":747,"x_min":0,"x_max":0,"o":"m 38 933 b 74 897 38 911 51 897 b 111 933 96 897 111 911 b 75 972 111 957 97 972 b 38 936 53 972 38 958 z m 111 935 b 149 897 111 913 126 897 b 186 935 172 897 186 913 b 149 972 186 958 171 972 b 111 935 125 972 111 957 z m 186 935 b 224 897 186 913 201 897 b 261 935 247 897 261 913 b 224 972 261 958 246 972 b 186 935 200 972 186 957 z m 635 935 b 672 897 635 913 650 897 b 710 935 696 897 710 913 b 672 972 710 958 694 972 b 635 935 649 972 635 957 z m 560 935 b 597 897 560 913 575 897 b 635 935 621 897 635 913 b 597 972 635 958 619 972 b 560 935 574 972 560 957 z m 486 933 b 522 897 486 911 500 897 b 560 933 544 897 560 911 b 524 972 560 957 546 972 b 486 936 501 972 486 958 z m 261 935 b 299 897 261 913 276 897 b 336 935 322 897 336 913 b 299 972 336 958 321 972 b 261 935 275 972 261 957 z m 336 935 b 374 897 336 913 351 897 b 411 935 397 897 411 913 b 374 972 411 958 396 972 b 336 935 350 972 336 957 z m 411 935 b 449 897 411 913 426 897 b 486 935 472 897 486 913 b 449 972 486 958 471 972 b 411 935 425 972 411 957 z m 486 858 b 522 822 486 836 500 822 b 560 858 544 822 560 836 b 524 897 560 882 546 897 b 486 861 501 897 486 883 z m 560 860 b 597 822 560 838 575 822 b 635 860 621 822 635 838 b 597 897 635 883 619 897 b 560 860 574 897 560 882 z m 635 860 b 672 822 635 838 650 822 b 710 860 696 822 710 838 b 672 897 710 883 694 897 b 635 860 649 897 635 882 z m 38 858 b 74 822 38 836 51 822 b 111 858 96 822 111 836 b 75 897 111 882 97 897 b 38 861 53 897 38 883 z m 111 860 b 149 822 111 838 126 822 b 186 860 172 822 186 838 b 149 897 186 883 171 897 b 111 860 125 897 111 882 z m 186 860 b 224 822 186 838 201 822 b 261 860 247 822 261 838 b 224 897 261 883 246 897 b 186 860 200 897 186 882 z m 261 860 b 299 822 261 838 276 822 b 336 860 322 822 336 838 b 299 897 336 883 321 897 b 261 860 275 897 261 882 z m 336 860 b 374 822 336 838 351 822 b 411 860 397 822 411 838 b 374 897 411 883 396 897 b 336 860 350 897 336 882 z m 411 860 b 449 822 411 838 426 822 b 486 860 472 822 486 838 b 449 897 486 883 471 897 b 411 860 425 897 411 882 z m 560 786 b 524 822 560 808 546 822 b 486 786 501 822 486 808 b 522 747 486 763 500 747 b 560 783 544 747 560 761 z m 635 785 b 597 822 635 807 619 822 b 560 785 574 822 560 807 b 597 747 560 761 575 747 b 635 785 621 747 635 763 z m 486 711 b 450 747 486 733 472 747 b 411 711 426 747 411 733 b 447 674 411 689 425 674 b 486 710 471 674 486 688 z m 561 711 b 525 747 561 733 547 747 b 486 711 501 747 486 733 b 522 674 486 689 500 674 b 561 710 546 674 561 688 z m 486 636 b 449 674 486 658 471 674 b 411 636 425 674 411 658 b 449 599 411 613 426 599 b 486 636 472 599 486 614 z m 561 636 b 524 674 561 658 546 674 b 486 636 500 674 486 658 b 524 599 486 613 501 599 b 561 636 547 599 561 614 z m 411 561 b 374 599 411 583 396 599 b 336 561 350 599 336 583 b 374 524 336 538 351 524 b 411 561 397 524 411 539 z m 486 561 b 449 599 486 583 471 599 b 411 561 425 599 411 583 b 449 524 411 538 426 524 b 486 561 472 524 486 539 z m 411 486 b 374 524 411 508 396 524 b 336 486 350 524 336 508 b 374 449 336 463 351 449 b 411 486 397 449 411 464 z m 486 486 b 449 524 486 508 471 524 b 411 486 425 524 411 508 b 449 449 411 463 426 449 b 486 486 472 449 486 464 z m 336 411 b 299 449 336 433 321 449 b 261 411 275 449 261 433 b 299 374 261 388 276 374 b 336 411 322 374 336 389 z m 411 411 b 374 449 411 433 396 449 b 336 411 350 449 336 433 b 374 374 336 388 351 374 b 411 411 397 374 411 389 z m 336 336 b 299 374 336 358 321 374 b 261 336 275 374 261 358 b 299 299 261 313 276 299 b 336 336 322 299 336 314 z m 411 336 b 374 374 411 358 396 374 b 336 336 350 374 336 358 b 374 299 336 313 351 299 b 411 336 397 299 411 314 z m 336 263 b 300 299 336 285 322 299 b 261 263 276 299 261 285 b 297 225 261 240 275 225 b 336 261 321 225 336 239 z m 411 263 b 375 299 411 285 397 299 b 336 263 351 299 336 285 b 372 225 336 240 350 225 b 411 261 396 225 411 239 z m 261 188 b 224 225 261 210 246 225 b 186 188 200 225 186 210 b 224 150 186 164 201 150 b 261 188 247 150 261 165 z m 336 188 b 299 225 336 210 321 225 b 261 188 275 225 261 210 b 299 150 261 164 276 150 b 336 188 322 150 336 165 z m 261 113 b 224 150 261 135 246 150 b 186 113 200 150 186 135 b 224 75 186 89 201 75 b 261 113 247 75 261 90 z m 336 113 b 299 150 336 135 321 150 b 261 113 275 150 261 135 b 299 75 261 89 276 75 b 336 113 322 75 336 90 z m 186 38 b 224 0 186 15 201 0 b 261 38 247 0 261 15 b 224 75 261 61 246 75 b 186 38 200 75 186 60 z m 261 38 b 299 0 261 15 276 0 b 336 38 322 0 336 15 b 299 75 336 61 321 75 b 261 38 275 75 261 60 z "},"8":{"ha":747,"x_min":0,"x_max":0,"o":"m 186 935 b 224 897 186 913 200 897 b 261 935 246 897 261 911 b 224 972 261 957 247 972 b 186 935 201 972 186 957 z m 261 935 b 299 897 261 913 275 897 b 336 935 321 897 336 911 b 299 972 336 957 322 972 b 261 935 276 972 261 957 z m 486 933 b 524 897 486 911 501 897 b 560 936 546 897 560 913 b 522 972 560 958 544 972 b 486 936 500 972 486 958 z m 336 935 b 374 897 336 913 350 897 b 411 935 396 897 411 911 b 374 972 411 957 397 972 b 336 935 351 972 336 957 z m 411 935 b 449 897 411 913 425 897 b 486 935 471 897 486 911 b 449 972 486 957 472 972 b 411 935 426 972 411 957 z m 260 860 b 296 824 260 838 274 824 l 299 824 b 335 861 321 824 335 839 b 296 897 335 883 319 897 b 260 860 274 897 260 882 z m 185 786 b 222 749 185 764 200 749 b 260 786 244 749 260 763 b 231 824 260 806 249 819 b 260 860 249 826 260 840 b 222 897 260 882 246 897 b 186 868 203 897 189 886 b 149 897 182 886 169 897 b 111 860 126 897 111 883 b 149 822 111 838 125 822 b 185 851 168 822 182 833 b 214 824 188 836 199 825 b 185 786 196 819 185 807 z m 374 824 b 410 861 396 824 410 839 b 371 897 410 883 394 897 b 335 860 349 897 335 882 b 371 824 335 838 349 824 z m 449 824 b 485 861 471 824 485 839 b 446 897 485 883 469 897 b 410 860 424 897 410 882 b 446 824 410 838 424 824 z m 522 749 b 560 786 544 749 560 763 b 531 822 560 806 549 819 b 560 860 549 826 560 839 b 522 897 560 882 546 897 b 485 860 500 897 485 883 b 514 824 485 840 496 826 b 485 786 496 819 485 807 b 522 749 485 764 500 749 z m 635 860 b 597 897 635 882 621 897 b 560 860 575 897 560 883 b 597 822 560 838 574 822 b 635 860 619 822 635 838 z m 111 786 b 74 822 111 808 96 822 b 38 783 51 822 38 807 b 75 747 38 761 53 747 b 111 783 97 747 111 761 z m 635 785 b 597 822 635 807 621 822 b 560 785 575 822 560 808 b 597 747 560 763 575 747 b 635 785 619 747 635 761 z m 111 783 b 149 747 111 761 126 747 b 185 783 171 747 185 761 l 185 786 b 147 822 185 808 169 822 b 111 783 125 822 111 807 z m 635 785 b 672 747 635 763 649 747 b 710 785 694 747 710 761 b 672 822 710 807 696 822 b 635 785 650 822 635 807 z m 185 711 b 147 747 185 733 169 747 b 111 710 125 747 111 732 b 149 674 111 688 125 674 b 185 710 171 674 185 688 z m 111 711 b 74 747 111 733 96 747 b 38 710 51 747 38 732 b 75 674 38 688 51 674 b 111 710 97 674 111 688 z m 635 710 b 674 674 635 688 650 674 b 710 711 696 674 710 689 b 671 747 710 733 694 747 b 635 711 649 747 635 733 z m 599 674 b 635 711 621 674 635 689 b 596 747 635 733 619 747 b 560 710 574 747 560 732 b 596 674 560 688 574 674 z m 635 636 b 672 599 635 614 649 599 b 710 636 694 599 710 613 b 672 674 710 658 696 674 b 635 636 650 674 635 658 z m 111 638 b 74 674 111 660 96 674 b 38 635 51 674 38 658 b 75 599 38 613 53 599 b 111 635 97 599 111 613 z m 597 599 b 635 636 619 599 635 613 b 597 674 635 658 621 674 b 560 636 575 674 560 660 b 597 599 560 614 575 599 z m 185 638 b 147 674 185 660 169 674 b 111 635 125 674 111 658 b 149 599 111 613 126 599 b 185 635 171 599 185 613 z m 522 524 b 560 561 544 524 560 538 b 531 597 560 581 549 594 b 560 635 549 601 560 614 b 522 672 560 657 544 672 b 485 635 500 672 485 658 b 514 599 485 615 496 601 b 485 561 496 594 485 582 b 522 524 485 539 500 524 z m 260 561 b 231 597 260 581 249 594 b 260 635 249 601 260 614 b 222 672 260 657 244 672 b 185 635 200 672 185 658 b 214 599 185 615 196 601 b 186 569 199 596 188 585 b 149 599 182 588 169 599 b 111 561 126 599 111 585 b 149 524 111 539 125 524 b 185 553 168 524 182 535 b 222 524 189 535 201 524 b 260 561 244 524 260 539 z m 635 561 b 597 599 635 583 621 599 b 560 561 575 599 560 585 b 597 524 560 539 574 524 b 635 561 619 524 635 539 z m 446 597 b 410 560 424 597 410 582 b 449 524 410 538 425 524 b 485 561 471 524 485 539 b 449 597 485 583 471 597 z m 371 597 b 335 560 349 597 335 582 b 374 524 335 538 350 524 b 410 561 396 524 410 539 b 374 597 410 583 396 597 z m 296 597 b 260 560 274 597 260 582 b 299 524 260 538 275 524 b 335 561 321 524 335 539 b 299 597 335 583 321 597 z m 411 486 b 449 449 411 464 425 449 b 486 486 471 449 486 464 b 449 524 486 508 472 524 b 411 486 426 524 411 510 z m 560 488 b 522 524 560 510 544 524 b 486 485 500 524 486 508 b 524 449 486 463 501 449 b 560 485 546 449 560 463 z m 261 486 b 299 449 261 464 275 449 b 336 486 321 449 336 464 b 299 524 336 508 322 524 b 261 486 276 524 261 510 z m 186 486 b 224 449 186 464 200 449 b 261 486 246 449 261 464 b 224 524 261 508 247 524 b 186 486 201 524 186 510 z m 336 486 b 374 449 336 464 350 449 b 411 486 396 449 411 464 b 374 524 411 508 397 524 b 336 486 351 524 336 510 z m 260 411 b 222 449 260 433 246 449 b 186 419 203 449 189 438 b 149 449 182 438 169 449 b 111 411 126 449 111 435 b 149 374 111 389 125 374 b 185 403 168 374 182 385 b 222 374 189 385 201 374 b 260 411 244 374 260 389 z m 635 411 b 597 449 635 433 621 449 b 561 419 578 449 564 438 b 524 449 557 438 544 449 b 486 411 501 449 486 435 b 524 374 486 389 501 374 b 560 403 543 374 557 385 b 597 374 564 385 576 374 b 635 411 619 374 635 389 z m 599 299 b 635 338 621 299 635 314 b 597 374 635 360 619 374 b 561 335 575 374 561 358 b 597 299 561 313 575 299 z m 185 338 b 147 374 185 360 169 374 b 111 335 125 374 111 358 b 149 299 111 313 126 299 b 185 335 171 299 185 313 z m 635 336 b 672 299 635 314 649 299 b 710 336 694 299 710 313 b 672 374 710 358 696 374 b 635 336 650 374 635 358 z m 111 338 b 74 374 111 360 96 374 b 38 335 51 374 38 358 b 75 299 38 313 53 299 b 111 335 97 299 111 313 z m 635 261 b 674 225 635 239 650 225 b 710 263 696 225 710 240 b 671 299 710 285 694 299 b 635 263 649 299 635 285 z m 599 225 b 635 263 621 225 635 240 b 597 299 635 285 619 299 b 561 261 575 299 561 285 b 597 225 561 239 575 225 z m 185 263 b 147 299 185 285 169 299 b 111 261 125 299 111 283 b 149 225 111 239 125 225 b 185 261 171 225 185 239 z m 111 263 b 74 299 111 285 96 299 b 38 261 51 299 38 283 b 75 225 38 239 51 225 b 111 261 97 225 111 239 z m 111 189 b 74 225 111 211 96 225 b 38 186 51 225 38 210 b 75 150 38 164 53 150 b 111 186 97 150 111 164 z m 635 188 b 672 150 635 165 649 150 b 710 188 694 150 710 164 b 672 225 710 210 696 225 b 635 188 650 225 635 210 z m 599 150 b 635 189 621 150 635 165 b 597 225 635 211 619 225 b 561 186 575 225 561 210 b 597 150 561 164 575 150 z m 185 189 b 147 225 185 211 169 225 b 111 186 125 225 111 210 b 149 150 111 164 126 150 b 185 186 171 150 185 164 z m 260 113 b 231 149 260 132 249 146 b 260 186 249 153 260 165 b 222 224 260 208 244 224 b 185 186 200 224 185 210 b 214 150 185 167 196 153 b 186 121 199 147 188 136 b 149 150 182 139 169 150 b 111 113 126 150 111 136 b 149 75 111 90 125 75 b 185 104 168 75 182 86 b 222 75 189 86 201 75 b 260 113 244 75 260 90 z m 635 113 b 597 150 635 135 621 150 b 561 121 578 150 564 139 b 532 149 558 136 547 147 b 561 186 550 153 561 165 b 524 224 561 208 546 224 b 486 186 501 224 486 210 b 515 150 486 167 497 153 b 486 113 497 146 486 133 b 524 75 486 90 501 75 b 560 104 543 75 557 86 b 597 75 564 86 576 75 b 635 113 619 75 635 90 z m 446 149 b 410 111 424 149 410 133 b 450 75 410 89 425 75 b 486 113 472 75 486 90 b 450 149 486 135 472 149 z m 296 149 b 260 111 274 149 260 133 b 300 75 260 89 275 75 b 336 113 322 75 336 90 b 300 149 336 135 322 149 z m 372 149 b 336 111 350 149 336 133 b 374 75 336 89 351 75 b 410 113 396 75 410 89 b 374 149 410 135 396 149 z m 186 38 b 224 0 186 15 200 0 b 261 38 246 0 261 14 b 224 75 261 60 247 75 b 186 38 201 75 186 60 z m 486 36 b 524 0 486 14 501 0 b 560 39 546 0 560 15 b 522 75 560 61 544 75 b 486 39 500 75 486 61 z m 261 38 b 299 0 261 15 275 0 b 336 38 321 0 336 14 b 299 75 336 60 322 75 b 261 38 276 75 261 60 z m 411 38 b 449 0 411 15 425 0 b 486 38 471 0 486 14 b 449 75 486 60 472 75 b 411 38 426 75 411 60 z m 336 38 b 374 0 336 15 350 0 b 411 38 396 0 411 14 b 374 75 411 60 397 75 b 336 38 351 75 336 60 z "},"9":{"ha":749,"x_min":0,"x_max":0,"o":"m 261 936 b 224 972 261 958 246 972 b 188 933 201 972 188 957 b 225 897 188 911 203 897 b 261 933 247 897 261 911 z m 336 935 b 299 972 336 957 322 972 b 261 935 276 972 261 958 b 299 897 261 913 275 897 b 336 935 321 897 336 913 z m 411 935 b 374 972 411 957 397 972 b 336 935 351 972 336 958 b 374 897 336 913 350 897 b 411 935 396 897 411 913 z m 486 935 b 449 972 486 957 472 972 b 411 935 426 972 411 958 b 449 897 411 913 425 897 b 486 935 471 897 486 913 z m 561 935 b 524 972 561 957 547 972 b 486 935 501 972 486 958 b 524 897 486 913 500 897 b 561 935 546 897 561 913 z m 561 860 b 524 897 561 882 547 897 b 486 860 501 897 486 883 b 524 822 486 838 500 822 b 561 860 546 822 561 838 z m 561 860 b 599 822 561 838 575 822 b 636 860 621 822 636 836 b 599 897 636 882 622 897 b 561 860 576 897 561 882 z m 486 860 b 449 897 486 882 472 897 b 411 860 426 897 411 883 b 449 822 411 838 425 822 b 486 860 471 822 486 838 z m 411 860 b 374 897 411 882 397 897 b 336 860 351 897 336 883 b 374 822 336 838 350 822 b 411 860 396 822 411 838 z m 336 860 b 299 897 336 882 322 897 b 261 860 276 897 261 883 b 299 822 261 838 275 822 b 336 860 321 822 336 838 z m 261 861 b 224 897 261 883 246 897 b 188 858 201 897 188 882 b 225 822 188 836 203 822 b 261 858 247 822 261 836 z m 113 860 b 150 822 113 838 126 822 b 188 860 172 822 188 836 b 150 897 188 882 174 897 b 113 860 128 897 113 882 z m 188 785 b 225 747 188 763 201 747 b 263 785 247 747 263 761 b 225 822 263 807 249 822 b 188 785 203 822 188 807 z m 636 785 b 674 747 636 763 650 747 b 711 785 696 747 711 761 b 674 822 711 807 697 822 b 636 785 651 822 636 807 z m 561 785 b 599 747 561 763 575 747 b 636 785 621 747 636 761 b 599 822 636 807 622 822 b 561 785 576 822 561 807 z m 113 785 b 150 747 113 763 126 747 b 188 785 172 747 188 761 b 150 822 188 807 174 822 b 113 785 128 822 113 807 z m 113 785 b 75 822 113 807 99 822 b 38 785 53 822 38 808 b 75 747 38 763 51 747 b 113 785 97 747 113 763 z m 486 785 b 524 747 486 763 500 747 b 561 785 546 747 561 761 b 524 822 561 807 547 822 b 486 785 501 822 486 807 z m 636 710 b 675 674 636 688 651 674 b 711 711 697 674 711 689 b 672 747 711 733 696 747 b 636 711 650 747 636 733 z m 188 711 b 149 747 188 733 172 747 b 113 710 126 747 113 732 b 151 674 113 688 128 674 b 188 710 174 674 188 688 z m 113 711 b 74 747 113 733 97 747 b 38 710 51 747 38 732 b 76 674 38 688 53 674 b 113 710 99 674 113 688 z m 561 710 b 600 674 561 688 576 674 b 636 711 622 674 636 689 b 597 747 636 733 621 747 b 561 711 575 747 561 733 z m 636 636 b 674 599 636 614 650 599 b 711 636 696 599 711 613 b 674 674 711 658 697 674 b 636 636 651 674 636 658 z m 113 636 b 150 599 113 614 126 599 b 188 636 172 599 188 614 b 150 674 188 658 174 674 b 113 636 128 674 113 660 z m 38 636 b 75 599 38 614 51 599 b 113 636 97 599 113 614 b 75 674 113 658 99 674 b 38 636 53 674 38 660 z m 561 636 b 599 599 561 614 575 599 b 636 636 621 599 636 613 b 599 674 636 658 622 674 b 561 636 576 674 561 658 z m 636 561 b 674 524 636 539 650 524 b 711 561 696 524 711 538 b 674 599 711 583 697 599 b 636 561 651 599 636 583 z m 113 561 b 75 599 113 583 99 599 b 38 561 53 599 38 585 b 75 524 38 539 51 524 b 113 561 97 524 113 539 z m 561 561 b 524 599 561 583 547 599 b 486 561 501 599 486 583 b 524 524 486 539 500 524 b 561 561 546 524 561 538 z m 188 561 b 225 524 188 539 201 524 b 263 561 247 524 263 538 b 225 599 263 583 249 599 b 188 561 203 599 188 583 z m 561 561 b 599 524 561 539 575 524 b 636 561 621 524 636 538 b 599 599 636 583 622 599 b 561 561 576 599 561 583 z m 113 561 b 150 524 113 539 126 524 b 188 561 172 524 188 538 b 150 599 188 583 174 599 b 113 561 128 599 113 583 z m 188 485 b 225 449 188 463 203 449 b 261 488 247 449 261 464 b 224 524 261 510 246 524 b 188 488 201 524 188 510 z m 636 486 b 674 449 636 464 650 449 b 711 486 696 449 711 463 b 674 524 711 508 697 524 b 636 486 651 524 636 508 z m 336 486 b 299 524 336 508 322 524 b 261 486 276 524 261 508 b 299 449 261 464 275 449 b 336 486 321 449 336 463 z m 411 486 b 374 524 411 508 397 524 b 336 486 351 524 336 508 b 374 449 336 464 350 449 b 411 486 396 449 411 463 z m 411 486 b 449 449 411 464 425 449 b 486 486 471 449 486 463 b 449 524 486 508 472 524 b 411 486 426 524 411 508 z m 561 486 b 599 449 561 464 575 449 b 636 486 621 449 636 463 b 599 524 636 508 622 524 b 561 486 576 524 561 508 z m 561 486 b 524 524 561 508 547 524 b 486 486 501 524 486 510 b 524 449 486 464 500 449 b 561 486 546 449 561 464 z m 113 486 b 150 449 113 464 126 449 b 188 486 172 449 188 463 b 150 524 188 508 174 524 b 113 486 128 524 113 508 z m 636 411 b 599 449 636 433 622 449 b 561 411 576 449 561 433 b 599 374 561 389 575 374 b 636 411 621 374 636 388 z m 636 411 b 674 374 636 389 650 374 b 711 411 696 374 711 388 b 674 449 711 433 697 449 b 636 411 651 449 636 433 z m 486 411 b 449 449 486 433 472 449 b 411 411 426 449 411 435 b 449 374 411 389 425 374 b 486 411 471 374 486 389 z m 411 411 b 374 449 411 433 397 449 b 336 411 351 449 336 435 b 374 374 336 389 350 374 b 411 411 396 374 411 389 z m 336 411 b 299 449 336 433 322 449 b 261 411 276 449 261 435 b 299 374 261 389 275 374 b 336 411 321 374 336 389 z m 261 413 b 224 449 261 435 246 449 b 188 410 201 449 188 433 b 225 374 188 388 203 374 b 261 410 247 374 261 388 z m 636 336 b 674 299 636 314 650 299 b 711 336 696 299 711 313 b 674 374 711 358 697 374 b 636 336 651 374 636 358 z m 561 336 b 599 299 561 314 575 299 b 636 336 621 299 636 313 b 599 374 636 358 622 374 b 561 336 576 374 561 358 z m 113 263 b 150 225 113 240 126 225 b 188 263 172 225 188 240 b 150 300 188 285 174 300 b 113 263 128 300 113 286 z m 38 263 b 75 225 38 240 51 225 b 113 263 97 225 113 240 b 75 300 113 285 99 300 b 38 263 53 300 38 286 z m 636 261 b 675 225 636 239 651 225 b 711 263 697 225 711 240 b 672 299 711 285 696 299 b 636 263 650 299 636 285 z m 561 261 b 600 225 561 239 576 225 b 636 263 622 225 636 240 b 597 299 636 285 621 299 b 561 263 575 299 561 285 z m 113 188 b 150 150 113 165 126 150 b 188 188 172 150 188 164 b 150 225 188 210 174 225 b 113 188 128 225 113 210 z m 636 188 b 674 150 636 165 650 150 b 711 188 696 150 711 164 b 674 225 711 210 697 225 b 636 188 651 225 636 210 z m 113 188 b 75 225 113 210 99 225 b 38 188 53 225 38 211 b 75 150 38 165 51 150 b 113 188 97 150 113 165 z m 561 188 b 524 225 561 210 547 225 b 486 188 501 225 486 210 b 524 150 486 165 500 150 b 561 188 546 150 561 164 z m 188 188 b 225 150 188 165 201 150 b 263 188 247 150 263 164 b 225 225 263 210 249 225 b 188 188 203 225 188 210 z m 561 188 b 599 150 561 165 575 150 b 636 188 621 150 636 164 b 599 225 636 210 622 225 b 561 188 576 225 561 210 z m 261 114 b 224 150 261 136 246 150 b 188 111 201 150 188 135 b 225 75 188 89 203 75 b 261 111 247 75 261 89 z m 336 113 b 299 150 336 135 322 150 b 261 113 276 150 261 136 b 299 75 261 90 275 75 b 336 113 321 75 336 90 z m 411 113 b 374 150 411 135 397 150 b 336 113 351 150 336 136 b 374 75 336 90 350 75 b 411 113 396 75 411 90 z m 486 113 b 449 150 486 135 472 150 b 411 113 426 150 411 136 b 449 75 411 90 425 75 b 486 113 471 75 486 90 z m 561 113 b 524 150 561 135 547 150 b 486 113 501 150 486 136 b 524 75 486 90 500 75 b 561 113 546 75 561 90 z m 113 113 b 150 75 113 90 126 75 b 188 113 172 75 188 89 b 150 150 188 135 174 150 b 113 113 128 150 113 135 z m 561 113 b 599 75 561 90 575 75 b 636 113 621 75 636 89 b 599 150 636 135 622 150 b 561 113 576 150 561 135 z m 261 39 b 224 75 261 61 246 75 b 188 36 201 75 188 60 b 225 0 188 14 203 0 b 261 36 247 0 261 14 z m 336 38 b 299 75 336 60 322 75 b 261 38 276 75 261 61 b 299 0 261 15 275 0 b 336 38 321 0 336 15 z m 411 38 b 374 75 411 60 397 75 b 336 38 351 75 336 61 b 374 0 336 15 350 0 b 411 38 396 0 411 15 z m 486 38 b 449 75 486 60 472 75 b 411 38 426 75 411 61 b 449 0 411 15 425 0 b 486 38 471 0 486 15 z m 561 38 b 524 75 561 60 547 75 b 486 38 501 75 486 61 b 524 0 486 15 500 0 b 561 38 546 0 561 15 z "},"\u0000":{"ha":0,"x_min":0,"x_max":0,"o":""},"":{"ha":897,"x_min":0,"x_max":0,"o":"m 747 897 b 785 935 771 897 785 913 b 747 972 785 958 769 972 b 710 935 725 972 710 957 b 747 897 710 911 725 897 z m 822 897 b 860 935 846 897 860 913 b 822 972 860 958 844 972 b 785 935 800 972 785 957 b 822 897 785 911 800 897 z m 747 822 b 785 860 771 822 785 838 b 747 897 785 883 769 897 b 710 860 725 897 710 882 b 747 822 710 836 725 822 z m 822 822 b 860 860 846 822 860 838 b 822 897 860 883 844 897 b 785 860 800 897 785 882 b 822 822 785 836 800 822 z m 710 785 b 747 747 710 761 725 747 b 785 785 771 747 785 763 b 747 822 785 808 769 822 b 710 785 725 822 710 807 z m 785 785 b 822 747 785 761 800 747 b 860 785 846 747 860 763 b 822 822 860 808 844 822 b 785 785 800 822 785 807 z m 746 747 b 710 711 724 747 710 733 b 746 674 710 689 724 674 b 785 710 769 674 785 688 b 749 747 785 732 771 747 z m 821 747 b 785 711 799 747 785 733 b 821 674 785 689 799 674 b 860 710 844 674 860 688 b 824 747 860 732 846 747 z m 747 599 b 785 636 771 599 785 614 b 747 674 785 660 769 674 b 710 636 725 674 710 658 b 747 599 710 613 725 599 z m 822 599 b 860 636 846 599 860 614 b 822 674 860 660 844 674 b 785 636 800 674 785 658 b 822 599 785 613 800 599 z m 747 524 b 785 561 771 524 785 539 b 747 599 785 585 769 599 b 710 561 725 599 710 583 b 747 524 710 538 725 524 z m 822 524 b 860 561 846 524 860 539 b 822 599 860 585 844 599 b 785 561 800 599 785 583 b 822 524 785 538 800 524 z m 300 449 b 336 485 322 449 336 463 b 308 522 336 506 325 519 b 336 558 325 526 336 539 b 300 597 336 582 322 597 b 263 561 278 597 263 583 b 292 522 263 540 274 526 b 263 488 274 519 263 507 b 299 449 263 464 276 449 z m 822 449 b 860 486 846 449 860 464 b 822 524 860 510 844 524 b 785 486 800 524 785 508 b 822 449 785 463 800 449 z m 747 449 b 785 486 771 449 785 464 b 747 524 785 510 769 524 b 710 486 725 524 710 508 b 747 449 710 463 725 449 z m 225 374 b 263 411 247 374 263 389 b 233 449 263 432 251 444 b 263 485 251 451 263 465 b 225 522 263 508 247 522 b 188 485 201 522 188 507 b 217 449 188 464 199 451 b 188 411 199 444 188 431 b 225 374 188 388 203 374 z m 710 411 b 747 374 710 388 725 374 b 785 411 771 374 785 389 b 747 449 785 435 769 449 b 710 411 725 449 710 433 z m 300 374 b 336 410 322 374 336 388 b 300 449 336 433 322 449 b 263 413 278 449 263 435 b 299 374 263 389 276 374 z m 822 374 b 860 411 846 374 860 389 b 822 449 860 435 844 449 b 785 411 800 449 785 433 b 822 374 785 388 800 374 z m 150 299 b 188 336 172 299 188 314 b 158 374 188 357 176 369 b 188 410 176 376 188 390 b 150 447 188 433 172 447 b 113 410 126 447 113 432 b 142 374 113 389 124 376 b 113 336 124 369 113 356 b 150 299 113 313 128 299 z m 374 299 b 411 336 396 299 411 314 b 374 374 411 360 396 374 b 336 336 350 374 336 358 b 374 299 336 313 351 299 z m 785 336 b 822 299 785 313 800 299 b 860 336 846 299 860 314 b 822 374 860 360 844 374 b 785 336 800 374 785 358 z m 300 299 b 336 335 322 299 336 313 b 300 374 336 358 322 374 b 263 338 278 374 263 360 b 299 299 263 314 276 299 z m 225 299 b 263 336 247 299 263 314 b 225 374 263 360 247 374 b 188 336 201 374 188 358 b 225 299 188 313 203 299 z m 449 299 b 486 336 471 299 486 314 b 449 374 486 360 471 374 b 411 336 425 374 411 358 b 449 299 411 313 426 299 z m 524 299 b 561 336 546 299 561 314 b 524 374 561 360 546 374 b 486 336 500 374 486 358 b 524 299 486 313 501 299 z m 599 299 b 636 336 621 299 636 314 b 599 374 636 360 621 374 b 561 336 575 374 561 358 b 599 299 561 313 576 299 z m 674 299 b 711 336 696 299 711 314 b 674 374 711 360 696 374 b 636 336 650 374 636 358 b 674 299 636 313 651 299 z m 749 299 b 785 335 771 299 785 313 b 749 374 785 358 771 374 b 711 338 726 374 711 360 b 747 299 711 314 725 299 z m 74 299 b 113 335 97 299 113 313 b 76 372 113 357 99 372 l 74 372 b 38 336 51 372 38 358 b 74 299 38 314 51 299 z m 749 225 b 785 261 769 225 785 240 b 749 299 785 285 771 299 b 711 263 726 299 711 285 b 747 225 711 240 725 225 z m 675 225 b 711 261 697 225 711 239 b 675 299 711 283 697 299 b 636 263 651 299 636 285 b 672 225 636 240 650 225 z m 600 225 b 636 261 622 225 636 239 b 600 299 636 283 622 299 b 561 263 576 299 561 285 b 597 225 561 240 575 225 z m 821 299 b 785 263 799 299 785 285 b 821 225 785 240 799 225 b 860 261 844 225 860 239 b 824 299 860 283 846 299 z m 525 225 b 561 261 547 225 561 239 b 525 299 561 283 547 299 b 486 263 501 299 486 285 b 522 225 486 240 500 225 z m 450 225 b 486 261 472 225 486 239 b 450 299 486 283 472 299 b 411 263 426 299 411 285 b 447 225 411 240 425 225 z m 226 225 b 263 261 249 225 263 239 b 226 299 263 283 249 299 b 188 263 203 299 188 285 b 224 225 188 240 201 225 z m 151 225 b 188 261 174 225 188 239 b 151 299 188 283 174 299 b 113 263 128 299 113 285 b 149 225 113 240 126 225 z m 375 225 b 411 261 397 225 411 239 b 375 299 411 283 397 299 b 336 263 351 299 336 285 b 372 225 336 240 350 225 z m 300 225 b 336 261 321 225 336 240 b 300 299 336 285 322 299 b 263 263 278 299 263 285 b 299 225 263 240 276 225 z m 74 225 b 113 261 97 225 113 239 b 76 299 113 283 99 299 l 74 299 b 38 263 51 299 38 285 b 74 225 38 240 51 225 z m 300 150 b 336 186 322 150 336 164 b 300 225 336 210 322 225 b 263 189 278 225 263 211 b 299 150 263 165 276 150 z m 225 150 b 263 188 247 150 263 165 b 225 225 263 211 247 225 b 188 188 201 225 188 210 b 225 150 188 164 203 150 z m 150 150 b 188 188 172 150 188 165 b 150 225 188 211 172 225 b 113 188 126 225 113 210 b 150 150 113 164 128 150 z m 300 75 b 336 111 322 75 336 89 b 300 150 336 135 322 150 b 263 114 278 150 263 136 b 299 75 263 90 276 75 b 263 39 276 75 263 61 b 299 0 263 15 276 0 b 336 36 321 0 336 14 b 300 75 336 60 322 75 z m 225 75 b 263 113 247 75 263 90 b 225 150 263 136 247 150 b 188 113 201 150 188 135 b 225 75 188 89 203 75 z "}," ":{"ha":417,"x_min":0,"x_max":0,"o":""},"A":{"ha":974,"x_min":0,"x_max":0,"o":"m 488 935 b 525 897 488 913 501 897 b 563 935 547 897 563 911 b 525 972 563 957 549 972 b 488 935 503 972 488 957 z m 413 935 b 450 897 413 913 426 897 b 488 935 472 897 488 911 b 450 972 488 957 474 972 b 413 935 428 972 413 957 z m 413 860 b 450 822 413 838 426 822 b 488 860 472 822 488 838 b 450 897 488 882 474 897 b 413 860 428 897 413 883 z m 338 860 b 375 822 338 838 351 822 b 413 860 397 822 413 838 b 375 897 413 882 399 897 b 338 860 353 897 338 883 z m 563 860 b 525 897 563 882 549 897 b 488 860 503 897 488 883 b 525 822 488 838 501 822 b 563 860 547 822 563 838 z m 636 861 b 599 897 636 883 621 897 b 563 858 576 897 563 882 b 600 822 563 836 578 822 b 636 858 622 822 636 836 z m 413 785 b 450 747 413 763 426 747 b 488 785 472 747 488 763 b 450 822 488 807 474 822 b 413 785 428 822 413 808 z m 338 785 b 375 747 338 763 351 747 b 413 785 397 747 413 763 b 375 822 413 807 399 822 b 338 785 353 822 338 808 z m 636 786 b 599 822 636 808 621 822 b 563 783 576 822 563 807 b 600 747 563 761 578 747 b 636 783 622 747 636 761 z m 563 785 b 525 822 563 807 549 822 b 488 785 503 822 488 808 b 525 747 488 763 501 747 b 563 785 547 747 563 763 z m 413 711 b 374 747 413 733 397 747 b 338 710 351 747 338 732 b 376 674 338 688 353 674 b 413 710 399 674 413 688 z m 338 711 b 299 747 338 733 322 747 b 263 710 276 747 263 732 b 301 674 263 688 278 674 b 338 710 324 674 338 688 z m 711 711 b 672 747 711 733 696 747 b 636 710 650 747 636 732 b 675 674 636 688 651 674 b 711 710 697 674 711 688 z m 636 711 b 597 747 636 733 621 747 b 561 710 575 747 561 732 b 600 674 561 688 576 674 b 636 710 622 674 636 688 z m 338 636 b 375 599 338 614 351 599 b 413 636 397 599 413 614 b 375 674 413 658 399 674 b 338 636 353 674 338 660 z m 636 636 b 674 599 636 614 650 599 b 711 636 696 599 711 614 b 674 674 711 658 697 674 b 636 636 651 674 636 660 z m 263 636 b 300 599 263 614 276 599 b 338 636 322 599 338 614 b 300 674 338 658 324 674 b 263 636 278 674 263 660 z m 561 636 b 599 599 561 614 575 599 b 636 636 621 599 636 614 b 599 674 636 658 622 674 b 561 636 576 674 561 660 z m 338 561 b 375 524 338 539 351 524 b 413 561 397 524 413 539 b 375 599 413 583 399 599 b 338 561 353 599 338 585 z m 636 561 b 674 524 636 539 650 524 b 711 561 696 524 711 539 b 674 599 711 583 697 599 b 636 561 651 599 636 585 z m 263 561 b 300 524 263 539 276 524 b 338 561 322 524 338 539 b 300 599 338 583 324 599 b 263 561 278 599 263 585 z m 561 561 b 599 524 561 539 575 524 b 636 561 621 524 636 539 b 599 599 636 583 622 599 b 561 561 576 599 561 585 z m 263 486 b 300 449 263 464 276 449 b 338 486 322 449 338 464 b 300 524 338 508 324 524 b 263 486 278 524 263 510 z m 711 486 b 674 524 711 508 697 524 b 636 486 651 524 636 510 b 674 449 636 464 650 449 b 711 486 696 449 711 464 z m 786 486 b 749 524 786 508 772 524 b 711 486 726 524 711 510 b 749 449 711 464 725 449 b 786 486 771 449 786 464 z m 188 486 b 225 449 188 464 201 449 b 263 486 247 449 263 464 b 225 524 263 508 249 524 b 188 486 203 524 188 510 z m 263 411 b 225 449 263 433 249 449 b 188 411 203 449 188 435 b 225 374 188 389 201 374 b 263 411 247 374 263 389 z m 711 411 b 749 374 711 389 725 374 b 786 411 771 374 786 389 b 749 449 786 433 772 449 b 711 411 726 449 711 435 z m 338 411 b 300 449 338 433 324 449 b 263 411 278 449 263 435 b 300 374 263 389 276 374 b 338 411 322 374 338 389 z m 636 411 b 674 374 636 389 650 374 b 711 411 696 374 711 389 b 674 449 711 433 697 449 b 636 411 651 449 636 435 z m 636 336 b 599 374 636 358 622 374 b 561 336 576 374 561 360 b 599 299 561 314 575 299 b 636 336 621 299 636 314 z m 561 338 b 524 374 561 360 546 374 b 488 335 501 374 488 358 b 525 299 488 313 503 299 b 561 335 547 299 561 313 z m 711 336 b 674 374 711 358 697 374 b 636 336 651 374 636 360 b 674 299 636 314 650 299 b 711 336 696 299 711 314 z m 786 336 b 749 374 786 358 772 374 b 711 336 726 374 711 360 b 749 299 711 314 725 299 b 786 336 771 299 786 314 z m 413 336 b 450 299 413 314 426 299 b 488 336 472 299 488 314 b 450 374 488 358 474 374 b 413 336 428 374 413 360 z m 338 336 b 375 299 338 314 351 299 b 413 336 397 299 413 314 b 375 374 413 358 399 374 b 338 336 353 374 338 360 z m 263 336 b 300 299 263 314 276 299 b 338 336 322 299 338 314 b 300 374 338 358 324 374 b 263 336 278 374 263 360 z m 188 336 b 225 299 188 314 201 299 b 263 336 247 299 263 314 b 225 374 263 358 249 374 b 188 336 203 374 188 360 z m 861 336 b 824 374 861 358 847 374 b 786 336 801 374 786 360 b 824 299 786 314 800 299 b 861 336 846 299 861 314 z m 113 336 b 150 299 113 314 126 299 b 188 336 172 299 188 314 b 150 374 188 358 174 374 b 113 336 128 374 113 360 z m 786 263 b 747 299 786 285 771 299 b 711 261 725 299 711 283 b 750 225 711 239 726 225 b 786 261 772 225 786 239 z m 561 263 b 524 299 561 285 546 299 b 488 260 501 299 488 283 b 525 224 488 238 503 224 b 561 260 547 224 561 238 z m 413 261 b 450 224 413 239 426 224 b 488 261 472 224 488 239 b 450 299 488 283 474 299 b 413 261 428 299 413 285 z m 338 261 b 375 224 338 239 351 224 b 413 261 397 224 413 239 b 375 299 413 283 399 299 b 338 261 353 299 338 285 z m 263 261 b 300 224 263 239 276 224 b 338 261 322 224 338 239 b 300 299 338 283 324 299 b 263 261 278 299 263 285 z m 861 263 b 822 299 861 285 846 299 b 786 261 800 299 786 283 b 825 225 786 239 801 225 b 861 261 847 225 861 239 z m 636 261 b 599 299 636 283 622 299 b 561 261 576 299 561 285 b 599 224 561 239 575 224 b 636 261 621 224 636 239 z m 188 263 b 149 299 188 285 172 299 b 113 261 126 299 113 283 b 151 225 113 239 128 225 b 188 261 174 225 188 239 z m 711 261 b 674 299 711 283 697 299 b 636 261 651 299 636 285 b 674 224 636 239 650 224 b 711 261 696 224 711 239 z m 263 263 b 224 299 263 285 247 299 b 188 261 201 299 188 283 b 226 225 188 239 203 225 b 263 261 249 225 263 239 z m 188 188 b 225 150 188 165 201 150 b 263 188 247 150 263 165 b 225 225 263 210 249 225 b 188 188 203 225 188 211 z m 786 188 b 824 150 786 165 800 150 b 861 188 846 150 861 165 b 824 225 861 210 847 225 b 786 188 801 225 786 211 z m 861 188 b 899 150 861 165 875 150 b 936 188 921 150 936 165 b 899 225 936 210 922 225 b 861 188 876 225 861 211 z m 711 188 b 749 150 711 165 725 150 b 786 188 771 150 786 165 b 749 225 786 210 772 225 b 711 188 726 225 711 211 z m 113 188 b 150 150 113 165 126 150 b 188 188 172 150 188 165 b 150 225 188 210 174 225 b 113 188 128 225 113 211 z m 38 188 b 75 150 38 165 51 150 b 113 188 97 150 113 165 b 75 225 113 210 99 225 b 38 188 53 225 38 211 z m 113 113 b 150 75 113 90 126 75 b 188 113 172 75 188 90 b 150 150 188 135 174 150 b 113 113 128 150 113 136 z m 861 113 b 899 75 861 90 875 75 b 936 113 921 75 936 89 b 899 150 936 135 922 150 b 861 113 876 150 861 135 z m 786 113 b 824 75 786 90 800 75 b 861 113 846 75 861 89 b 824 150 861 135 847 150 b 786 113 801 150 786 135 z m 38 113 b 75 75 38 90 51 75 b 113 113 97 75 113 90 b 75 150 113 135 99 150 b 38 113 53 150 38 136 z m 113 38 b 150 0 113 15 126 0 b 188 38 172 0 188 14 b 150 75 188 60 174 75 b 113 38 128 75 113 60 z m 861 38 b 899 0 861 15 875 0 b 936 38 921 0 936 14 b 899 75 936 60 922 75 b 861 38 876 75 861 60 z m 786 38 b 824 0 786 15 800 0 b 861 38 846 0 861 14 b 824 75 861 60 847 75 b 786 38 801 75 786 60 z m 38 38 b 75 0 38 15 51 0 b 113 38 97 0 113 14 b 75 75 113 60 99 75 b 38 38 53 75 38 60 z "},"B":{"ha":824,"x_min":0,"x_max":0,"o":"m 38 935 b 75 897 38 913 53 897 b 113 935 99 897 113 913 b 75 972 113 958 97 972 b 38 935 51 972 38 957 z m 486 935 b 524 897 486 913 501 897 b 561 935 547 897 561 913 b 524 972 561 958 546 972 b 486 935 500 972 486 957 z m 413 933 b 449 897 413 911 426 897 b 486 933 471 897 486 911 b 450 972 486 957 472 972 b 413 936 428 972 413 958 z m 338 935 b 375 897 338 913 353 897 b 413 935 399 897 413 913 b 375 972 413 958 397 972 b 338 935 351 972 338 957 z m 263 935 b 300 897 263 913 278 897 b 338 935 324 897 338 913 b 300 972 338 958 322 972 b 263 935 276 972 263 957 z m 113 935 b 150 897 113 913 128 897 b 188 935 174 897 188 913 b 150 972 188 958 172 972 b 113 935 126 972 113 957 z m 188 935 b 225 897 188 913 203 897 b 263 935 249 897 263 913 b 225 972 263 958 247 972 b 188 935 201 972 188 957 z m 113 860 b 75 897 113 882 97 897 b 38 860 51 897 38 882 b 75 822 38 836 53 822 b 113 860 99 822 113 838 z m 486 860 b 524 822 486 838 501 822 b 561 860 547 822 561 838 b 524 897 561 883 546 897 b 486 860 500 897 486 882 z m 188 860 b 225 822 188 838 203 822 b 263 860 249 822 263 838 b 225 897 263 883 247 897 b 188 860 201 897 188 882 z m 263 860 b 300 822 263 838 278 822 b 338 860 324 822 338 838 b 300 897 338 883 322 897 b 263 860 276 897 263 882 z m 338 860 b 375 822 338 838 353 822 b 413 860 399 822 413 838 b 375 897 413 883 397 897 b 338 860 351 897 338 882 z m 188 860 b 150 897 188 882 172 897 b 113 860 126 897 113 882 b 150 822 113 836 128 822 b 188 860 174 822 188 838 z m 413 858 b 449 822 413 836 426 822 b 486 858 471 822 486 836 b 450 897 486 882 472 897 b 413 861 428 897 413 883 z m 636 860 b 599 897 636 882 621 897 b 561 860 575 897 561 882 b 599 822 561 836 576 822 b 636 860 622 822 636 838 z m 636 785 b 599 822 636 807 621 822 b 561 785 575 822 561 807 b 599 747 561 761 576 747 b 636 785 622 747 636 763 z m 113 785 b 75 822 113 807 97 822 b 38 785 51 822 38 807 b 75 747 38 761 53 747 b 113 785 99 747 113 763 z m 486 785 b 524 747 486 763 501 747 b 561 785 547 747 561 763 b 524 822 561 808 546 822 b 486 785 500 822 486 807 z m 188 785 b 150 822 188 807 172 822 b 113 785 126 822 113 807 b 150 747 113 761 128 747 b 188 785 174 747 188 763 z m 711 785 b 674 822 711 807 696 822 b 636 785 650 822 636 807 b 674 747 636 761 651 747 b 711 785 697 747 711 763 z m 636 711 b 600 747 636 733 622 747 b 561 711 576 747 561 733 b 597 674 561 689 575 674 b 636 710 621 674 636 688 z m 113 711 b 76 747 113 733 99 747 b 38 711 53 747 38 733 b 74 674 38 689 51 674 b 113 710 97 674 113 688 z m 188 711 b 151 747 188 733 174 747 b 113 711 128 747 113 733 b 149 674 113 689 126 674 b 188 710 172 674 188 688 z m 711 711 b 675 747 711 733 697 747 b 636 711 651 747 636 733 b 672 674 636 689 650 674 b 711 710 696 674 711 688 z m 636 636 b 599 674 636 658 621 674 b 561 636 575 674 561 658 b 599 599 561 613 576 599 b 636 636 622 599 636 614 z m 113 636 b 75 674 113 658 97 674 b 38 636 51 674 38 658 b 75 599 38 613 53 599 b 113 636 99 599 113 614 z m 188 636 b 150 674 188 658 172 674 b 113 636 126 674 113 658 b 150 599 113 613 128 599 b 188 636 174 599 188 614 z m 711 636 b 674 674 711 658 696 674 b 636 636 650 674 636 658 b 674 599 636 613 651 599 b 711 636 697 599 711 614 z m 561 561 b 524 599 561 583 546 599 b 486 561 500 599 486 583 b 524 524 486 538 501 524 b 561 561 547 524 561 539 z m 113 561 b 75 599 113 583 97 599 b 38 561 51 599 38 583 b 75 524 38 538 53 524 b 113 561 99 524 113 539 z m 636 561 b 599 599 636 583 621 599 b 561 561 575 599 561 583 b 599 524 561 538 576 524 b 636 561 622 524 636 539 z m 188 561 b 150 599 188 583 172 599 b 113 561 126 599 113 583 b 150 524 113 538 128 524 b 188 561 174 524 188 539 z m 486 488 b 450 524 486 510 472 524 b 413 488 428 524 413 510 b 449 449 413 464 426 449 b 486 485 471 449 486 463 z m 113 486 b 75 524 113 508 97 524 b 38 486 51 524 38 508 b 75 449 38 463 53 449 b 113 486 99 449 113 464 z m 561 486 b 524 524 561 508 546 524 b 486 486 500 524 486 508 b 524 449 486 463 501 449 b 561 486 547 449 561 464 z m 188 486 b 150 524 188 508 172 524 b 113 486 126 524 113 508 b 150 449 113 463 128 449 b 188 486 174 449 188 464 z m 636 486 b 599 524 636 508 621 524 b 561 486 575 524 561 508 b 599 449 561 463 576 449 b 636 486 622 449 636 464 z m 338 486 b 375 449 338 463 353 449 b 413 486 399 449 413 464 b 375 524 413 508 397 524 b 338 486 351 524 338 508 z m 263 486 b 300 449 263 463 278 449 b 338 486 324 449 338 464 b 300 524 338 508 322 524 b 263 486 276 524 263 508 z m 188 486 b 225 449 188 463 203 449 b 263 486 249 449 263 464 b 225 524 263 508 247 524 b 188 486 201 524 188 508 z m 486 413 b 450 449 486 435 472 449 b 413 413 428 449 413 435 b 449 374 413 389 426 374 b 486 410 471 374 486 388 z m 561 411 b 524 449 561 433 546 449 b 486 411 500 449 486 433 b 524 374 486 388 501 374 b 561 411 547 374 561 389 z m 636 411 b 674 374 636 388 651 374 b 711 411 697 374 711 389 b 674 449 711 433 696 449 b 636 411 650 449 636 433 z m 338 411 b 375 374 338 388 353 374 b 413 411 399 374 413 389 b 375 449 413 433 397 449 b 338 411 351 449 338 433 z m 263 411 b 300 374 263 388 278 374 b 338 411 324 374 338 389 b 300 449 338 433 322 449 b 263 411 276 449 263 433 z m 188 411 b 225 374 188 388 203 374 b 263 411 249 374 263 389 b 225 449 263 433 247 449 b 188 411 201 449 188 433 z m 113 411 b 75 449 113 433 97 449 b 38 411 51 449 38 433 b 75 374 38 388 53 374 b 113 411 99 374 113 389 z m 113 411 b 150 374 113 388 128 374 b 188 411 174 374 188 389 b 150 449 188 433 172 449 b 113 411 126 449 113 433 z m 561 411 b 599 374 561 388 576 374 b 636 411 622 374 636 389 b 599 449 636 433 621 449 b 561 411 575 449 561 433 z m 113 336 b 75 374 113 358 97 374 b 38 336 51 374 38 358 b 75 299 38 313 53 299 b 113 336 99 299 113 314 z m 711 336 b 749 299 711 314 726 299 b 786 336 772 299 786 314 b 749 374 786 360 771 374 b 711 336 725 374 711 358 z m 636 336 b 599 374 636 358 621 374 b 561 336 575 374 561 358 b 599 299 561 313 576 299 b 636 336 622 299 636 314 z m 636 336 b 674 299 636 314 651 299 b 711 336 697 299 711 314 b 674 374 711 360 696 374 b 636 336 650 374 636 358 z m 188 336 b 150 374 188 358 172 374 b 113 336 126 374 113 358 b 150 299 113 313 128 299 b 188 336 174 299 188 314 z m 711 261 b 747 225 711 239 725 225 b 786 261 771 225 786 239 b 750 299 786 283 772 299 b 711 263 726 299 711 285 z m 113 263 b 149 225 113 240 126 225 b 188 261 172 225 188 239 l 188 263 b 151 299 188 285 174 299 b 113 263 128 299 113 285 z m 636 261 b 672 225 636 239 650 225 b 711 261 696 225 711 239 b 675 299 711 283 697 299 b 636 263 651 299 636 285 z m 74 225 b 113 261 97 225 113 239 l 113 263 b 76 299 113 285 99 299 b 38 263 53 299 38 285 b 74 225 38 240 51 225 z m 113 188 b 150 150 113 164 128 150 b 188 188 174 150 188 165 b 150 225 188 210 172 225 b 113 188 126 225 113 210 z m 711 188 b 749 150 711 165 726 150 b 786 188 772 150 786 165 b 749 225 786 211 771 225 b 711 188 725 225 711 210 z m 636 188 b 674 150 636 165 651 150 b 711 188 697 150 711 165 b 674 225 711 211 696 225 b 636 188 650 225 636 210 z m 38 188 b 75 150 38 164 53 150 b 113 188 99 150 113 165 b 75 225 113 210 97 225 b 38 188 51 225 38 210 z m 561 188 b 599 150 561 165 576 150 b 636 188 622 150 636 165 b 599 225 636 211 621 225 b 561 188 575 225 561 210 z m 113 113 b 150 75 113 89 128 75 b 188 113 174 75 188 90 b 150 150 188 135 172 150 b 113 113 126 150 113 135 z m 711 113 b 674 150 711 135 696 150 b 636 113 650 150 636 135 b 674 75 636 89 651 75 b 711 113 697 75 711 90 z m 636 113 b 599 150 636 135 621 150 b 561 113 575 150 561 135 b 599 75 561 89 576 75 b 636 113 622 75 636 90 z m 38 113 b 75 75 38 89 53 75 b 113 113 99 75 113 90 b 75 150 113 135 97 150 b 38 113 51 150 38 135 z m 188 113 b 225 75 188 90 203 75 b 263 113 249 75 263 90 b 225 150 263 136 247 150 b 188 113 201 150 188 135 z m 263 113 b 300 75 263 90 278 75 b 338 113 324 75 338 90 b 300 150 338 136 322 150 b 263 113 276 150 263 135 z m 338 113 b 375 75 338 90 353 75 b 413 113 399 75 413 90 b 375 150 413 136 397 150 b 338 113 351 150 338 135 z m 413 111 b 449 75 413 89 426 75 b 486 111 471 75 486 89 b 450 150 486 135 472 150 b 413 114 428 150 413 136 z m 486 113 b 524 75 486 90 501 75 b 561 113 547 75 561 90 b 524 150 561 136 546 150 b 486 113 500 150 486 135 z m 561 38 b 599 0 561 15 576 0 b 636 38 622 0 636 15 b 599 75 636 61 621 75 b 561 38 575 75 561 60 z m 486 38 b 524 0 486 15 501 0 b 561 38 547 0 561 15 b 524 75 561 61 546 75 b 486 38 500 75 486 60 z m 413 36 b 449 0 413 14 426 0 b 486 36 471 0 486 14 b 450 75 486 60 472 75 b 413 39 428 75 413 61 z m 338 38 b 375 0 338 15 353 0 b 413 38 399 0 413 15 b 375 75 413 61 397 75 b 338 38 351 75 338 60 z m 263 38 b 300 0 263 15 278 0 b 338 38 324 0 338 15 b 300 75 338 61 322 75 b 263 38 276 75 263 60 z m 188 38 b 225 0 188 15 203 0 b 263 38 249 0 263 15 b 225 75 263 61 247 75 b 188 38 201 75 188 60 z m 113 38 b 150 0 113 15 128 0 b 188 38 174 0 188 15 b 150 75 188 61 172 75 b 113 38 126 75 113 60 z m 38 38 b 75 0 38 15 53 0 b 113 38 99 0 113 15 b 75 75 113 61 97 75 b 38 38 51 75 38 60 z "},"a":{"ha":674,"x_min":0,"x_max":0,"o":"m 186 711 b 149 747 186 733 171 747 b 113 710 126 747 113 732 b 150 674 113 688 126 674 b 186 710 172 674 186 688 z m 261 711 b 222 747 261 733 246 747 b 186 710 200 747 186 732 b 225 674 186 688 201 674 b 261 710 247 674 261 688 z m 336 711 b 297 747 336 733 321 747 b 261 710 275 747 261 732 b 300 674 261 688 276 674 b 336 710 322 674 336 688 z m 411 711 b 372 747 411 733 396 747 b 336 710 350 747 336 732 b 375 674 336 688 351 674 b 411 710 397 674 411 688 z m 486 711 b 447 747 486 733 471 747 b 411 710 425 747 411 732 b 450 674 411 688 426 674 b 486 710 472 674 486 688 z m 113 636 b 75 674 113 658 99 674 b 38 636 53 674 38 660 b 75 599 38 614 51 599 b 113 636 97 599 113 614 z m 411 636 b 449 599 411 614 425 599 b 486 636 471 599 486 614 b 449 674 486 658 472 674 b 411 636 426 674 411 660 z m 561 636 b 524 674 561 658 547 674 b 486 636 501 674 486 660 b 524 599 486 614 500 599 b 561 636 546 599 561 614 z m 336 636 b 374 599 336 614 350 599 b 411 636 396 599 411 614 b 374 674 411 658 397 674 b 336 636 351 674 336 660 z m 261 636 b 299 599 261 614 275 599 b 336 636 321 599 336 614 b 299 674 336 658 322 674 b 261 636 276 674 261 660 z m 186 636 b 224 599 186 614 200 599 b 261 636 246 599 261 614 b 224 674 261 658 247 674 b 186 636 201 674 186 660 z m 186 638 b 149 674 186 660 171 674 b 113 635 126 674 113 658 b 150 599 113 613 128 599 b 186 635 172 599 186 613 z m 113 561 b 150 524 113 539 126 524 b 188 561 172 524 188 539 b 150 599 188 583 174 599 b 113 561 128 599 113 585 z m 486 561 b 449 599 486 583 472 599 b 411 561 426 599 411 585 b 449 524 411 539 425 524 b 486 561 471 524 486 539 z m 561 561 b 524 599 561 583 547 599 b 486 561 501 599 486 585 b 524 524 486 539 500 524 b 561 561 546 524 561 539 z m 38 561 b 75 524 38 539 51 524 b 113 561 97 524 113 539 b 75 599 113 583 99 599 b 38 561 53 599 38 585 z m 411 486 b 374 524 411 508 397 524 b 336 486 351 524 336 510 b 374 449 336 464 350 449 b 411 486 396 449 411 464 z m 486 486 b 449 524 486 508 472 524 b 411 486 426 524 411 510 b 449 449 411 464 425 449 b 486 486 471 449 486 464 z m 561 486 b 524 524 561 508 547 524 b 486 486 501 524 486 510 b 524 449 486 464 500 449 b 561 486 546 449 561 464 z m 336 411 b 374 374 336 389 350 374 b 411 411 396 374 411 389 b 374 449 411 433 397 449 b 336 411 351 449 336 435 z m 261 411 b 224 449 261 433 247 449 b 186 411 201 449 186 435 b 224 374 186 389 200 374 b 261 411 246 374 261 389 z m 261 411 b 299 374 261 389 275 374 b 336 411 321 374 336 389 b 299 449 336 433 322 449 b 261 411 276 449 261 435 z m 486 411 b 449 449 486 433 472 449 b 411 411 426 449 411 435 b 449 374 411 389 425 374 b 486 411 471 374 486 389 z m 561 411 b 524 449 561 433 547 449 b 486 411 501 449 486 435 b 524 374 486 389 500 374 b 561 411 546 374 561 389 z m 261 336 b 299 299 261 314 275 299 b 336 336 321 299 336 314 b 299 374 336 358 322 374 b 261 336 276 374 261 360 z m 186 336 b 224 299 186 314 200 299 b 261 336 246 299 261 314 b 224 374 261 358 247 374 b 186 336 201 374 186 360 z m 186 338 b 149 374 186 360 171 374 b 113 335 126 374 113 358 b 150 299 113 313 128 299 b 186 335 172 299 186 313 z m 486 336 b 449 374 486 358 472 374 b 411 336 426 374 411 360 b 449 299 411 314 425 299 b 486 336 471 299 486 314 z m 561 336 b 524 374 561 358 547 374 b 486 336 501 374 486 360 b 524 299 486 314 500 299 b 561 336 546 299 561 314 z m 261 261 b 224 299 261 283 247 299 b 186 261 201 299 186 285 b 224 224 186 239 200 224 b 261 261 246 224 261 239 z m 561 263 b 522 299 561 285 546 299 b 486 261 500 299 486 283 b 525 225 486 239 501 225 b 561 261 547 225 561 239 z m 486 263 b 447 299 486 285 471 299 b 411 261 425 299 411 283 b 450 225 411 239 426 225 b 486 261 472 225 486 239 z m 186 263 b 149 299 186 285 171 299 b 113 260 126 299 113 283 b 142 225 113 240 124 228 b 113 196 125 222 114 213 b 75 225 108 214 96 225 b 38 188 53 225 38 211 b 75 150 38 165 51 150 b 111 179 94 150 108 161 b 149 150 115 161 128 150 b 186 188 171 150 186 165 b 157 224 186 207 175 221 b 186 260 175 226 186 240 z m 113 263 b 74 299 113 285 97 299 b 38 261 51 299 38 283 b 76 225 38 239 53 225 b 113 261 99 225 113 239 z m 486 188 b 524 150 486 165 500 150 b 561 188 546 150 561 165 b 524 225 561 210 547 225 b 486 188 501 225 486 211 z m 411 188 b 449 150 411 165 425 150 b 486 188 471 150 486 165 b 449 225 486 210 472 225 b 411 188 426 225 411 211 z m 336 188 b 374 150 336 165 350 150 b 411 188 396 150 411 165 b 374 225 411 210 397 225 b 336 188 351 225 336 211 z m 411 113 b 374 150 411 135 397 150 b 336 113 351 150 336 136 b 374 75 336 90 350 75 b 411 113 396 75 411 90 z m 486 113 b 449 150 486 135 472 150 b 411 113 426 150 411 136 b 449 75 411 90 425 75 b 486 113 471 75 486 90 z m 186 113 b 149 150 186 135 172 150 b 113 121 129 150 115 139 b 75 150 108 139 96 150 b 38 113 53 150 38 136 b 75 75 38 90 51 75 b 111 104 94 75 108 86 b 149 75 115 86 128 75 b 186 113 171 75 186 90 z m 186 113 b 224 75 186 90 200 75 b 261 113 246 75 261 89 b 224 150 261 135 247 150 b 186 113 201 150 186 135 z m 261 113 b 299 75 261 90 275 75 b 336 113 321 75 336 89 b 299 150 336 135 322 150 b 261 113 276 150 261 135 z m 561 113 b 599 75 561 90 575 75 b 636 113 621 75 636 89 b 599 150 636 135 622 150 b 561 113 576 150 561 135 z m 561 113 b 524 150 561 135 547 150 b 486 113 501 150 486 136 b 524 75 486 90 500 75 b 561 113 546 75 561 90 z m 561 38 b 599 0 561 15 575 0 b 636 38 621 0 636 14 b 599 75 636 60 622 75 b 561 38 576 75 561 60 z m 261 38 b 299 0 261 15 275 0 b 336 38 321 0 336 14 b 299 75 336 60 322 75 b 261 38 276 75 261 60 z m 186 38 b 224 0 186 15 200 0 b 261 38 246 0 261 14 b 224 75 261 60 247 75 b 186 38 201 75 186 60 z m 486 38 b 524 0 486 15 500 0 b 561 38 546 0 561 14 b 524 75 561 60 547 75 b 486 38 501 75 486 60 z m 113 36 b 150 0 113 14 128 0 b 186 39 172 0 186 15 b 149 75 186 61 171 75 b 113 39 126 75 113 61 z "},"b":{"ha":746,"x_min":0,"x_max":0,"o":"m 111 933 b 147 897 111 911 125 897 b 185 933 169 897 185 911 b 149 972 185 957 171 972 b 111 936 126 972 111 958 z m 38 933 b 74 897 38 911 51 897 b 111 933 96 897 111 911 b 75 972 111 957 97 972 b 38 936 53 972 38 958 z m 111 861 b 75 897 111 883 97 897 b 38 861 53 897 38 883 b 74 822 38 838 51 822 b 111 858 96 822 111 836 z m 185 861 b 149 897 185 883 171 897 b 111 861 126 897 111 883 b 147 822 111 838 125 822 b 185 858 169 822 185 836 z m 185 786 b 149 822 185 808 171 822 b 111 786 126 822 111 808 b 147 747 111 763 125 747 b 185 783 169 747 185 761 z m 111 786 b 75 822 111 808 97 822 b 38 786 53 822 38 808 b 74 747 38 763 51 747 b 111 783 96 747 111 761 z m 111 711 b 75 747 111 733 97 747 b 38 711 51 747 38 733 b 74 674 38 689 51 674 b 111 710 96 674 111 688 z m 185 711 b 149 747 185 733 171 747 b 111 711 125 747 111 733 b 147 674 111 689 125 674 b 185 710 169 674 185 688 z m 410 711 b 374 747 410 733 396 747 b 335 711 350 747 335 733 b 371 674 335 689 349 674 b 410 710 394 674 410 688 z m 485 711 b 521 674 485 689 499 674 b 560 710 544 674 560 688 l 560 711 b 524 747 560 733 546 747 b 485 711 500 747 485 733 z m 446 674 b 485 710 469 674 485 688 l 485 711 b 449 747 485 733 471 747 b 410 711 425 747 410 733 b 446 674 410 689 424 674 z m 410 636 b 447 599 410 613 425 599 b 485 636 471 599 485 614 b 447 674 485 658 469 674 b 410 636 424 674 410 658 z m 335 636 b 372 599 335 613 350 599 b 410 636 396 599 410 614 b 372 674 410 658 394 674 b 335 636 349 674 335 658 z m 560 636 b 522 674 560 658 544 674 b 485 636 499 674 485 658 b 522 599 485 613 500 599 b 560 636 546 599 560 614 z m 111 638 b 75 674 111 660 97 674 b 38 638 53 674 38 660 b 74 599 38 614 51 599 b 111 635 96 599 111 613 z m 185 638 b 149 674 185 660 171 674 b 111 638 126 674 111 660 b 147 599 111 614 125 599 b 185 635 169 599 185 613 z m 635 636 b 597 674 635 658 619 674 b 560 636 574 674 560 658 b 597 599 560 613 575 599 b 635 636 621 599 635 614 z m 335 563 b 306 599 335 582 324 596 b 335 636 324 603 335 617 b 297 674 335 658 319 674 b 260 636 274 674 260 658 b 289 600 260 615 271 603 b 260 563 271 596 260 582 b 297 525 260 539 275 525 b 335 563 321 525 335 540 z m 185 563 b 149 599 185 585 171 599 b 111 563 126 599 111 585 b 147 524 111 539 125 524 b 185 560 169 524 185 538 z m 560 561 b 522 599 560 583 544 599 b 485 561 499 599 485 583 b 522 524 485 538 500 524 b 560 561 546 524 560 539 z m 260 561 b 222 599 260 583 244 599 b 185 561 199 599 185 583 b 214 525 185 540 196 528 b 185 488 196 521 185 507 b 222 450 185 464 200 450 b 260 488 246 450 260 465 b 231 524 260 507 249 521 b 260 561 249 528 260 542 z m 635 560 b 671 524 635 538 649 524 b 708 560 693 524 708 538 b 672 599 708 583 694 599 b 635 563 650 599 635 585 z m 560 561 b 597 524 560 539 575 524 b 635 561 621 524 635 539 b 597 599 635 585 619 599 b 560 561 574 599 560 583 z m 111 563 b 75 599 111 585 97 599 b 38 563 53 599 38 585 b 74 524 38 539 51 524 b 111 560 96 524 111 538 z m 185 488 b 149 524 185 510 171 524 b 111 488 126 524 111 510 b 147 449 111 464 125 449 b 185 485 169 449 185 463 z m 635 485 b 671 449 635 463 649 449 b 708 485 693 449 708 463 b 672 524 708 508 694 524 b 635 488 650 524 635 510 z m 560 486 b 597 449 560 464 575 449 b 635 486 621 449 635 464 b 597 524 635 510 619 524 b 560 486 574 524 560 508 z m 111 488 b 75 524 111 510 97 524 b 38 488 53 524 38 510 b 74 449 38 464 51 449 b 111 485 96 449 111 463 z m 185 413 b 149 449 185 435 171 449 b 111 413 126 449 111 435 b 147 374 111 389 125 374 b 185 410 169 374 185 388 z m 635 410 b 671 374 635 388 649 374 b 708 410 693 374 708 388 b 672 449 708 433 694 449 b 635 413 650 449 635 435 z m 560 411 b 597 374 560 389 575 374 b 635 411 621 374 635 389 b 597 449 635 435 619 449 b 560 411 574 449 560 433 z m 111 413 b 75 449 111 435 97 449 b 38 413 53 449 38 435 b 74 374 38 389 51 374 b 111 410 96 374 111 388 z m 635 335 b 671 299 635 313 649 299 b 708 335 693 299 708 313 b 672 374 708 358 694 374 b 635 338 650 374 635 360 z m 560 336 b 597 299 560 314 575 299 b 635 336 621 299 635 314 b 597 374 635 360 619 374 b 560 336 574 374 560 358 z m 111 338 b 75 374 111 360 97 374 b 38 338 53 374 38 360 b 74 299 38 314 51 299 b 111 335 96 299 111 313 z m 185 338 b 149 374 185 360 171 374 b 111 338 126 374 111 360 b 147 299 111 314 125 299 b 185 335 169 299 185 313 z m 635 261 b 599 299 635 283 621 299 b 560 263 575 299 560 285 l 560 261 b 596 225 560 239 574 225 b 635 261 619 225 635 239 z m 635 261 b 671 225 635 239 649 225 b 708 261 694 225 708 239 b 672 299 708 283 694 299 b 635 263 650 299 635 285 z m 185 263 b 149 299 185 285 171 299 b 111 263 125 299 111 285 b 147 225 111 240 125 225 b 185 261 169 225 185 239 z m 111 263 b 75 299 111 285 97 299 b 38 263 51 299 38 285 b 74 225 38 240 51 225 b 111 261 96 225 111 239 z m 111 189 b 75 225 111 211 97 225 b 38 189 53 225 38 211 b 74 150 38 165 51 150 b 111 186 96 150 111 164 z m 185 189 b 149 225 185 211 171 225 b 111 189 126 225 111 211 b 147 150 111 165 125 150 b 185 186 169 150 185 164 z m 560 188 b 597 150 560 165 575 150 b 635 188 621 150 635 165 b 597 225 635 211 619 225 b 560 188 574 225 560 210 z m 635 186 b 671 150 635 164 649 150 b 708 186 693 150 708 164 b 672 225 708 210 694 225 b 635 189 650 225 635 211 z m 260 188 b 222 225 260 210 244 225 b 185 188 199 225 185 210 b 222 150 185 164 200 150 b 260 188 246 150 260 165 z m 560 188 b 522 225 560 210 544 225 b 485 188 499 225 485 210 b 522 150 485 164 500 150 b 560 188 546 150 560 165 z m 111 114 b 75 150 111 136 97 150 b 38 114 53 150 38 136 b 74 75 38 90 51 75 b 111 111 96 75 111 89 z m 560 113 b 522 150 560 135 544 150 b 485 113 499 150 485 135 b 522 75 485 89 500 75 b 560 113 546 75 560 90 z m 185 114 b 149 150 185 136 171 150 b 111 114 126 150 111 136 b 147 75 111 90 125 75 b 185 111 169 75 185 89 z m 260 113 b 222 150 260 135 244 150 b 185 113 199 150 185 135 b 222 75 185 89 200 75 b 260 113 246 75 260 90 z m 635 113 b 597 150 635 135 619 150 b 560 113 574 150 560 135 b 597 75 560 89 575 75 b 635 113 621 75 635 90 z m 260 113 b 297 75 260 90 275 75 b 335 113 321 75 335 90 b 297 150 335 136 319 150 b 260 113 274 150 260 135 z m 335 113 b 372 75 335 90 350 75 b 410 113 396 75 410 90 b 372 150 410 136 394 150 b 335 113 349 150 335 135 z m 410 113 b 447 75 410 90 425 75 b 485 113 471 75 485 90 b 447 150 485 136 469 150 b 410 113 424 150 410 135 z m 111 36 b 75 75 111 60 97 75 b 38 39 53 75 38 61 l 38 36 b 74 0 38 14 51 0 b 111 36 96 0 111 14 z m 335 38 b 372 0 335 15 350 0 b 410 38 396 0 410 15 b 372 75 410 61 394 75 b 335 38 349 75 335 60 z m 111 36 b 147 0 111 14 125 0 b 185 36 169 0 185 14 b 149 75 185 60 171 75 b 111 39 126 75 111 61 z m 485 38 b 447 75 485 61 469 75 b 410 38 424 75 410 60 b 447 0 410 15 425 0 b 485 38 471 0 485 15 z m 485 38 b 522 0 485 15 500 0 b 560 38 546 0 560 15 b 522 75 560 61 544 75 b 485 38 499 75 485 60 z m 260 38 b 297 0 260 15 275 0 b 335 38 321 0 335 15 b 297 75 335 61 319 75 b 260 38 274 75 260 60 z "},"C":{"ha":824,"x_min":0,"x_max":0,"o":"m 186 935 b 224 897 186 913 200 897 b 261 935 246 897 261 911 b 224 972 261 957 247 972 b 186 935 201 972 186 957 z m 261 935 b 299 897 261 913 275 897 b 336 935 321 897 336 911 b 299 972 336 957 322 972 b 261 935 276 972 261 957 z m 336 935 b 374 897 336 913 350 897 b 411 935 396 897 411 911 b 374 972 411 957 397 972 b 336 935 351 972 336 957 z m 561 935 b 599 897 561 913 575 897 b 636 935 621 897 636 911 b 599 972 636 957 622 972 b 561 935 576 972 561 957 z m 486 935 b 524 897 486 913 500 897 b 561 935 546 897 561 911 b 524 972 561 957 547 972 b 486 935 501 972 486 957 z m 411 935 b 449 897 411 913 425 897 b 486 935 471 897 486 911 b 449 972 486 957 472 972 b 411 935 426 972 411 957 z m 486 860 b 524 822 486 838 500 822 b 561 860 546 822 561 836 b 524 897 561 882 547 897 b 486 860 501 897 486 882 z m 413 858 b 450 822 413 836 428 822 b 486 861 472 822 486 838 b 449 897 486 883 471 897 b 413 861 426 897 413 883 z m 338 860 b 375 822 338 838 351 822 b 413 860 397 822 413 836 b 375 897 413 882 399 897 b 338 860 353 897 338 882 z m 263 860 b 300 822 263 838 276 822 b 338 860 322 822 338 836 b 300 897 338 882 324 897 b 263 860 278 897 263 882 z m 636 860 b 599 897 636 882 622 897 b 561 860 576 897 561 883 b 599 822 561 838 575 822 b 636 860 621 822 636 838 z m 186 860 b 225 822 186 838 200 822 b 263 860 247 822 263 838 b 224 897 263 882 249 897 b 186 860 201 897 186 883 z m 111 860 b 149 822 111 838 125 822 b 186 860 171 822 186 838 b 149 897 186 882 172 897 b 111 860 126 897 111 883 z m 711 860 b 674 897 711 882 697 897 b 636 860 651 897 636 883 b 674 822 636 838 650 822 b 711 860 696 822 711 838 z m 261 785 b 224 822 261 807 247 822 b 188 793 204 822 190 811 b 149 822 183 811 171 822 b 111 785 126 822 111 808 b 150 747 111 763 125 747 b 186 776 169 747 183 758 b 224 747 190 758 203 747 b 261 785 246 747 261 763 z m 636 785 b 599 822 636 807 622 822 b 561 785 576 822 561 808 b 599 747 561 763 575 747 b 636 785 621 747 636 763 z m 711 785 b 674 822 711 807 697 822 b 636 785 651 822 636 808 b 674 747 636 763 650 747 b 711 785 696 747 711 763 z m 186 710 b 149 747 186 732 172 747 b 111 710 126 747 111 733 b 140 674 111 690 122 676 b 111 636 122 669 111 657 b 149 599 111 614 125 599 b 186 636 171 599 186 614 b 157 674 186 656 175 669 b 186 710 175 676 186 690 z m 561 710 b 600 674 561 688 576 674 b 636 711 622 674 636 689 b 597 747 636 733 621 747 b 561 711 575 747 561 733 z m 111 711 b 74 747 111 733 96 747 b 38 710 51 747 38 732 b 75 674 38 688 51 674 b 111 710 97 674 111 688 z m 711 710 b 750 674 711 688 726 674 b 786 711 772 674 786 689 b 747 747 786 733 771 747 b 711 711 725 747 711 733 z m 636 710 b 675 674 636 688 651 674 b 711 711 697 674 711 689 b 672 747 711 733 696 747 b 636 711 650 747 636 733 z m 261 711 b 222 747 261 733 246 747 b 186 710 200 747 186 732 b 225 674 186 688 201 674 b 261 710 247 674 261 688 z m 111 638 b 74 674 111 660 96 674 b 38 635 51 674 38 658 b 75 599 38 613 53 599 b 111 635 97 599 111 613 z m 711 636 b 749 599 711 614 725 599 b 786 636 771 599 786 613 b 749 674 786 658 772 674 b 711 636 726 674 711 658 z m 636 636 b 674 599 636 614 650 599 b 711 636 696 599 711 613 b 674 674 711 658 697 674 b 636 636 651 674 636 658 z m 111 563 b 74 599 111 585 96 599 b 38 560 51 599 38 583 b 75 524 38 538 53 524 b 111 560 97 524 111 538 z m 186 561 b 149 599 186 583 172 599 b 111 561 126 599 111 585 b 149 524 111 539 125 524 b 186 561 171 524 186 539 z m 111 488 b 74 524 111 510 96 524 b 38 485 51 524 38 508 b 75 449 38 463 53 449 b 111 485 97 449 111 463 z m 186 486 b 149 524 186 508 172 524 b 111 486 126 524 111 510 b 149 449 111 464 125 449 b 186 486 171 449 186 464 z m 111 413 b 74 449 111 435 96 449 b 38 410 51 449 38 433 b 75 374 38 388 53 374 b 111 410 97 374 111 388 z m 186 411 b 149 449 186 433 172 449 b 111 411 126 449 111 435 b 149 374 111 389 125 374 b 186 411 171 374 186 389 z m 711 336 b 674 374 711 358 697 374 b 636 336 651 374 636 358 b 674 299 636 314 650 299 b 711 336 696 299 711 313 z m 711 336 b 749 299 711 314 725 299 b 786 336 771 299 786 313 b 749 374 786 358 772 374 b 711 336 726 374 711 358 z m 186 336 b 149 374 186 358 172 374 b 111 336 126 374 111 360 b 149 299 111 314 125 299 b 186 336 171 299 186 314 z m 111 338 b 74 374 111 360 96 374 b 38 335 51 374 38 358 b 75 299 38 313 53 299 b 111 335 97 299 111 313 z m 261 263 b 224 300 261 285 247 300 b 186 263 201 300 186 286 b 224 225 186 240 200 225 b 261 263 246 225 261 240 z m 561 261 b 600 225 561 239 576 225 b 636 263 622 225 636 240 b 597 299 636 285 621 299 b 561 263 575 299 561 285 z m 111 263 b 74 299 111 285 96 299 b 38 261 51 299 38 283 b 75 225 38 239 51 225 b 111 261 97 225 111 239 z m 186 263 b 147 299 186 285 171 299 b 111 261 125 299 111 283 b 150 225 111 239 126 225 b 186 261 172 225 186 239 z m 711 261 b 750 225 711 239 726 225 b 786 263 772 225 786 240 b 747 299 786 285 771 299 b 711 263 725 299 711 285 z m 636 261 b 675 225 636 239 651 225 b 711 263 697 225 711 240 b 672 299 711 285 696 299 b 636 263 650 299 636 285 z m 186 188 b 149 225 186 210 172 225 b 111 188 126 225 111 211 b 149 150 111 165 125 150 b 186 188 171 150 186 165 z m 636 188 b 599 225 636 210 622 225 b 561 188 576 225 561 211 b 599 150 561 165 575 150 b 636 188 621 150 636 165 z m 711 188 b 674 225 711 210 697 225 b 636 188 651 225 636 211 b 674 150 636 165 650 150 b 711 188 696 150 711 165 z m 261 188 b 224 225 261 210 247 225 b 186 188 201 225 186 211 b 224 150 186 165 200 150 b 261 188 246 150 261 165 z m 263 113 b 224 150 263 135 249 150 b 188 121 204 150 190 139 b 149 150 183 139 171 150 b 111 113 126 150 111 136 b 150 75 111 90 125 75 b 186 104 169 75 183 86 b 225 75 190 86 203 75 b 263 113 247 75 263 90 z m 636 113 b 599 150 636 135 622 150 b 561 113 576 150 561 136 b 599 75 561 90 575 75 b 636 113 621 75 636 90 z m 711 113 b 674 150 711 135 697 150 b 636 113 651 150 636 136 b 674 75 636 90 650 75 b 711 113 696 75 711 90 z m 263 113 b 300 75 263 90 276 75 b 338 113 322 75 338 89 b 300 150 338 135 324 150 b 263 113 278 150 263 135 z m 338 113 b 375 75 338 90 351 75 b 413 113 397 75 413 89 b 375 150 413 135 399 150 b 338 113 353 150 338 135 z m 413 111 b 450 75 413 89 428 75 b 486 114 472 75 486 90 b 449 150 486 136 471 150 b 413 114 426 150 413 136 z m 486 113 b 524 75 486 90 500 75 b 561 113 546 75 561 89 b 524 150 561 135 547 150 b 486 113 501 150 486 135 z m 413 36 b 450 0 413 14 428 0 b 486 39 472 0 486 15 b 449 75 486 61 471 75 b 413 39 426 75 413 61 z m 188 38 b 225 0 188 15 201 0 b 263 38 247 0 263 14 b 225 75 263 60 249 75 b 188 38 203 75 188 60 z m 561 38 b 524 75 561 60 547 75 b 486 38 501 75 486 60 b 524 0 486 15 500 0 b 561 38 546 0 561 14 z m 561 38 b 599 0 561 15 575 0 b 636 38 621 0 636 14 b 599 75 636 60 622 75 b 561 38 576 75 561 60 z m 263 38 b 300 0 263 15 276 0 b 338 38 322 0 338 14 b 300 75 338 60 324 75 b 263 38 278 75 263 60 z m 338 38 b 375 0 338 15 351 0 b 413 38 397 0 413 14 b 375 75 413 60 399 75 b 338 38 353 75 338 60 z "},"c":{"ha":747,"x_min":0,"x_max":0,"o":"m 561 711 b 522 747 561 733 546 747 b 486 710 500 747 486 732 b 525 674 486 688 501 674 b 561 710 547 674 561 688 z m 261 711 b 222 747 261 733 246 747 b 186 710 200 747 186 732 b 225 674 186 688 201 674 b 261 710 247 674 261 688 z m 336 711 b 297 747 336 733 321 747 b 261 710 275 747 261 732 b 300 674 261 688 276 674 b 336 710 322 674 336 688 z m 486 711 b 447 747 486 733 471 747 b 411 710 425 747 411 732 b 450 674 411 688 426 674 b 486 710 472 674 486 688 z m 411 711 b 372 747 411 733 396 747 b 336 710 350 747 336 732 b 375 674 336 688 351 674 b 411 710 397 674 411 688 z m 411 636 b 449 599 411 614 425 599 b 486 636 471 599 486 614 b 449 674 486 658 472 674 b 411 636 426 674 411 660 z m 186 638 b 149 674 186 660 171 674 b 113 635 126 674 113 658 b 150 599 113 613 128 599 b 186 635 172 599 186 613 z m 336 636 b 374 599 336 614 350 599 b 411 636 396 599 411 614 b 374 674 411 658 397 674 b 336 636 351 674 336 660 z m 261 636 b 299 599 261 614 275 599 b 336 636 321 599 336 614 b 299 674 336 658 322 674 b 261 636 276 674 261 660 z m 186 636 b 224 599 186 614 200 599 b 261 636 246 599 261 614 b 224 674 261 658 247 674 b 186 636 201 674 186 660 z m 561 636 b 524 674 561 658 547 674 b 486 636 501 674 486 660 b 524 599 486 614 500 599 b 561 636 546 599 561 614 z m 636 636 b 599 674 636 658 622 674 b 561 636 576 674 561 660 b 599 599 561 614 575 599 b 636 636 621 599 636 614 z m 561 561 b 524 599 561 583 547 599 b 486 561 501 599 486 583 b 524 524 486 539 500 524 b 561 561 546 524 561 538 z m 261 563 b 224 599 261 585 246 599 b 188 560 201 599 188 583 b 225 524 188 538 203 524 b 261 560 247 524 261 538 z m 188 561 b 150 599 188 583 174 599 b 113 561 128 599 113 585 b 150 524 113 539 126 524 b 188 561 172 524 188 539 z m 635 553 b 672 524 639 535 651 524 b 710 561 694 524 710 538 b 672 599 710 583 696 599 b 636 569 653 599 639 588 b 599 599 632 588 619 599 b 561 561 576 599 561 583 b 599 524 561 539 575 524 b 635 553 618 524 632 535 z m 113 486 b 150 449 113 464 126 449 b 188 486 172 449 188 464 b 150 524 188 508 174 524 b 113 486 128 524 113 510 z m 38 486 b 75 449 38 464 51 449 b 113 486 97 449 113 464 b 75 524 113 508 99 524 b 38 486 53 524 38 510 z m 561 486 b 599 449 561 464 575 449 b 635 478 618 449 632 460 b 672 449 639 460 651 449 b 710 486 694 449 710 463 b 672 524 710 508 696 524 b 636 494 653 524 639 513 b 599 524 632 513 619 524 b 561 486 576 524 561 508 z m 113 411 b 150 374 113 389 126 374 b 188 411 172 374 188 389 b 150 449 188 433 174 449 b 113 411 128 449 113 435 z m 38 411 b 75 374 38 389 51 374 b 113 411 97 374 113 389 b 75 449 113 433 99 449 b 38 411 53 449 38 435 z m 113 336 b 150 299 113 314 126 299 b 188 336 172 299 188 314 b 150 374 188 358 174 374 b 113 336 128 374 113 360 z m 38 336 b 75 299 38 314 51 299 b 113 336 97 299 113 314 b 75 374 113 358 99 374 b 38 336 53 374 38 360 z m 561 261 b 600 225 561 239 576 225 b 635 254 619 225 632 236 b 674 225 639 236 653 225 b 710 263 696 225 710 240 b 671 299 710 285 694 299 b 635 271 651 299 639 288 b 597 299 632 288 618 299 b 561 263 575 299 561 285 z m 113 263 b 74 299 113 285 97 299 b 38 261 51 299 38 283 b 76 225 38 239 53 225 b 113 261 99 225 113 239 z m 188 263 b 149 299 188 285 172 299 b 113 261 126 299 113 283 b 151 225 113 239 128 225 b 188 261 174 225 188 239 z m 561 188 b 599 150 561 165 575 150 b 635 179 618 150 632 161 b 672 150 639 161 651 150 b 710 188 694 150 710 164 b 672 225 710 210 696 225 b 636 196 653 225 639 214 b 599 225 632 214 619 225 b 561 188 576 225 561 210 z m 188 188 b 150 225 188 210 174 225 b 113 188 128 225 113 211 b 150 150 113 165 126 150 b 188 188 172 150 188 165 z m 261 189 b 224 225 261 211 246 225 b 188 186 201 225 188 210 b 225 150 188 164 203 150 b 261 186 247 150 261 164 z m 486 188 b 524 150 486 165 500 150 b 561 188 546 150 561 164 b 524 225 561 210 547 225 b 486 188 501 225 486 210 z m 561 113 b 524 150 561 135 547 150 b 486 113 501 150 486 136 b 524 75 486 90 500 75 b 561 113 546 75 561 90 z m 636 113 b 599 150 636 135 622 150 b 561 113 576 150 561 136 b 599 75 561 90 575 75 b 636 113 621 75 636 90 z m 186 113 b 224 75 186 90 200 75 b 261 113 246 75 261 89 b 224 150 261 135 247 150 b 186 113 201 150 186 135 z m 261 113 b 299 75 261 90 275 75 b 336 113 321 75 336 89 b 299 150 336 135 322 150 b 261 113 276 150 261 135 z m 336 113 b 374 75 336 90 350 75 b 411 113 396 75 411 89 b 374 150 411 135 397 150 b 336 113 351 150 336 135 z m 411 113 b 449 75 411 90 425 75 b 486 113 471 75 486 89 b 449 150 486 135 472 150 b 411 113 426 150 411 135 z m 186 114 b 149 150 186 136 171 150 b 113 111 126 150 113 135 b 150 75 113 89 128 75 b 186 111 172 75 186 89 z m 261 38 b 299 0 261 15 275 0 b 336 38 321 0 336 14 b 299 75 336 60 322 75 b 261 38 276 75 261 60 z m 486 38 b 524 0 486 15 500 0 b 561 38 546 0 561 14 b 524 75 561 60 547 75 b 486 38 501 75 486 60 z m 411 38 b 449 0 411 15 425 0 b 486 38 471 0 486 14 b 449 75 486 60 472 75 b 411 38 426 75 411 60 z m 336 38 b 374 0 336 15 350 0 b 411 38 396 0 411 14 b 374 75 411 60 397 75 b 336 38 351 75 336 60 z m 186 38 b 224 0 186 15 200 0 b 261 38 246 0 261 14 b 224 75 261 60 247 75 b 186 38 201 75 186 60 z "},"D":{"ha":822,"x_min":0,"x_max":0,"o":"m 38 933 b 74 897 38 911 51 897 b 111 933 96 897 111 911 b 75 972 111 957 97 972 b 38 936 53 972 38 958 z m 486 935 b 524 897 486 913 501 897 b 561 935 547 897 561 913 b 524 972 561 958 546 972 b 486 935 500 972 486 957 z m 411 935 b 449 897 411 913 426 897 b 486 935 472 897 486 913 b 449 972 486 958 471 972 b 411 935 425 972 411 957 z m 336 935 b 374 897 336 913 351 897 b 411 935 397 897 411 913 b 374 972 411 958 396 972 b 336 935 350 972 336 957 z m 261 935 b 299 897 261 913 276 897 b 336 935 322 897 336 913 b 299 972 336 958 321 972 b 261 935 275 972 261 957 z m 186 935 b 224 897 186 913 201 897 b 261 935 247 897 261 913 b 224 972 261 958 246 972 b 186 935 200 972 186 957 z m 111 935 b 149 897 111 913 126 897 b 186 935 172 897 186 913 b 149 972 186 958 171 972 b 111 935 125 972 111 957 z m 561 860 b 524 897 561 882 546 897 b 486 860 500 897 486 882 b 524 822 486 836 501 822 b 561 860 547 822 561 838 z m 411 860 b 449 822 411 838 426 822 b 486 860 472 822 486 838 b 449 897 486 883 471 897 b 411 860 425 897 411 882 z m 336 860 b 374 822 336 838 351 822 b 411 860 397 822 411 838 b 374 897 411 883 396 897 b 336 860 350 897 336 882 z m 261 860 b 299 822 261 838 276 822 b 336 860 322 822 336 838 b 299 897 336 883 321 897 b 261 860 275 897 261 882 z m 186 860 b 224 822 186 838 201 822 b 261 860 247 822 261 838 b 224 897 261 883 246 897 b 186 860 200 897 186 882 z m 111 861 b 75 897 111 883 97 897 b 38 861 53 897 38 883 b 74 822 38 838 51 822 b 111 858 96 822 111 836 z m 635 861 b 599 897 635 883 621 897 b 561 861 576 897 561 883 b 597 822 561 838 575 822 b 635 858 619 822 635 836 z m 186 860 b 149 897 186 882 171 897 b 111 860 125 897 111 882 b 149 822 111 836 126 822 b 186 860 172 822 186 838 z m 561 785 b 524 822 561 807 546 822 b 486 785 500 822 486 807 b 524 747 486 761 501 747 b 561 785 547 747 561 763 z m 111 786 b 75 822 111 808 97 822 b 38 786 53 822 38 808 b 74 747 38 763 51 747 b 111 783 96 747 111 761 z m 186 785 b 149 822 186 807 171 822 b 111 785 125 822 111 807 b 149 747 111 761 126 747 b 186 785 172 747 186 763 z m 710 785 b 672 822 710 807 694 822 b 635 793 651 822 639 811 b 599 822 632 811 618 822 b 561 785 575 822 561 807 b 599 747 561 761 576 747 b 635 776 619 747 632 758 b 672 747 639 758 653 747 b 710 785 696 747 710 763 z m 636 710 b 599 747 636 732 621 747 b 561 710 575 747 561 732 b 599 672 561 686 576 672 b 636 710 622 672 636 688 z m 111 711 b 75 747 111 733 97 747 b 38 711 51 747 38 733 b 74 674 38 689 51 674 b 111 710 96 674 111 688 z m 186 711 b 150 747 186 733 172 747 b 111 711 126 747 111 733 b 147 674 111 689 125 674 b 186 710 171 674 186 688 z m 636 710 b 672 674 636 688 650 674 b 710 701 693 674 707 685 b 746 674 714 685 726 674 b 785 710 769 674 785 688 b 749 747 785 732 771 747 b 710 718 728 747 714 736 b 675 747 707 736 694 747 b 636 711 651 747 636 733 z m 636 636 b 674 599 636 614 651 599 b 711 628 694 599 707 610 b 747 599 714 610 728 599 b 785 636 771 599 785 614 b 747 674 785 660 769 674 b 711 644 726 674 714 663 b 674 674 707 663 693 674 b 636 636 650 674 636 658 z m 111 638 b 75 674 111 660 97 674 b 38 638 53 674 38 660 b 74 599 38 614 51 599 b 111 635 96 599 111 613 z m 186 636 b 149 674 186 658 171 674 b 111 636 125 674 111 658 b 149 599 111 613 126 599 b 186 636 172 599 186 614 z m 186 561 b 149 599 186 583 171 599 b 111 561 125 599 111 583 b 149 524 111 538 126 524 b 186 561 172 524 186 539 z m 111 563 b 75 599 111 585 97 599 b 38 563 53 599 38 585 b 74 524 38 539 51 524 b 111 560 96 524 111 538 z m 636 561 b 674 524 636 539 651 524 b 711 553 694 524 707 535 b 747 524 714 535 728 524 b 785 561 771 524 785 539 b 747 599 785 585 769 599 b 711 569 726 599 714 588 b 674 599 707 588 693 599 b 636 561 650 599 636 583 z m 636 486 b 674 449 636 464 651 449 b 711 478 694 449 707 460 b 747 449 714 460 728 449 b 785 486 771 449 785 464 b 747 524 785 510 769 524 b 711 494 726 524 714 513 b 674 524 707 513 693 524 b 636 486 650 524 636 508 z m 111 488 b 75 524 111 510 97 524 b 38 488 53 524 38 510 b 74 449 38 464 51 449 b 111 485 96 449 111 463 z m 186 486 b 149 524 186 508 171 524 b 111 486 125 524 111 508 b 149 449 111 463 126 449 b 186 486 172 449 186 464 z m 636 411 b 674 374 636 389 651 374 b 711 403 694 374 707 385 b 747 374 714 385 728 374 b 785 411 771 374 785 389 b 747 449 785 435 769 449 b 711 419 726 449 714 438 b 674 449 707 438 693 449 b 636 411 650 449 636 433 z m 186 411 b 149 449 186 433 171 449 b 111 411 125 449 111 433 b 149 374 111 388 126 374 b 186 411 172 374 186 389 z m 111 413 b 75 449 111 435 97 449 b 38 413 53 449 38 435 b 74 374 38 389 51 374 b 111 410 96 374 111 388 z m 636 336 b 674 299 636 314 651 299 b 711 328 694 299 707 310 b 747 299 714 310 728 299 b 785 336 771 299 785 314 b 747 374 785 360 769 374 b 711 344 726 374 714 363 b 674 374 707 363 693 374 b 636 336 650 374 636 358 z m 111 338 b 75 374 111 360 97 374 b 38 338 53 374 38 360 b 74 299 38 314 51 299 b 111 335 96 299 111 313 z m 186 336 b 149 374 186 358 171 374 b 111 336 125 374 111 358 b 149 299 111 313 126 299 b 186 336 172 299 186 314 z m 599 225 b 636 263 621 225 636 240 b 599 300 636 286 621 300 b 561 263 575 300 561 285 b 599 225 561 239 576 225 z m 111 263 b 147 225 111 240 125 225 b 186 261 171 225 186 239 l 186 263 b 150 299 186 285 172 299 b 111 263 126 299 111 285 z m 636 261 b 672 225 636 239 650 225 b 710 253 693 225 707 236 b 746 225 714 236 726 225 b 785 261 769 225 785 239 b 749 299 785 283 771 299 b 710 269 728 299 714 288 b 675 299 707 288 694 299 b 636 263 651 299 636 285 z m 74 225 b 111 261 96 225 111 239 l 111 263 b 75 299 111 285 97 299 b 38 263 51 299 38 285 b 74 225 38 240 51 225 z m 186 188 b 149 225 186 210 171 225 b 111 188 125 225 111 210 b 149 150 111 164 126 150 b 186 188 172 150 186 165 z m 710 188 b 672 225 710 210 694 225 b 635 196 651 225 639 214 b 599 225 632 214 618 225 b 561 188 575 225 561 210 b 599 150 561 164 576 150 b 635 179 619 150 632 161 b 672 150 639 161 653 150 b 710 188 696 150 710 165 z m 111 189 b 75 225 111 211 97 225 b 38 189 53 225 38 211 b 74 150 38 165 51 150 b 111 186 96 150 111 164 z m 524 150 b 561 188 546 150 561 165 b 524 225 561 211 546 225 b 486 188 500 225 486 210 b 524 150 486 164 501 150 z m 186 113 b 149 150 186 135 171 150 b 111 113 125 150 111 135 b 149 75 111 89 126 75 b 186 113 172 75 186 90 z m 561 113 b 524 150 561 135 546 150 b 486 113 500 150 486 135 b 524 75 486 89 501 75 b 561 113 547 75 561 90 z m 635 114 b 599 150 635 136 621 150 b 561 114 576 150 561 136 b 597 75 561 90 575 75 b 635 111 619 75 635 89 z m 186 113 b 224 75 186 90 201 75 b 261 113 247 75 261 90 b 224 150 261 136 246 150 b 186 113 200 150 186 135 z m 261 113 b 299 75 261 90 276 75 b 336 113 322 75 336 90 b 299 150 336 136 321 150 b 261 113 275 150 261 135 z m 336 113 b 374 75 336 90 351 75 b 411 113 397 75 411 90 b 374 150 411 136 396 150 b 336 113 350 150 336 135 z m 411 113 b 449 75 411 90 426 75 b 486 113 472 75 486 90 b 449 150 486 136 471 150 b 411 113 425 150 411 135 z m 111 114 b 75 150 111 136 97 150 b 38 114 53 150 38 136 b 74 75 38 90 51 75 b 111 111 96 75 111 89 z m 486 38 b 524 0 486 15 501 0 b 561 38 547 0 561 15 b 524 75 561 61 546 75 b 486 38 500 75 486 60 z m 411 38 b 449 0 411 15 426 0 b 486 38 472 0 486 15 b 449 75 486 61 471 75 b 411 38 425 75 411 60 z m 336 38 b 374 0 336 15 351 0 b 411 38 397 0 411 15 b 374 75 411 61 396 75 b 336 38 350 75 336 60 z m 261 38 b 299 0 261 15 276 0 b 336 38 322 0 336 15 b 299 75 336 61 321 75 b 261 38 275 75 261 60 z m 186 38 b 224 0 186 15 201 0 b 261 38 247 0 261 15 b 224 75 261 61 246 75 b 186 38 200 75 186 60 z m 111 38 b 149 0 111 15 126 0 b 186 38 172 0 186 15 b 149 75 186 61 171 75 b 111 38 125 75 111 60 z m 38 36 b 74 0 38 14 51 0 b 111 36 96 0 111 14 b 75 75 111 60 97 75 b 38 39 53 75 38 61 z "},"d":{"ha":747,"x_min":0,"x_max":0,"o":"m 635 935 b 672 897 635 913 649 897 b 710 935 694 897 710 911 b 672 972 710 957 696 972 b 635 935 650 972 635 957 z m 560 935 b 597 897 560 913 574 897 b 635 935 619 897 635 911 b 597 972 635 957 621 972 b 560 935 575 972 560 957 z m 635 860 b 672 822 635 838 649 822 b 710 860 694 822 710 836 b 672 897 710 882 696 897 b 635 860 650 897 635 882 z m 560 860 b 597 822 560 838 574 822 b 635 860 619 822 635 836 b 597 897 635 882 621 897 b 560 860 575 897 560 882 z m 635 785 b 672 747 635 763 649 747 b 710 785 694 747 710 761 b 672 822 710 807 696 822 b 635 785 650 822 635 807 z m 560 785 b 597 747 560 763 574 747 b 635 785 619 747 635 761 b 597 822 635 807 621 822 b 560 785 575 822 560 807 z m 261 711 b 222 747 261 733 246 747 b 186 710 200 747 186 732 b 225 674 186 688 201 674 b 261 710 247 674 261 688 z m 635 710 b 674 674 635 688 650 674 b 710 711 696 674 710 689 b 671 747 710 733 694 747 b 635 711 649 747 635 733 z m 336 711 b 297 747 336 733 321 747 b 261 710 275 747 261 732 b 300 674 261 688 276 674 b 336 710 322 674 336 688 z m 411 711 b 372 747 411 733 396 747 b 336 710 350 747 336 732 b 375 674 336 688 351 674 b 411 710 397 674 411 688 z m 486 711 b 447 747 486 733 471 747 b 411 710 425 747 411 732 b 450 674 411 688 426 674 b 486 710 472 674 486 688 z m 560 710 b 599 674 560 688 575 674 b 635 711 621 674 635 689 b 596 747 635 733 619 747 b 560 711 574 747 560 733 z m 411 636 b 449 599 411 614 425 599 b 486 636 471 599 486 614 b 449 674 486 658 472 674 b 411 636 426 674 411 660 z m 336 636 b 374 599 336 614 350 599 b 411 636 396 599 411 614 b 374 674 411 658 397 674 b 336 636 351 674 336 660 z m 261 636 b 299 599 261 614 275 599 b 336 636 321 599 336 614 b 299 674 336 658 322 674 b 261 636 276 674 261 660 z m 186 636 b 224 599 186 614 200 599 b 261 636 246 599 261 614 b 224 674 261 658 247 674 b 186 636 201 674 186 660 z m 635 636 b 672 599 635 614 649 599 b 710 636 694 599 710 613 b 672 674 710 658 696 674 b 635 636 650 674 635 658 z m 111 636 b 149 599 111 614 125 599 b 186 636 171 599 186 614 b 149 674 186 658 172 674 b 111 636 126 674 111 660 z m 560 636 b 597 599 560 614 574 599 b 635 636 619 599 635 613 b 597 674 635 658 621 674 b 560 636 575 674 560 658 z m 560 638 b 522 674 560 660 544 674 b 486 635 500 674 486 658 b 524 599 486 613 501 599 b 560 635 546 599 560 613 z m 111 563 b 74 599 111 585 96 599 b 38 560 51 599 38 583 b 75 524 38 538 53 524 b 111 560 97 524 111 538 z m 186 561 b 224 524 186 539 200 524 b 261 561 246 524 261 539 b 224 599 261 583 247 599 b 186 561 201 599 186 585 z m 560 561 b 597 524 560 539 574 524 b 635 561 619 524 635 538 b 597 599 635 583 621 599 b 560 561 575 599 560 583 z m 560 563 b 522 599 560 585 544 599 b 486 560 500 599 486 583 b 524 524 486 538 501 524 b 560 560 546 524 560 538 z m 635 561 b 672 524 635 539 649 524 b 710 561 694 524 710 538 b 672 599 710 583 696 599 b 635 561 650 599 635 583 z m 111 561 b 149 524 111 539 125 524 b 186 561 171 524 186 539 b 149 599 186 583 172 599 b 111 561 126 599 111 585 z m 560 486 b 597 449 560 464 574 449 b 635 486 619 449 635 463 b 597 524 635 508 621 524 b 560 486 575 524 560 508 z m 186 486 b 149 524 186 508 172 524 b 111 486 126 524 111 510 b 149 449 111 464 125 449 b 186 486 171 449 186 464 z m 111 488 b 74 524 111 510 96 524 b 38 485 51 524 38 508 b 75 449 38 463 53 449 b 111 485 97 449 111 463 z m 635 486 b 672 449 635 464 649 449 b 710 486 694 449 710 463 b 672 524 710 508 696 524 b 635 486 650 524 635 508 z m 560 411 b 597 374 560 389 574 374 b 635 411 619 374 635 388 b 597 449 635 433 621 449 b 560 411 575 449 560 433 z m 186 411 b 149 449 186 433 172 449 b 111 411 126 449 111 435 b 149 374 111 389 125 374 b 186 411 171 374 186 389 z m 111 413 b 74 449 111 435 96 449 b 38 410 51 449 38 433 b 75 374 38 388 53 374 b 111 410 97 374 111 388 z m 635 411 b 672 374 635 389 649 374 b 710 411 694 374 710 388 b 672 449 710 433 696 449 b 635 411 650 449 635 433 z m 560 336 b 597 299 560 314 574 299 b 635 336 619 299 635 313 b 597 374 635 358 621 374 b 560 336 575 374 560 358 z m 186 336 b 149 374 186 358 172 374 b 111 336 126 374 111 360 b 149 299 111 314 125 299 b 186 336 171 299 186 314 z m 111 338 b 74 374 111 360 96 374 b 38 335 51 374 38 358 b 75 299 38 313 53 299 b 111 335 97 299 111 313 z m 635 336 b 672 299 635 314 649 299 b 710 336 694 299 710 313 b 672 374 710 358 696 374 b 635 336 650 374 635 358 z m 186 263 b 147 299 186 285 171 299 b 111 261 125 299 111 283 b 150 225 111 239 126 225 b 186 261 172 225 186 239 z m 560 261 b 599 225 560 239 575 225 b 635 263 621 225 635 240 b 596 299 635 285 619 299 b 560 263 574 299 560 285 z m 111 263 b 74 299 111 285 96 299 b 38 261 51 299 38 283 b 75 225 38 239 51 225 b 111 261 97 225 111 239 z m 635 261 b 674 225 635 239 650 225 b 710 263 696 225 710 240 b 671 299 710 285 694 299 b 635 263 649 299 635 285 z m 186 188 b 224 150 186 165 200 150 b 261 188 246 150 261 165 b 224 225 261 210 247 225 b 186 188 201 225 186 211 z m 111 189 b 74 225 111 211 96 225 b 38 186 51 225 38 210 b 75 150 38 164 53 150 b 111 186 97 150 111 164 z m 111 188 b 149 150 111 165 125 150 b 186 188 171 150 186 165 b 149 225 186 210 172 225 b 111 188 126 225 111 211 z m 560 189 b 522 225 560 211 544 225 b 486 186 500 225 486 210 b 524 150 486 164 501 150 b 560 186 546 150 560 164 z m 560 188 b 597 150 560 165 574 150 b 635 188 619 150 635 164 b 597 225 635 210 621 225 b 560 188 575 225 560 210 z m 635 188 b 672 150 635 165 649 150 b 710 188 694 150 710 164 b 672 225 710 210 696 225 b 635 188 650 225 635 210 z m 635 113 b 672 75 635 90 649 75 b 710 113 694 75 710 89 b 672 150 710 135 696 150 b 635 113 650 150 635 135 z m 186 113 b 149 150 186 135 172 150 b 111 113 126 150 111 136 b 149 75 111 90 125 75 b 186 113 171 75 186 90 z m 186 113 b 224 75 186 90 200 75 b 261 113 246 75 261 89 b 224 150 261 135 247 150 b 186 113 201 150 186 135 z m 261 113 b 299 75 261 90 275 75 b 336 113 321 75 336 89 b 299 150 336 135 322 150 b 261 113 276 150 261 135 z m 336 113 b 374 75 336 90 350 75 b 411 113 396 75 411 89 b 374 150 411 135 397 150 b 336 113 351 150 336 135 z m 411 113 b 449 75 411 90 425 75 b 486 113 471 75 486 89 b 449 150 486 135 472 150 b 411 113 426 150 411 135 z m 560 113 b 597 75 560 90 574 75 b 635 113 619 75 635 89 b 597 150 635 135 621 150 b 560 113 575 150 560 135 z m 560 114 b 522 150 560 136 544 150 b 486 111 500 150 486 135 b 524 75 486 89 501 75 b 560 111 546 75 560 89 z m 635 38 b 672 0 635 15 649 0 b 710 38 694 0 710 14 b 672 75 710 60 696 75 b 635 38 650 75 635 60 z m 186 38 b 224 0 186 15 200 0 b 261 38 246 0 261 14 b 224 75 261 60 247 75 b 186 38 201 75 186 60 z m 261 38 b 299 0 261 15 275 0 b 336 38 321 0 336 14 b 299 75 336 60 322 75 b 261 38 276 75 261 60 z m 411 38 b 449 0 411 15 425 0 b 486 38 471 0 486 14 b 449 75 486 60 472 75 b 411 38 426 75 411 60 z m 560 38 b 597 0 560 15 574 0 b 635 38 619 0 635 14 b 597 75 635 60 621 75 b 560 38 575 75 560 60 z m 336 38 b 374 0 336 15 350 0 b 411 38 396 0 411 14 b 374 75 411 60 397 75 b 336 38 351 75 336 60 z "},"E":{"ha":749,"x_min":0,"x_max":0,"o":"m 38 935 b 75 897 38 913 53 897 b 113 935 99 897 113 913 b 75 972 113 958 97 972 b 38 935 51 972 38 957 z m 636 935 b 674 897 636 913 651 897 b 711 935 697 897 711 913 b 674 972 711 958 696 972 b 636 935 650 972 636 957 z m 561 935 b 599 897 561 913 576 897 b 636 935 622 897 636 913 b 599 972 636 958 621 972 b 561 935 575 972 561 957 z m 486 935 b 524 897 486 913 501 897 b 561 935 547 897 561 913 b 524 972 561 958 546 972 b 486 935 500 972 486 957 z m 413 933 b 449 897 413 911 426 897 b 486 933 471 897 486 911 b 450 972 486 957 472 972 b 413 936 428 972 413 958 z m 338 935 b 375 897 338 913 353 897 b 413 935 399 897 413 913 b 375 972 413 958 397 972 b 338 935 351 972 338 957 z m 263 935 b 300 897 263 913 278 897 b 338 935 324 897 338 913 b 300 972 338 958 322 972 b 263 935 276 972 263 957 z m 188 935 b 225 897 188 913 203 897 b 263 935 249 897 263 913 b 225 972 263 958 247 972 b 188 935 201 972 188 957 z m 113 935 b 150 897 113 913 128 897 b 188 935 174 897 188 913 b 150 972 188 958 172 972 b 113 935 126 972 113 957 z m 113 860 b 150 822 113 838 128 822 b 188 860 174 822 188 838 b 150 897 188 883 172 897 b 113 860 126 897 113 882 z m 486 860 b 524 822 486 838 501 822 b 561 860 547 822 561 838 b 524 897 561 883 546 897 b 486 860 500 897 486 882 z m 636 860 b 674 822 636 838 651 822 b 711 860 697 822 711 838 b 674 897 711 883 696 897 b 636 860 650 897 636 882 z m 113 860 b 75 897 113 882 97 897 b 38 860 51 897 38 882 b 75 822 38 836 53 822 b 113 860 99 822 113 838 z m 561 860 b 599 822 561 838 576 822 b 636 860 622 822 636 838 b 599 897 636 883 621 897 b 561 860 575 897 561 882 z m 413 858 b 449 822 413 836 426 822 b 486 858 471 822 486 836 b 450 897 486 882 472 897 b 413 861 428 897 413 883 z m 338 860 b 375 822 338 838 353 822 b 413 860 399 822 413 838 b 375 897 413 883 397 897 b 338 860 351 897 338 882 z m 263 860 b 300 822 263 838 278 822 b 338 860 324 822 338 838 b 300 897 338 883 322 897 b 263 860 276 897 263 882 z m 188 860 b 225 822 188 838 203 822 b 263 860 249 822 263 838 b 225 897 263 883 247 897 b 188 860 201 897 188 882 z m 113 785 b 150 747 113 761 128 747 b 188 785 174 747 188 763 b 150 822 188 807 172 822 b 113 785 126 822 113 807 z m 38 785 b 75 747 38 761 53 747 b 113 785 99 747 113 763 b 75 822 113 807 97 822 b 38 785 51 822 38 807 z m 113 711 b 149 674 113 689 126 674 b 188 710 172 674 188 688 l 188 711 b 151 747 188 733 174 747 b 113 711 128 747 113 733 z m 74 674 b 113 710 97 674 113 688 l 113 711 b 76 747 113 733 99 747 b 38 711 53 747 38 733 b 74 674 38 689 51 674 z m 113 636 b 150 599 113 613 128 599 b 188 636 174 599 188 614 b 150 674 188 658 172 674 b 113 636 126 674 113 658 z m 38 636 b 75 599 38 613 53 599 b 113 636 99 599 113 614 b 75 674 113 658 97 674 b 38 636 51 674 38 658 z m 561 561 b 599 524 561 538 576 524 b 636 561 622 524 636 539 b 599 599 636 583 621 599 b 561 561 575 599 561 583 z m 113 561 b 150 524 113 538 128 524 b 188 561 174 524 188 539 b 150 599 188 583 172 599 b 113 561 126 599 113 583 z m 263 561 b 225 599 263 583 247 599 b 188 561 201 599 188 583 b 225 524 188 538 203 524 b 263 561 249 524 263 539 z m 38 561 b 75 524 38 538 53 524 b 113 561 99 524 113 539 b 75 599 113 583 97 599 b 38 561 51 599 38 583 z m 338 561 b 300 599 338 583 322 599 b 263 561 276 599 263 583 b 300 524 263 538 278 524 b 338 561 324 524 338 539 z m 413 561 b 375 599 413 583 397 599 b 338 561 351 599 338 583 b 375 524 338 538 353 524 b 413 561 399 524 413 539 z m 486 563 b 450 599 486 585 472 599 b 413 563 428 599 413 585 b 449 524 413 539 426 524 b 486 560 471 524 486 538 z m 486 561 b 524 524 486 538 501 524 b 561 561 547 524 561 539 b 524 599 561 583 546 599 b 486 561 500 599 486 583 z m 561 486 b 599 449 561 463 576 449 b 636 486 622 449 636 464 b 599 524 636 508 621 524 b 561 486 575 524 561 508 z m 113 486 b 150 449 113 463 128 449 b 188 486 174 449 188 464 b 150 524 188 508 172 524 b 113 486 126 524 113 508 z m 486 486 b 524 449 486 463 501 449 b 561 486 547 449 561 464 b 524 524 561 508 546 524 b 486 486 500 524 486 508 z m 486 488 b 450 524 486 510 472 524 b 413 488 428 524 413 510 b 449 449 413 464 426 449 b 486 485 471 449 486 463 z m 338 486 b 375 449 338 463 353 449 b 413 486 399 449 413 464 b 375 524 413 508 397 524 b 338 486 351 524 338 508 z m 263 486 b 300 449 263 463 278 449 b 338 486 324 449 338 464 b 300 524 338 508 322 524 b 263 486 276 524 263 508 z m 38 486 b 75 449 38 463 53 449 b 113 486 99 449 113 464 b 75 524 113 508 97 524 b 38 486 51 524 38 508 z m 188 486 b 225 449 188 463 203 449 b 263 486 249 449 263 464 b 225 524 263 508 247 524 b 188 486 201 524 188 508 z m 113 411 b 150 374 113 388 128 374 b 188 411 174 374 188 389 b 150 449 188 433 172 449 b 113 411 126 449 113 433 z m 38 411 b 75 374 38 388 53 374 b 113 411 99 374 113 389 b 75 449 113 433 97 449 b 38 411 51 449 38 433 z m 113 336 b 75 374 113 358 97 374 b 38 336 51 374 38 358 b 75 299 38 313 53 299 b 113 336 99 299 113 314 z m 188 336 b 150 374 188 358 172 374 b 113 336 126 374 113 358 b 150 299 113 313 128 299 b 188 336 174 299 188 314 z m 113 263 b 76 299 113 285 99 299 b 38 263 53 299 38 285 b 74 225 38 240 51 225 b 113 261 97 225 113 239 z m 188 263 b 151 299 188 285 174 299 b 113 263 128 299 113 285 b 149 225 113 240 126 225 b 188 261 172 225 188 239 z m 113 188 b 150 150 113 164 128 150 b 188 188 174 150 188 165 b 150 225 188 210 172 225 b 113 188 126 225 113 210 z m 38 188 b 75 150 38 164 53 150 b 113 188 99 150 113 165 b 75 225 113 210 97 225 b 38 188 51 225 38 210 z m 486 113 b 524 75 486 90 501 75 b 561 113 547 75 561 90 b 524 150 561 136 546 150 b 486 113 500 150 486 135 z m 561 113 b 599 75 561 90 576 75 b 636 113 622 75 636 90 b 599 150 636 136 621 150 b 561 113 575 150 561 135 z m 413 111 b 449 75 413 89 426 75 b 486 111 471 75 486 89 b 450 150 486 135 472 150 b 413 114 428 150 413 136 z m 338 113 b 375 75 338 90 353 75 b 413 113 399 75 413 90 b 375 150 413 136 397 150 b 338 113 351 150 338 135 z m 263 113 b 300 75 263 90 278 75 b 338 113 324 75 338 90 b 300 150 338 136 322 150 b 263 113 276 150 263 135 z m 188 113 b 225 75 188 90 203 75 b 263 113 249 75 263 90 b 225 150 263 136 247 150 b 188 113 201 150 188 135 z m 113 113 b 150 75 113 90 128 75 b 188 113 174 75 188 90 b 150 150 188 136 172 150 b 113 113 126 150 113 135 z m 113 113 b 75 150 113 135 97 150 b 38 113 51 150 38 135 b 75 75 38 89 53 75 b 113 113 99 75 113 90 z m 636 113 b 674 75 636 90 651 75 b 711 113 697 75 711 90 b 674 150 711 136 696 150 b 636 113 650 150 636 135 z m 188 38 b 225 0 188 15 203 0 b 263 38 249 0 263 15 b 225 75 263 61 247 75 b 188 38 201 75 188 60 z m 113 38 b 150 0 113 15 128 0 b 188 38 174 0 188 15 b 150 75 188 61 172 75 b 113 38 126 75 113 60 z m 561 38 b 599 0 561 15 576 0 b 636 38 622 0 636 15 b 599 75 636 61 621 75 b 561 38 575 75 561 60 z m 263 38 b 300 0 263 15 278 0 b 338 38 324 0 338 15 b 300 75 338 61 322 75 b 263 38 276 75 263 60 z m 338 38 b 375 0 338 15 353 0 b 413 38 399 0 413 15 b 375 75 413 61 397 75 b 338 38 351 75 338 60 z m 413 36 b 449 0 413 14 426 0 b 486 36 471 0 486 14 b 450 75 486 60 472 75 b 413 39 428 75 413 61 z m 486 38 b 524 0 486 15 501 0 b 561 38 547 0 561 15 b 524 75 561 61 546 75 b 486 38 500 75 486 60 z m 38 38 b 75 0 38 15 53 0 b 113 38 99 0 113 15 b 75 75 113 61 97 75 b 38 38 51 75 38 60 z m 636 38 b 674 0 636 15 651 0 b 711 38 697 0 711 15 b 674 75 711 61 696 75 b 636 38 650 75 636 60 z "},"e":{"ha":674,"x_min":0,"x_max":0,"o":"m 261 711 b 222 747 261 733 246 747 b 186 710 200 747 186 732 b 225 674 186 688 201 674 b 261 710 247 674 261 688 z m 336 711 b 297 747 336 733 321 747 b 261 710 275 747 261 732 b 300 674 261 688 276 674 b 336 710 322 674 336 688 z m 411 711 b 372 747 411 733 396 747 b 336 710 350 747 336 732 b 375 674 336 688 351 674 b 411 710 397 674 411 688 z m 486 711 b 447 747 486 733 471 747 b 411 710 425 747 411 732 b 450 674 411 688 426 674 b 486 710 472 674 486 688 z m 411 638 b 372 674 411 660 396 674 b 336 636 350 674 336 658 b 375 600 336 614 351 600 b 411 636 397 600 411 614 z m 336 638 b 297 674 336 660 321 674 b 261 636 275 674 261 658 b 300 600 261 614 276 600 b 336 636 322 600 336 614 z m 188 636 b 150 674 188 658 174 674 b 113 636 128 674 113 660 b 150 599 113 614 126 599 b 188 636 172 599 188 614 z m 188 561 b 225 525 188 539 203 525 b 261 561 247 525 261 539 l 261 564 b 232 599 261 583 250 596 b 261 635 250 601 261 615 l 261 638 b 224 674 261 660 246 674 b 188 635 201 674 188 658 b 217 600 188 615 199 603 b 188 561 199 596 188 582 z m 486 636 b 449 674 486 658 472 674 b 411 636 426 674 411 660 b 440 600 411 617 422 603 b 411 563 422 596 411 583 b 449 525 411 540 425 525 b 486 563 471 525 486 540 b 457 600 486 582 475 596 b 486 636 475 603 486 617 z m 561 636 b 524 674 561 658 547 674 b 486 636 501 674 486 660 b 524 599 486 614 500 599 b 561 636 546 599 561 614 z m 113 561 b 75 599 113 583 99 599 b 38 561 53 599 38 585 b 75 524 38 539 51 524 b 113 561 97 524 113 539 z m 113 561 b 150 524 113 539 126 524 b 188 561 172 524 188 539 b 150 599 188 583 174 599 b 113 561 128 599 113 585 z m 561 561 b 524 599 561 583 547 599 b 486 561 501 599 486 583 b 524 524 486 539 500 524 b 561 561 546 524 561 538 z m 561 561 b 599 524 561 539 575 524 b 636 561 621 524 636 538 b 599 599 636 583 622 599 b 561 561 576 599 561 583 z m 113 486 b 75 524 113 508 99 524 b 38 486 53 524 38 510 b 75 449 38 464 51 449 b 113 486 97 449 113 464 z m 188 486 b 150 524 188 508 174 524 b 113 486 128 524 113 510 b 150 449 113 464 126 449 b 188 486 172 449 188 464 z m 561 486 b 524 524 561 508 547 524 b 486 486 501 524 486 508 b 524 449 486 464 500 449 b 561 486 546 449 561 463 z m 561 486 b 599 449 561 464 575 449 b 636 486 621 449 636 463 b 599 524 636 508 622 524 b 561 486 576 524 561 508 z m 486 411 b 449 449 486 433 472 449 b 411 411 426 449 411 435 b 449 374 411 389 425 374 b 486 411 471 374 486 389 z m 336 411 b 374 374 336 389 350 374 b 411 411 396 374 411 389 b 374 449 411 433 397 449 b 336 411 351 449 336 435 z m 261 411 b 299 374 261 389 275 374 b 336 411 321 374 336 389 b 299 449 336 433 322 449 b 261 411 276 449 261 435 z m 113 411 b 150 374 113 389 126 374 b 186 403 169 374 183 385 b 224 374 190 385 203 374 b 261 411 246 374 261 389 b 224 449 261 433 247 449 b 188 419 204 449 190 438 b 150 449 183 438 171 449 b 113 411 128 449 113 435 z m 38 411 b 75 374 38 389 51 374 b 113 411 97 374 113 389 b 75 449 113 433 99 449 b 38 411 53 449 38 435 z m 561 411 b 599 374 561 389 575 374 b 636 411 621 374 636 388 b 599 449 636 433 622 449 b 561 411 576 449 561 433 z m 486 411 b 524 374 486 389 500 374 b 561 411 546 374 561 388 b 524 449 561 433 547 449 b 486 411 501 449 486 433 z m 113 336 b 146 299 113 319 119 308 b 186 328 165 299 183 307 b 224 299 190 310 203 299 b 261 336 246 299 261 314 b 224 374 261 358 247 374 b 188 344 204 374 190 363 b 149 374 183 363 171 374 b 113 336 126 374 113 358 z m 336 336 b 374 299 336 314 350 299 b 411 336 396 299 411 314 b 374 374 411 358 397 374 b 336 336 351 374 336 360 z m 261 336 b 299 299 261 314 275 299 b 336 336 321 299 336 314 b 299 374 336 358 322 374 b 261 336 276 374 261 360 z m 411 336 b 449 299 411 314 425 299 b 486 336 471 299 486 314 b 449 374 486 358 472 374 b 411 336 426 374 411 360 z m 38 336 b 75 299 38 314 51 299 b 113 336 97 299 113 314 b 75 374 113 358 99 374 b 38 336 53 374 38 360 z m 486 336 b 524 299 486 314 500 299 b 561 336 546 299 561 314 b 524 374 561 358 547 374 b 486 336 501 374 486 360 z m 561 336 b 599 299 561 314 575 299 b 636 336 621 299 636 313 b 599 374 636 358 622 374 b 561 336 576 374 561 358 z m 188 263 b 149 299 188 285 172 299 b 113 261 126 299 113 283 b 151 225 113 239 128 225 b 188 261 174 225 188 239 z m 113 263 b 74 299 113 285 97 299 b 38 261 51 299 38 283 b 76 225 38 239 53 225 b 113 261 99 225 113 239 z m 561 188 b 524 225 561 210 547 225 b 486 188 501 225 486 210 b 524 150 486 165 500 150 b 561 188 546 150 561 164 z m 561 188 b 599 150 561 165 575 150 b 636 188 621 150 636 164 b 599 225 636 210 622 225 b 561 188 576 225 561 210 z m 113 188 b 150 150 113 165 126 150 b 186 179 169 150 183 161 b 224 150 190 161 203 150 b 261 188 246 150 261 165 b 224 225 261 210 247 225 b 188 196 204 225 190 214 b 150 225 183 214 171 225 b 113 188 128 225 113 211 z m 38 188 b 75 150 38 165 51 150 b 113 188 97 150 113 165 b 75 225 113 210 99 225 b 38 188 53 225 38 211 z m 486 188 b 449 225 486 210 472 225 b 411 188 426 225 411 211 b 449 150 411 165 425 150 b 486 188 471 150 486 165 z m 486 113 b 449 150 486 135 472 150 b 411 113 426 150 411 136 b 449 75 411 90 425 75 b 486 113 471 75 486 90 z m 186 114 b 149 150 186 136 171 150 b 113 111 126 150 113 135 b 150 75 113 89 128 75 b 186 111 172 75 186 89 z m 261 113 b 224 150 261 135 247 150 b 186 113 201 150 186 136 b 224 75 186 90 200 75 b 261 113 246 75 261 90 z m 261 113 b 299 75 261 90 275 75 b 336 113 321 75 336 89 b 299 150 336 135 322 150 b 261 113 276 150 261 135 z m 336 113 b 374 75 336 90 350 75 b 411 113 396 75 411 89 b 374 150 411 135 397 150 b 336 113 351 150 336 135 z m 561 113 b 524 150 561 135 547 150 b 486 113 501 150 486 136 b 524 75 486 90 500 75 b 561 113 546 75 561 90 z m 186 38 b 224 0 186 15 200 0 b 261 38 246 0 261 14 b 224 75 261 60 247 75 b 186 38 201 75 186 60 z m 261 38 b 299 0 261 15 275 0 b 336 38 321 0 336 14 b 299 75 336 60 322 75 b 261 38 276 75 261 60 z m 336 38 b 374 0 336 15 350 0 b 411 38 396 0 411 14 b 374 75 411 60 397 75 b 336 38 351 75 336 60 z m 411 38 b 449 0 411 15 425 0 b 486 38 471 0 486 14 b 449 75 486 60 472 75 b 411 38 426 75 411 60 z "},"F":{"ha":749,"x_min":0,"x_max":0,"o":"m 38 935 b 75 897 38 913 53 897 b 113 935 99 897 113 913 b 75 972 113 958 97 972 b 38 935 51 972 38 957 z m 636 935 b 674 897 636 913 651 897 b 711 935 697 897 711 913 b 674 972 711 958 696 972 b 636 935 650 972 636 957 z m 561 935 b 599 897 561 913 576 897 b 636 935 622 897 636 913 b 599 972 636 958 621 972 b 561 935 575 972 561 957 z m 486 935 b 524 897 486 913 501 897 b 561 935 547 897 561 913 b 524 972 561 958 546 972 b 486 935 500 972 486 957 z m 411 935 b 449 897 411 913 426 897 b 486 935 472 897 486 913 b 449 972 486 958 471 972 b 411 935 425 972 411 957 z m 336 935 b 374 897 336 913 351 897 b 411 935 397 897 411 913 b 374 972 411 958 396 972 b 336 935 350 972 336 957 z m 261 935 b 299 897 261 913 276 897 b 336 935 322 897 336 913 b 299 972 336 958 321 972 b 261 935 275 972 261 957 z m 186 935 b 224 897 186 913 201 897 b 261 935 247 897 261 913 b 224 972 261 958 246 972 b 186 935 200 972 186 957 z m 113 933 b 149 897 113 911 126 897 b 186 933 171 897 186 911 b 150 972 186 957 172 972 b 113 936 128 972 113 958 z m 113 858 b 149 822 113 836 126 822 b 186 858 171 822 186 836 b 150 897 186 882 172 897 b 113 861 128 897 113 883 z m 486 860 b 524 822 486 838 501 822 b 561 860 547 822 561 838 b 524 897 561 883 546 897 b 486 860 500 897 486 882 z m 636 860 b 674 822 636 838 651 822 b 711 860 697 822 711 838 b 674 897 711 883 696 897 b 636 860 650 897 636 882 z m 113 860 b 75 897 113 882 97 897 b 38 860 51 897 38 882 b 75 822 38 836 53 822 b 113 860 99 822 113 838 z m 186 860 b 224 822 186 838 201 822 b 261 860 247 822 261 838 b 224 897 261 883 246 897 b 186 860 200 897 186 882 z m 261 860 b 299 822 261 838 276 822 b 336 860 322 822 336 838 b 299 897 336 883 321 897 b 261 860 275 897 261 882 z m 336 860 b 374 822 336 838 351 822 b 411 860 397 822 411 838 b 374 897 411 883 396 897 b 336 860 350 897 336 882 z m 411 860 b 449 822 411 838 426 822 b 486 860 472 822 486 838 b 449 897 486 883 471 897 b 411 860 425 897 411 882 z m 561 860 b 599 822 561 838 576 822 b 636 860 622 822 636 838 b 599 897 636 883 621 897 b 561 860 575 897 561 882 z m 113 785 b 75 822 113 807 97 822 b 38 785 51 822 38 807 b 75 747 38 761 53 747 b 113 785 99 747 113 763 z m 188 785 b 150 822 188 807 172 822 b 113 785 126 822 113 807 b 150 747 113 761 128 747 b 188 785 174 747 188 763 z m 113 711 b 76 747 113 733 99 747 b 38 711 53 747 38 733 b 74 674 38 689 51 674 b 113 710 97 674 113 688 z m 188 711 b 151 747 188 733 174 747 b 113 711 128 747 113 733 b 149 674 113 689 126 674 b 188 710 172 674 188 688 z m 113 636 b 75 674 113 658 97 674 b 38 636 51 674 38 658 b 75 599 38 613 53 599 b 113 636 99 599 113 614 z m 188 636 b 150 674 188 658 172 674 b 113 636 126 674 113 658 b 150 599 113 613 128 599 b 188 636 174 599 188 614 z m 113 561 b 150 524 113 538 128 524 b 188 561 174 524 188 539 b 150 599 188 583 172 599 b 113 561 126 599 113 583 z m 38 561 b 75 524 38 538 53 524 b 113 561 99 524 113 539 b 75 599 113 583 97 599 b 38 561 51 599 38 583 z m 561 486 b 599 449 561 463 576 449 b 636 486 622 449 636 464 b 599 524 636 508 621 524 b 561 486 575 524 561 508 z m 186 488 b 150 524 186 510 172 524 b 113 488 128 524 113 510 b 149 449 113 464 126 449 b 186 485 171 449 186 463 z m 261 486 b 224 524 261 508 246 524 b 186 486 200 524 186 508 b 224 449 186 463 201 449 b 261 486 247 449 261 464 z m 113 486 b 75 524 113 508 97 524 b 38 486 51 524 38 508 b 75 449 38 463 53 449 b 113 486 99 449 113 464 z m 336 486 b 299 524 336 508 321 524 b 261 486 275 524 261 508 b 299 449 261 463 276 449 b 336 486 322 449 336 464 z m 411 486 b 374 524 411 508 396 524 b 336 486 350 524 336 508 b 374 449 336 463 351 449 b 411 486 397 449 411 464 z m 486 486 b 449 524 486 508 471 524 b 411 486 425 524 411 508 b 449 449 411 463 426 449 b 486 486 472 449 486 464 z m 486 486 b 524 449 486 463 501 449 b 561 486 547 449 561 464 b 524 524 561 508 546 524 b 486 486 500 524 486 508 z m 261 411 b 224 449 261 433 246 449 b 186 411 200 449 186 433 b 224 374 186 388 201 374 b 261 411 247 374 261 389 z m 336 411 b 299 449 336 433 321 449 b 261 411 275 449 261 433 b 299 374 261 388 276 374 b 336 411 322 374 336 389 z m 411 411 b 374 449 411 433 396 449 b 336 411 350 449 336 433 b 374 374 336 388 351 374 b 411 411 397 374 411 389 z m 486 411 b 449 449 486 433 471 449 b 411 411 425 449 411 433 b 449 374 411 388 426 374 b 486 411 472 374 486 389 z m 561 411 b 524 449 561 433 546 449 b 486 411 500 449 486 433 b 524 374 486 388 501 374 b 561 411 547 374 561 389 z m 186 413 b 150 449 186 435 172 449 b 113 413 128 449 113 435 b 149 374 113 389 126 374 b 186 410 171 374 186 388 z m 636 411 b 599 449 636 433 621 449 b 561 411 575 449 561 433 b 599 374 561 388 576 374 b 636 411 622 374 636 389 z m 113 411 b 75 449 113 433 97 449 b 38 411 51 449 38 433 b 75 374 38 388 53 374 b 113 411 99 374 113 389 z m 113 336 b 150 299 113 313 128 299 b 188 336 174 299 188 314 b 150 374 188 358 172 374 b 113 336 126 374 113 358 z m 38 336 b 75 299 38 313 53 299 b 113 336 99 299 113 314 b 75 374 113 358 97 374 b 38 336 51 374 38 358 z m 113 263 b 76 299 113 285 99 299 b 38 263 53 299 38 285 b 74 225 38 240 51 225 b 113 261 97 225 113 239 z m 188 263 b 151 299 188 285 174 299 b 113 263 128 299 113 285 b 149 225 113 240 126 225 b 188 261 172 225 188 239 z m 113 188 b 150 150 113 164 128 150 b 188 188 174 150 188 165 b 150 225 188 210 172 225 b 113 188 126 225 113 210 z m 38 188 b 75 150 38 164 53 150 b 113 188 99 150 113 165 b 75 225 113 210 97 225 b 38 188 51 225 38 210 z m 113 113 b 150 75 113 89 128 75 b 188 113 174 75 188 90 b 150 150 188 135 172 150 b 113 113 126 150 113 135 z m 38 113 b 75 75 38 89 53 75 b 113 113 99 75 113 90 b 75 150 113 135 97 150 b 38 113 51 150 38 135 z m 113 38 b 150 0 113 15 128 0 b 188 38 174 0 188 15 b 150 75 188 61 172 75 b 113 38 126 75 113 60 z m 38 38 b 75 0 38 15 53 0 b 113 38 99 0 113 15 b 75 75 113 61 97 75 b 38 38 51 75 38 60 z "},"f":{"ha":524,"x_min":0,"x_max":0,"o":"m 338 935 b 375 897 338 913 351 897 b 413 935 397 897 413 911 b 375 972 413 957 399 972 b 338 935 353 972 338 957 z m 263 935 b 300 897 263 913 276 897 b 338 935 322 897 338 911 b 300 972 338 957 324 972 b 263 935 278 972 263 957 z m 188 935 b 225 897 188 913 201 897 b 263 935 247 897 263 911 b 225 972 263 957 249 972 b 188 935 203 972 188 957 z m 413 858 b 450 822 413 836 428 822 b 486 861 472 822 486 838 b 449 897 486 883 471 897 b 413 861 426 897 413 883 z m 338 860 b 375 822 338 838 351 822 b 413 860 397 822 413 836 b 375 897 413 882 399 897 b 338 860 353 897 338 882 z m 188 860 b 150 897 188 882 174 897 b 113 860 128 897 113 883 b 150 822 113 838 126 822 b 188 860 172 822 188 838 z m 263 860 b 300 822 263 838 276 822 b 338 860 322 822 338 836 b 300 897 338 882 324 897 b 263 860 278 897 263 882 z m 263 860 b 225 897 263 882 249 897 b 188 860 203 897 188 883 b 225 822 188 838 201 822 b 263 860 247 822 263 838 z m 339 783 b 376 747 339 761 354 747 b 413 786 399 747 413 763 b 375 822 413 808 397 822 b 339 786 353 822 339 808 z m 413 783 b 450 747 413 761 428 747 b 486 786 472 747 486 763 b 449 822 486 808 471 822 b 413 786 426 822 413 808 z m 188 785 b 150 822 188 807 174 822 b 113 785 128 822 113 808 b 150 747 113 763 126 747 b 188 785 172 747 188 763 z m 263 785 b 225 822 263 807 249 822 b 188 785 203 822 188 808 b 225 747 188 763 201 747 b 263 785 247 747 263 763 z m 263 711 b 224 747 263 733 247 747 b 188 710 201 747 188 732 b 226 674 188 688 203 674 b 263 710 249 674 263 688 z m 188 711 b 149 747 188 733 172 747 b 113 710 126 747 113 732 b 151 674 113 688 128 674 b 188 710 174 674 188 688 z m 263 636 b 300 599 263 614 276 599 b 338 636 322 599 338 614 b 300 674 338 658 324 674 b 263 636 278 674 263 660 z m 413 635 b 450 599 413 613 428 599 b 486 638 472 599 486 614 b 449 674 486 660 471 674 b 413 638 426 674 413 660 z m 338 636 b 375 599 338 614 351 599 b 413 636 397 599 413 614 b 375 674 413 658 399 674 b 338 636 353 674 338 660 z m 113 636 b 150 599 113 614 126 599 b 188 636 172 599 188 614 b 150 674 188 658 174 674 b 113 636 128 674 113 660 z m 38 636 b 75 599 38 614 51 599 b 113 636 97 599 113 614 b 75 674 113 658 99 674 b 38 636 53 674 38 660 z m 188 636 b 225 599 188 614 201 599 b 263 636 247 599 263 614 b 225 674 263 658 249 674 b 188 636 203 674 188 660 z m 113 561 b 75 599 113 583 99 599 b 38 561 53 599 38 585 b 75 524 38 539 51 524 b 113 561 97 524 113 539 z m 413 560 b 450 524 413 538 428 524 b 486 563 472 524 486 539 b 449 599 486 585 471 599 b 413 563 426 599 413 585 z m 188 561 b 225 524 188 539 201 524 b 263 561 247 524 263 539 b 225 599 263 583 249 599 b 188 561 203 599 188 585 z m 338 561 b 375 524 338 539 351 524 b 413 561 397 524 413 539 b 375 599 413 583 399 599 b 338 561 353 599 338 585 z m 263 561 b 300 524 263 539 276 524 b 338 561 322 524 338 539 b 300 599 338 583 324 599 b 263 561 278 599 263 585 z m 113 561 b 150 524 113 539 126 524 b 188 561 172 524 188 539 b 150 599 188 583 174 599 b 113 561 128 599 113 585 z m 263 486 b 300 449 263 464 276 449 b 338 486 322 449 338 464 b 300 524 338 508 324 524 b 263 486 278 524 263 510 z m 188 486 b 225 449 188 464 201 449 b 263 486 247 449 263 464 b 225 524 263 508 249 524 b 188 486 203 524 188 510 z m 263 411 b 225 449 263 433 249 449 b 188 411 203 449 188 435 b 225 374 188 389 201 374 b 263 411 247 374 263 389 z m 338 411 b 300 449 338 433 324 449 b 263 411 278 449 263 435 b 300 374 263 389 276 374 b 338 411 322 374 338 389 z m 263 336 b 300 299 263 314 276 299 b 338 336 322 299 338 314 b 300 374 338 358 324 374 b 263 336 278 374 263 360 z m 188 336 b 225 299 188 314 201 299 b 263 336 247 299 263 314 b 225 374 263 358 249 374 b 188 336 203 374 188 360 z m 338 263 b 299 299 338 285 322 299 b 263 261 276 299 263 283 b 301 225 263 239 278 225 b 338 261 324 225 338 239 z m 263 263 b 224 299 263 285 247 299 b 188 261 201 299 188 283 b 226 225 188 239 203 225 b 263 261 249 225 263 239 z m 263 188 b 300 150 263 165 276 150 b 338 188 322 150 338 165 b 300 225 338 210 324 225 b 263 188 278 225 263 211 z m 188 188 b 225 150 188 165 201 150 b 263 188 247 150 263 165 b 225 225 263 210 249 225 b 188 188 203 225 188 211 z m 263 113 b 300 75 263 90 276 75 b 338 113 322 75 338 90 b 300 150 338 135 324 150 b 263 113 278 150 263 136 z m 188 113 b 225 75 188 90 201 75 b 263 113 247 75 263 90 b 225 150 263 135 249 150 b 188 113 203 150 188 136 z m 263 38 b 300 0 263 15 276 0 b 338 38 322 0 338 14 b 300 75 338 60 324 75 b 263 38 278 75 263 60 z m 188 38 b 225 0 188 15 201 0 b 263 38 247 0 263 14 b 225 75 263 60 249 75 b 188 38 203 75 188 60 z "},"G":{"ha":896,"x_min":0,"x_max":0,"o":"m 263 935 b 300 897 263 913 276 897 b 336 926 319 897 333 908 b 374 897 340 908 353 897 b 411 935 396 897 411 911 b 374 972 411 957 397 972 b 338 943 354 972 340 961 b 300 972 333 961 321 972 b 263 935 278 972 263 957 z m 263 935 b 225 972 263 957 249 972 b 188 935 203 972 188 958 b 225 897 188 913 201 897 b 263 935 247 897 263 913 z m 411 933 b 449 897 411 911 426 897 b 485 936 471 897 485 913 b 447 972 485 958 469 972 b 411 936 425 972 411 958 z m 485 935 b 522 897 485 913 499 897 b 560 935 544 897 560 911 b 522 972 560 957 546 972 b 485 935 500 972 485 957 z m 560 935 b 597 897 560 913 574 897 b 635 935 619 897 635 911 b 597 972 635 957 621 972 b 560 935 575 972 560 957 z m 710 935 b 672 972 710 957 696 972 b 635 935 650 972 635 958 b 672 897 635 913 649 897 b 710 935 694 897 710 913 z m 263 860 b 300 822 263 838 276 822 b 336 851 319 822 333 833 b 374 822 340 833 353 822 b 411 860 396 822 411 836 b 374 897 411 882 397 897 b 338 868 354 897 340 886 b 300 897 333 886 321 897 b 263 860 278 897 263 882 z m 188 860 b 150 897 188 882 174 897 b 113 860 128 897 113 883 b 150 822 113 838 126 822 b 188 860 172 822 188 838 z m 560 860 b 597 822 560 838 574 822 b 635 860 619 822 635 836 b 597 897 635 882 621 897 b 560 860 575 897 560 882 z m 485 860 b 522 822 485 838 499 822 b 560 860 544 822 560 836 b 522 897 560 882 546 897 b 485 860 500 897 485 882 z m 411 858 b 449 822 411 836 426 822 b 485 861 471 822 485 838 b 447 897 485 883 469 897 b 411 861 425 897 411 883 z m 710 860 b 672 897 710 882 696 897 b 635 860 650 897 635 883 b 672 822 635 838 649 822 b 710 860 694 822 710 838 z m 263 860 b 225 897 263 882 249 897 b 188 860 203 897 188 883 b 225 822 188 838 201 822 b 263 860 247 822 263 838 z m 783 861 b 746 897 783 883 768 897 b 710 858 724 897 710 882 b 747 822 710 836 725 822 b 783 858 769 822 783 836 z m 113 786 b 74 822 113 808 97 822 b 38 785 51 822 38 807 b 76 749 38 763 53 749 b 113 785 99 749 113 763 z m 263 785 b 225 822 263 807 249 822 b 188 785 203 822 188 808 b 225 747 188 763 201 747 b 263 785 247 747 263 763 z m 710 785 b 749 749 710 763 725 749 b 783 778 768 749 781 760 b 822 749 788 760 801 749 b 858 786 844 749 858 764 b 819 822 858 808 843 822 b 783 794 800 822 788 811 b 746 822 781 811 767 822 b 710 786 724 822 710 808 b 672 822 710 808 694 822 b 636 783 650 822 636 807 b 674 747 636 761 651 747 b 710 783 696 747 710 761 z m 188 786 b 149 822 188 808 172 822 b 113 785 126 822 113 807 b 151 749 113 763 128 749 b 188 785 174 749 188 763 z m 113 711 b 75 749 113 733 99 749 b 38 711 53 749 38 735 b 75 674 38 689 51 674 b 113 711 97 674 113 689 z m 710 711 b 747 674 710 689 724 674 b 783 703 767 674 781 685 b 821 674 788 685 800 674 b 858 711 843 674 858 688 b 821 749 858 733 844 749 b 785 719 801 749 788 738 b 747 749 781 738 768 749 b 710 711 725 749 710 733 z m 188 711 b 150 749 188 733 174 749 b 113 711 128 749 113 735 b 150 674 113 689 126 674 b 188 711 172 674 188 689 z m 113 636 b 75 674 113 658 99 674 b 38 636 53 674 38 660 b 75 599 38 614 51 599 b 113 636 97 599 113 614 z m 710 636 b 747 599 710 614 724 599 b 783 628 767 599 781 610 b 821 599 788 610 800 599 b 858 636 843 599 858 613 b 821 674 858 658 844 674 b 785 644 801 674 788 663 b 747 674 781 663 768 674 b 710 636 725 674 710 658 z m 188 636 b 150 674 188 658 174 674 b 113 636 128 674 113 660 b 150 599 113 614 126 599 b 188 636 172 599 188 614 z m 113 561 b 75 599 113 583 99 599 b 38 561 53 599 38 585 b 75 524 38 539 51 524 b 113 561 97 524 113 539 z m 188 561 b 150 599 188 583 174 599 b 113 561 128 599 113 585 b 150 524 113 539 126 524 b 188 561 172 524 188 539 z m 783 488 b 746 524 783 510 768 524 b 710 485 724 524 710 508 b 747 449 710 463 725 449 b 783 485 769 449 783 463 z m 635 486 b 672 449 635 464 649 449 b 710 486 694 449 710 464 b 672 524 710 508 696 524 b 635 486 650 524 635 510 z m 783 486 b 821 449 783 464 797 449 b 858 486 843 449 858 463 b 821 524 858 508 844 524 b 783 486 799 524 783 508 z m 560 486 b 522 524 560 508 546 524 b 485 486 500 524 485 510 b 522 449 485 464 499 449 b 560 486 544 449 560 464 z m 560 486 b 597 449 560 464 574 449 b 635 486 619 449 635 464 b 597 524 635 508 621 524 b 560 486 575 524 560 510 z m 113 486 b 150 449 113 464 126 449 b 188 486 172 449 188 464 b 150 524 188 508 174 524 b 113 486 128 524 113 510 z m 38 486 b 75 449 38 464 51 449 b 113 486 97 449 113 464 b 75 524 113 508 99 524 b 38 486 53 524 38 510 z m 113 411 b 150 374 113 389 126 374 b 188 411 172 374 188 389 b 150 449 188 433 174 449 b 113 411 128 449 113 435 z m 710 411 b 747 374 710 389 724 374 b 783 403 767 374 781 385 b 821 374 788 385 800 374 b 858 411 843 374 858 388 b 821 449 858 433 844 449 b 785 419 801 449 788 438 b 747 449 781 438 768 449 b 710 411 725 449 710 433 z m 560 411 b 522 449 560 433 546 449 b 485 411 500 449 485 435 b 522 374 485 389 499 374 b 560 411 544 374 560 389 z m 38 411 b 75 374 38 389 51 374 b 113 411 97 374 113 389 b 75 449 113 433 99 449 b 38 411 53 449 38 435 z m 635 411 b 672 374 635 389 649 374 b 710 411 694 374 710 389 b 672 449 710 433 696 449 b 635 411 650 449 635 435 z m 560 411 b 597 374 560 389 574 374 b 635 411 619 374 635 389 b 597 449 635 433 621 449 b 560 411 575 449 560 435 z m 710 336 b 672 374 710 358 696 374 b 635 336 650 374 635 360 b 672 299 635 314 649 299 b 710 336 694 299 710 314 z m 710 336 b 747 299 710 314 724 299 b 783 328 767 299 781 310 b 821 299 788 310 800 299 b 858 336 843 299 858 313 b 821 374 858 358 844 374 b 785 344 801 374 788 363 b 747 374 781 363 768 374 b 710 336 725 374 710 358 z m 113 336 b 150 299 113 314 126 299 b 188 336 172 299 188 314 b 150 374 188 358 174 374 b 113 336 128 374 113 360 z m 38 336 b 75 299 38 314 51 299 b 113 336 97 299 113 314 b 75 374 113 358 99 374 b 38 336 53 374 38 360 z m 710 261 b 749 225 710 239 725 225 b 783 254 768 225 781 236 b 822 225 788 236 801 225 b 858 263 844 225 858 240 b 819 299 858 285 843 299 b 783 271 800 299 788 288 b 746 299 781 288 767 299 b 710 263 724 299 710 285 z m 710 261 b 672 299 710 283 696 299 b 636 269 653 299 639 288 b 599 299 632 288 619 299 b 561 261 576 299 561 285 b 599 224 561 239 575 224 b 635 253 618 224 632 235 b 672 224 639 235 651 224 b 710 261 694 224 710 239 z m 113 261 b 75 299 113 283 99 299 b 38 261 53 299 38 285 b 75 224 38 239 51 224 b 113 261 97 224 113 239 z m 188 261 b 150 299 188 283 174 299 b 113 261 128 299 113 285 b 150 224 113 239 126 224 b 188 261 172 224 188 239 z m 263 188 b 225 225 263 210 249 225 b 188 188 203 225 188 211 b 225 150 188 165 201 150 b 263 188 247 150 263 165 z m 783 188 b 746 225 783 210 769 225 b 708 194 726 225 713 214 b 672 224 706 213 693 224 b 636 194 653 224 639 213 b 599 224 632 213 619 224 b 563 194 579 224 565 213 b 524 225 560 213 546 225 b 486 188 501 225 486 211 b 525 150 486 165 500 150 b 561 179 544 150 558 161 b 599 149 564 161 578 149 b 635 178 618 149 632 160 b 672 149 639 160 651 149 b 710 179 692 149 706 161 b 746 150 713 161 725 150 b 783 188 768 150 783 165 z m 783 188 b 821 150 783 165 797 150 b 858 188 843 150 858 164 b 821 225 858 210 844 225 b 783 188 799 225 783 210 z m 188 113 b 158 150 188 132 176 146 b 188 186 176 153 188 167 b 150 224 188 208 174 224 b 113 186 128 224 113 210 b 142 150 113 167 124 153 b 113 113 124 146 113 133 b 150 75 113 90 126 75 b 188 113 172 75 188 90 z m 113 186 b 75 224 113 208 99 224 b 38 186 53 224 38 210 b 75 149 38 164 51 149 b 113 186 97 149 113 164 z m 710 113 b 747 75 710 90 724 75 b 783 104 767 75 781 86 b 821 75 788 86 800 75 b 858 113 843 75 858 89 b 821 150 858 135 844 150 b 785 121 801 150 788 139 b 747 150 781 139 768 150 b 710 113 725 150 710 135 z m 263 113 b 300 75 263 90 276 75 b 336 104 319 75 333 86 b 374 75 340 86 353 75 b 411 113 396 75 411 89 b 374 150 411 135 397 150 b 338 121 354 150 340 139 b 300 150 333 139 321 150 b 263 113 278 150 263 135 z m 411 113 b 449 75 411 90 425 75 b 486 113 471 75 486 89 b 449 150 486 135 472 150 b 411 113 426 150 411 135 z m 636 111 b 599 149 636 133 622 149 b 563 119 579 149 565 138 b 524 150 560 138 546 150 b 486 113 501 150 486 136 b 525 75 486 90 500 75 b 561 104 544 75 558 86 b 599 74 564 86 578 74 b 636 111 621 74 636 89 z m 263 113 b 225 150 263 135 249 150 b 188 113 203 150 188 136 b 225 75 188 90 201 75 b 263 113 247 75 263 90 z m 263 38 b 300 0 263 15 276 0 b 336 29 319 0 333 11 b 374 0 340 11 353 0 b 411 38 396 0 411 14 b 374 75 411 60 397 75 b 338 46 354 75 340 64 b 300 75 333 64 321 75 b 263 38 278 75 263 60 z m 710 38 b 747 0 710 15 724 0 b 783 29 767 0 781 11 b 821 0 788 11 800 0 b 858 38 843 0 858 14 b 821 75 858 60 844 75 b 785 46 801 75 788 64 b 747 75 781 64 768 75 b 710 38 725 75 710 60 z m 263 38 b 225 75 263 60 249 75 b 188 38 203 75 188 61 b 225 0 188 15 201 0 b 263 38 247 0 263 15 z m 411 38 b 449 0 411 15 425 0 b 486 38 471 0 486 14 b 449 75 486 60 472 75 b 411 38 426 75 411 60 z m 486 38 b 524 0 486 15 500 0 b 561 38 546 0 561 14 b 524 75 561 60 547 75 b 486 38 501 75 486 60 z "},"g":{"ha":751,"x_min":0,"x_max":0,"o":"m 638 710 b 675 672 638 688 651 672 b 713 710 697 672 713 686 b 675 747 713 732 699 747 b 638 710 653 747 638 732 z m 638 710 b 599 747 638 732 624 747 b 561 710 576 747 561 733 b 600 672 561 688 575 672 b 638 710 622 672 638 688 z m 339 710 b 301 747 339 732 325 747 b 264 710 279 747 264 733 b 301 672 264 688 278 672 b 339 710 324 672 339 688 z m 413 711 b 375 747 413 733 397 747 b 339 708 353 747 339 732 b 376 672 339 686 354 672 b 413 708 399 672 413 686 z m 561 711 b 524 747 561 733 546 747 b 488 708 501 747 488 732 b 525 672 488 686 503 672 b 561 708 547 672 561 686 z m 488 710 b 450 747 488 732 474 747 b 413 710 428 747 413 733 b 450 672 413 688 426 672 b 488 710 472 672 488 688 z m 264 635 b 301 597 264 613 278 597 b 339 635 324 597 339 613 b 301 672 339 657 325 672 b 264 635 279 672 264 658 z m 638 635 b 675 597 638 613 651 597 b 713 635 697 597 713 611 b 675 672 713 657 699 672 b 638 635 653 672 638 657 z m 638 635 b 599 672 638 657 624 672 b 561 635 576 672 561 658 b 600 597 561 613 575 597 b 638 635 622 597 638 613 z m 339 635 b 376 597 339 613 353 597 b 414 635 399 597 414 613 b 376 672 414 657 400 672 b 339 635 354 672 339 658 z m 189 635 b 226 597 189 613 203 597 b 264 635 249 597 264 613 b 226 672 264 657 250 672 b 189 635 204 672 189 658 z m 488 636 b 450 672 488 658 472 672 b 414 633 428 672 414 657 b 451 597 414 611 429 597 b 488 633 474 597 488 611 z m 561 636 b 524 672 561 658 546 672 b 488 633 501 672 488 657 b 525 597 488 611 503 597 b 561 633 547 597 561 611 z m 264 561 b 224 597 264 583 249 597 b 189 568 204 597 192 586 b 149 597 185 586 171 597 b 113 560 126 597 113 582 b 153 524 113 538 128 524 b 189 551 172 524 185 535 b 228 524 192 535 206 524 b 264 560 250 524 264 538 z m 488 561 b 447 597 488 583 472 597 b 411 560 425 597 411 582 b 451 524 411 538 426 524 b 488 560 474 524 488 538 z m 340 561 b 300 597 340 583 325 597 b 264 560 278 597 264 582 b 304 524 264 538 279 524 b 340 560 326 524 340 538 z m 564 561 b 524 597 564 583 549 597 b 488 560 501 597 488 582 b 528 524 488 538 503 524 b 564 560 550 524 564 538 z m 638 486 b 599 524 638 508 624 524 b 563 497 581 524 567 514 b 525 524 558 514 546 524 b 488 486 503 524 488 510 b 526 449 488 464 501 449 b 563 475 544 449 558 458 b 600 449 567 458 579 449 b 638 486 622 449 638 464 z m 264 486 b 225 524 264 508 250 524 b 189 494 206 524 192 513 b 150 524 185 513 172 524 b 113 486 128 524 113 510 b 151 449 113 464 126 449 b 188 478 171 449 185 460 b 226 449 192 460 204 449 b 264 486 249 449 264 464 z m 638 411 b 599 449 638 433 624 449 b 563 422 581 449 567 439 b 525 449 558 439 546 449 b 488 411 503 449 488 435 b 526 374 488 389 501 374 b 563 400 544 374 558 383 b 600 374 567 383 579 374 b 638 411 622 374 638 389 z m 264 411 b 225 449 264 433 250 449 b 189 419 206 449 192 438 b 150 449 185 438 172 449 b 113 411 128 449 113 435 b 151 374 113 389 126 374 b 188 403 171 374 185 385 b 226 374 192 385 204 374 b 264 411 249 374 264 389 z m 488 411 b 447 447 488 433 472 447 b 411 410 425 447 411 432 b 451 374 411 388 426 374 b 488 410 474 374 488 388 z m 340 411 b 300 447 340 433 325 447 b 264 410 278 447 264 432 b 304 374 264 388 279 374 b 340 410 326 374 340 388 z m 561 338 b 524 374 561 360 546 374 b 488 333 501 374 488 358 b 525 297 488 311 503 297 b 561 333 547 297 561 311 z m 339 336 b 376 299 339 314 353 299 b 414 336 399 299 414 314 b 376 374 414 358 400 374 b 339 336 354 374 339 360 z m 488 338 b 450 374 488 360 472 374 b 414 333 428 374 414 358 b 451 297 414 311 429 297 b 488 333 474 297 488 311 z m 264 335 b 301 297 264 313 278 297 b 339 335 324 297 339 313 l 339 336 b 301 374 339 358 325 374 b 264 335 279 374 264 360 z m 264 336 b 226 374 264 358 250 374 b 189 335 204 374 189 360 b 226 297 189 313 203 297 b 264 335 249 297 264 313 z m 413 263 b 375 299 413 285 397 299 b 339 260 353 299 339 283 b 376 224 339 238 354 224 b 413 260 399 224 413 238 z m 339 261 b 300 297 339 283 324 297 b 264 260 278 297 264 282 b 303 224 264 238 279 224 b 339 260 325 224 339 238 z m 488 261 b 449 297 488 283 472 297 b 413 260 426 297 413 282 b 451 224 413 238 428 224 b 488 260 474 224 488 238 z m 264 186 b 226 224 264 208 250 224 b 189 186 204 224 189 210 b 226 149 189 164 203 149 b 264 186 249 149 264 164 z m 413 188 b 375 224 413 210 397 224 b 339 185 353 224 339 208 b 376 149 339 163 354 149 b 413 185 399 149 413 163 z m 339 186 b 301 224 339 208 325 224 b 264 186 279 224 264 210 b 301 149 264 164 278 149 b 339 186 324 149 339 164 z m 264 38 b 301 0 264 15 278 0 b 339 38 324 0 339 15 b 310 75 339 57 328 71 b 339 111 328 78 339 92 b 301 149 339 133 325 149 b 264 111 279 149 264 135 b 293 75 264 92 275 78 b 264 38 275 71 264 58 z m 264 113 b 224 149 264 135 249 149 b 189 119 204 149 192 138 b 150 149 185 138 171 149 b 114 111 128 149 114 133 b 153 75 114 89 129 75 b 189 103 172 75 185 86 b 228 75 192 86 206 75 b 264 111 250 75 264 89 z m 413 39 b 375 75 413 61 397 75 b 339 36 353 75 339 60 b 376 0 339 14 354 0 b 413 36 399 0 413 14 z m 488 38 b 450 75 488 60 474 75 b 413 38 428 75 413 61 b 450 0 413 15 426 0 b 488 38 472 0 488 15 z m 561 39 b 524 75 561 61 546 75 b 488 36 501 75 488 60 b 525 0 488 14 503 0 b 561 36 547 0 561 14 z m 189 38 b 226 0 189 15 203 0 b 264 38 249 0 264 15 b 226 75 264 60 250 75 b 189 38 204 75 189 61 z m 114 38 b 151 0 114 15 128 0 b 189 38 174 0 189 15 b 151 75 189 60 175 75 b 114 38 129 75 114 61 z m 635 39 b 597 75 635 61 619 75 b 561 36 575 75 561 60 b 599 0 561 14 576 0 b 635 36 621 0 635 14 z m 189 -37 b 226 -75 189 -60 203 -75 b 264 -37 249 -75 264 -60 b 226 0 264 -15 250 0 b 189 -37 204 0 189 -14 z m 638 -37 b 599 0 638 -15 624 0 b 561 -37 576 0 561 -14 b 600 -75 561 -60 575 -75 b 638 -37 622 -75 638 -60 z m 264 -37 b 301 -75 264 -60 278 -75 b 339 -37 324 -75 339 -60 b 301 0 339 -15 325 0 b 264 -37 279 0 264 -14 z m 413 -36 b 375 0 413 -14 397 0 b 339 -39 353 0 339 -15 b 376 -75 339 -61 354 -75 b 413 -39 399 -75 413 -61 z m 488 -37 b 450 0 488 -15 474 0 b 413 -37 428 0 413 -14 b 450 -75 413 -60 426 -75 b 488 -37 472 -75 488 -60 z m 561 -36 b 524 0 561 -14 546 0 b 488 -39 501 0 488 -15 b 525 -75 488 -61 503 -75 b 561 -39 547 -75 561 -61 z m 113 -37 b 151 -75 113 -60 126 -75 b 189 -37 174 -75 189 -60 b 150 0 189 -15 175 0 b 113 -37 128 0 113 -14 z m 714 -37 b 675 0 714 -15 700 0 b 638 -37 653 0 638 -14 b 676 -75 638 -60 651 -75 b 714 -37 699 -75 714 -60 z m 38 -37 b 75 -75 38 -60 51 -75 b 113 -37 97 -75 113 -60 b 75 0 113 -15 99 0 b 38 -37 53 0 38 -14 z m 638 -112 b 675 -150 638 -135 651 -150 b 713 -112 697 -150 713 -136 b 675 -75 713 -90 699 -75 b 638 -112 653 -75 638 -90 z m 113 -112 b 75 -75 113 -90 99 -75 b 38 -112 53 -75 38 -89 b 75 -150 38 -135 51 -150 b 113 -112 97 -150 113 -135 z m 638 -112 b 599 -75 638 -90 624 -75 b 561 -112 576 -75 561 -89 b 600 -150 561 -135 575 -150 b 638 -112 622 -150 638 -135 z m 189 -112 b 150 -75 189 -90 175 -75 b 113 -112 128 -75 113 -89 b 151 -150 113 -135 126 -150 b 189 -112 174 -150 189 -135 z m 488 -187 b 525 -224 488 -210 503 -224 b 561 -185 547 -224 561 -208 b 524 -149 561 -162 546 -149 b 488 -185 501 -149 488 -162 z m 413 -186 b 450 -224 413 -208 426 -224 b 488 -186 472 -224 488 -210 b 450 -149 488 -164 474 -149 b 413 -186 428 -149 413 -164 z m 339 -187 b 376 -224 339 -210 354 -224 b 413 -185 399 -224 413 -208 b 375 -149 413 -162 397 -149 b 339 -185 353 -149 339 -162 z m 264 -186 b 301 -224 264 -208 278 -224 b 339 -186 324 -224 339 -210 b 301 -149 339 -164 325 -149 b 264 -186 279 -149 264 -164 z m 189 -186 b 226 -224 189 -208 203 -224 b 264 -186 249 -224 264 -210 b 226 -149 264 -164 250 -149 b 189 -186 204 -149 189 -164 z m 189 -186 b 149 -150 189 -164 174 -150 b 113 -187 126 -150 113 -165 b 153 -224 113 -210 128 -224 b 189 -187 175 -224 189 -210 z m 113 -186 b 74 -150 113 -164 97 -150 b 38 -187 51 -150 38 -165 b 76 -224 38 -210 53 -224 b 113 -187 99 -224 113 -210 z m 714 -186 b 674 -150 714 -164 699 -150 b 638 -187 651 -150 638 -165 b 678 -224 638 -210 653 -224 b 714 -187 700 -224 714 -210 z m 638 -186 b 597 -150 638 -164 622 -150 b 561 -187 575 -150 561 -165 b 601 -224 561 -210 576 -224 b 638 -187 624 -224 638 -210 z m 413 -261 b 450 -299 413 -283 426 -299 b 488 -261 472 -299 488 -285 b 450 -224 488 -239 474 -224 b 413 -261 428 -224 413 -239 z m 488 -262 b 525 -299 488 -285 503 -299 b 561 -260 547 -299 561 -283 b 524 -224 561 -237 546 -224 b 488 -260 501 -224 488 -237 z m 264 -261 b 301 -299 264 -283 278 -299 b 339 -261 324 -299 339 -285 b 301 -224 339 -239 325 -224 b 264 -261 279 -224 264 -239 z m 189 -261 b 226 -299 189 -283 203 -299 b 264 -261 249 -299 264 -285 b 226 -224 264 -239 250 -224 b 189 -261 204 -224 189 -239 z m 638 -260 b 597 -224 638 -237 622 -224 b 561 -261 575 -224 561 -239 b 601 -297 561 -283 576 -297 b 638 -261 624 -297 638 -283 z m 189 -260 b 149 -224 189 -237 174 -224 b 113 -261 126 -224 113 -239 b 153 -297 113 -283 128 -297 b 189 -261 175 -297 189 -283 z m 339 -262 b 376 -299 339 -285 354 -299 b 413 -260 399 -299 413 -283 b 375 -224 413 -237 397 -224 b 339 -260 353 -224 339 -237 z "},"H":{"ha":747,"x_min":0,"x_max":0,"o":"m 38 933 b 74 897 38 911 51 897 b 111 933 96 897 111 911 b 75 972 111 957 97 972 b 38 936 53 972 38 958 z m 635 935 b 672 897 635 913 650 897 b 710 935 696 897 710 913 b 672 972 710 958 694 972 b 635 935 649 972 635 957 z m 111 933 b 147 897 111 911 125 897 b 185 933 169 897 185 911 b 149 972 185 957 171 972 b 111 936 126 972 111 958 z m 560 935 b 597 897 560 913 575 897 b 635 935 621 897 635 913 b 597 972 635 958 619 972 b 560 935 574 972 560 957 z m 635 860 b 597 897 635 883 619 897 b 560 860 574 897 560 882 b 597 822 560 838 575 822 b 635 860 621 822 635 838 z m 111 861 b 75 897 111 883 97 897 b 38 861 53 897 38 883 b 74 822 38 838 51 822 b 111 858 96 822 111 836 z m 635 860 b 672 822 635 838 650 822 b 710 860 696 822 710 838 b 672 897 710 883 694 897 b 635 860 649 897 635 882 z m 185 861 b 149 897 185 883 171 897 b 111 861 126 897 111 883 b 147 822 111 838 125 822 b 185 858 169 822 185 836 z m 635 785 b 597 822 635 808 619 822 b 560 785 574 822 560 807 b 597 747 560 763 575 747 b 635 785 621 747 635 763 z m 111 786 b 75 822 111 808 97 822 b 38 786 53 822 38 808 b 74 747 38 763 51 747 b 111 783 96 747 111 761 z m 635 785 b 672 747 635 763 650 747 b 710 785 696 747 710 763 b 672 822 710 808 694 822 b 635 785 649 822 635 807 z m 185 786 b 149 822 185 808 171 822 b 111 786 126 822 111 808 b 147 747 111 763 125 747 b 185 783 169 747 185 761 z m 635 710 b 599 747 635 732 621 747 b 560 711 575 747 560 733 l 560 710 b 596 674 560 688 574 674 b 635 710 619 674 635 688 z m 111 711 b 75 747 111 733 97 747 b 38 711 51 747 38 733 b 74 674 38 689 51 674 b 111 710 96 674 111 688 z m 635 710 b 671 674 635 688 649 674 b 710 710 694 674 710 688 b 674 747 710 732 696 747 b 635 711 650 747 635 733 z m 185 711 b 149 747 185 733 171 747 b 111 711 125 747 111 733 b 147 674 111 689 125 674 b 185 710 169 674 185 688 z m 111 638 b 75 674 111 660 97 674 b 38 638 53 674 38 660 b 74 599 38 614 51 599 b 111 635 96 599 111 613 z m 635 636 b 597 674 635 660 619 674 b 560 636 574 674 560 658 b 597 599 560 614 575 599 b 635 636 621 599 635 614 z m 635 636 b 672 599 635 614 650 599 b 710 636 696 599 710 614 b 672 674 710 660 694 674 b 635 636 649 674 635 658 z m 185 638 b 149 674 185 660 171 674 b 111 638 126 674 111 660 b 147 599 111 614 125 599 b 185 635 169 599 185 613 z m 111 563 b 75 599 111 585 97 599 b 38 563 53 599 38 585 b 74 524 38 539 51 524 b 111 560 96 524 111 538 z m 635 561 b 597 599 635 585 619 599 b 560 561 574 599 560 583 b 597 524 560 539 575 524 b 635 561 621 524 635 539 z m 635 561 b 672 524 635 539 650 524 b 710 561 696 524 710 539 b 672 599 710 585 694 599 b 635 561 649 599 635 583 z m 185 563 b 149 599 185 585 171 599 b 111 563 126 599 111 585 b 147 524 111 539 125 524 b 185 560 169 524 185 538 z m 111 488 b 75 524 111 510 97 524 b 38 488 53 524 38 510 b 74 449 38 464 51 449 b 111 485 96 449 111 463 z m 186 486 b 149 524 186 508 171 524 b 111 486 125 524 111 508 b 149 449 111 463 126 449 b 186 486 172 449 186 464 z m 261 486 b 224 524 261 508 246 524 b 186 486 200 524 186 508 b 224 449 186 463 201 449 b 261 486 247 449 261 464 z m 336 486 b 299 524 336 508 321 524 b 261 486 275 524 261 508 b 299 449 261 463 276 449 b 336 486 322 449 336 464 z m 411 486 b 449 449 411 463 426 449 b 486 486 472 449 486 464 b 449 524 486 508 471 524 b 411 486 425 524 411 508 z m 486 486 b 524 449 486 463 501 449 b 561 486 547 449 561 464 b 524 524 561 508 546 524 b 486 486 500 524 486 508 z m 635 488 b 599 524 635 510 621 524 b 561 488 576 524 561 510 b 597 449 561 464 575 449 b 635 485 619 449 635 463 z m 635 486 b 672 449 635 464 650 449 b 710 486 696 449 710 464 b 672 524 710 510 694 524 b 635 486 649 524 635 508 z m 336 486 b 374 449 336 463 351 449 b 411 486 397 449 411 464 b 374 524 411 508 396 524 b 336 486 350 524 336 508 z m 635 411 b 597 449 635 435 619 449 b 560 419 576 449 564 438 b 524 449 557 438 543 449 b 486 411 500 449 486 433 b 524 374 486 388 501 374 b 561 403 544 374 557 385 b 597 374 564 385 578 374 b 635 411 621 374 635 389 z m 635 411 b 672 374 635 389 650 374 b 710 411 696 374 710 389 b 672 449 710 435 694 449 b 635 411 649 449 635 433 z m 186 411 b 149 449 186 433 171 449 b 111 411 125 449 111 433 b 149 374 111 388 126 374 b 186 411 172 374 186 389 z m 111 413 b 75 449 111 435 97 449 b 38 413 53 449 38 435 b 74 374 38 389 51 374 b 111 410 96 374 111 388 z m 261 411 b 224 449 261 433 246 449 b 186 411 200 449 186 433 b 224 374 186 388 201 374 b 261 411 247 374 261 389 z m 336 411 b 299 449 336 433 321 449 b 261 411 275 449 261 433 b 299 374 261 388 276 374 b 336 411 322 374 336 389 z m 411 411 b 374 449 411 433 396 449 b 336 411 350 449 336 433 b 374 374 336 388 351 374 b 411 411 397 374 411 389 z m 486 411 b 449 449 486 433 471 449 b 411 411 425 449 411 433 b 449 374 411 388 426 374 b 486 411 472 374 486 389 z m 635 336 b 672 299 635 314 650 299 b 710 336 696 299 710 314 b 672 374 710 360 694 374 b 635 336 649 374 635 358 z m 111 338 b 147 299 111 314 125 299 b 185 335 169 299 185 313 l 185 338 b 149 374 185 360 171 374 b 111 338 126 374 111 360 z m 74 299 b 111 335 96 299 111 313 l 111 338 b 75 374 111 360 97 374 b 38 338 53 374 38 360 b 74 299 38 314 51 299 z m 560 336 b 597 299 560 314 575 299 b 635 336 621 299 635 314 b 597 374 635 360 619 374 b 560 336 574 374 560 358 z m 635 261 b 671 225 635 239 649 225 b 710 261 694 225 710 239 b 674 299 710 283 696 299 b 635 263 650 299 635 285 z m 111 263 b 147 225 111 240 125 225 b 185 261 169 225 185 239 l 185 263 b 149 299 185 285 171 299 b 111 263 125 299 111 285 z m 74 225 b 111 261 96 225 111 239 l 111 263 b 75 299 111 285 97 299 b 38 263 51 299 38 285 b 74 225 38 240 51 225 z m 560 261 b 596 225 560 239 574 225 b 635 261 619 225 635 239 b 599 299 635 283 621 299 b 560 263 575 299 560 285 z m 635 188 b 672 150 635 165 650 150 b 710 188 696 150 710 165 b 672 225 710 211 694 225 b 635 188 649 225 635 210 z m 111 189 b 147 150 111 165 125 150 b 185 186 169 150 185 164 l 185 189 b 149 225 185 211 171 225 b 111 189 126 225 111 211 z m 74 150 b 111 186 96 150 111 164 l 111 189 b 75 225 111 211 97 225 b 38 189 53 225 38 211 b 74 150 38 165 51 150 z m 560 188 b 597 150 560 165 575 150 b 635 188 621 150 635 165 b 597 225 635 211 619 225 b 560 188 574 225 560 210 z m 111 114 b 147 75 111 90 125 75 b 185 111 169 75 185 89 l 185 114 b 149 150 185 136 171 150 b 111 114 126 150 111 136 z m 74 75 b 111 111 96 75 111 89 l 111 114 b 75 150 111 136 97 150 b 38 114 53 150 38 136 b 74 75 38 90 51 75 z m 635 113 b 597 150 635 136 619 150 b 560 113 574 150 560 135 b 597 75 560 90 575 75 b 635 113 621 75 635 90 z m 635 113 b 672 75 635 90 650 75 b 710 113 696 75 710 90 b 672 150 710 136 694 150 b 635 113 649 150 635 135 z m 635 38 b 672 0 635 15 650 0 b 710 38 696 0 710 15 b 672 75 710 61 694 75 b 635 38 649 75 635 60 z m 111 36 b 147 0 111 14 125 0 b 185 36 169 0 185 14 b 149 75 185 60 171 75 b 111 39 126 75 111 61 z m 38 36 b 74 0 38 14 51 0 b 111 36 96 0 111 14 b 75 75 111 60 97 75 b 38 39 53 75 38 61 z m 560 38 b 597 0 560 15 575 0 b 635 38 621 0 635 15 b 597 75 635 61 619 75 b 560 38 574 75 560 60 z "},"h":{"ha":674,"x_min":0,"x_max":0,"o":"m 38 935 b 75 897 38 913 53 897 b 113 935 99 897 113 913 b 75 972 113 958 97 972 b 38 935 51 972 38 957 z m 113 935 b 150 897 113 913 128 897 b 188 935 174 897 188 913 b 150 972 188 958 172 972 b 113 935 126 972 113 957 z m 113 860 b 150 822 113 836 128 822 b 188 860 174 822 188 838 b 150 897 188 882 172 897 b 113 860 126 897 113 882 z m 38 860 b 75 822 38 836 53 822 b 113 860 99 822 113 838 b 75 897 113 882 97 897 b 38 860 51 897 38 882 z m 113 785 b 75 822 113 807 97 822 b 38 785 51 822 38 807 b 75 747 38 761 53 747 b 113 785 99 747 113 763 z m 188 785 b 150 822 188 807 172 822 b 113 785 126 822 113 807 b 150 747 113 761 128 747 b 188 785 174 747 188 763 z m 338 711 b 300 749 338 733 322 749 b 263 711 276 749 263 733 b 300 674 263 688 278 674 b 338 711 324 674 338 689 z m 411 713 b 375 749 411 735 397 749 b 338 713 353 749 338 735 b 374 674 338 689 351 674 b 411 710 396 674 411 688 z m 486 711 b 449 749 486 733 471 749 b 411 711 425 749 411 733 b 449 674 411 688 426 674 b 486 711 472 674 486 689 z m 113 711 b 149 674 113 689 126 674 b 188 710 172 674 188 688 l 188 711 b 151 747 188 733 174 747 b 113 711 128 747 113 733 z m 74 674 b 113 710 97 674 113 688 l 113 711 b 76 747 113 733 99 747 b 38 711 53 747 38 733 b 74 674 38 689 51 674 z m 411 638 b 375 674 411 660 397 674 b 338 638 353 674 338 660 b 374 599 338 614 351 599 b 411 635 396 599 411 613 z m 486 636 b 449 674 486 658 471 674 b 411 636 425 674 411 658 b 449 599 411 613 426 599 b 486 636 472 599 486 614 z m 263 636 b 300 599 263 613 278 599 b 338 636 324 599 338 614 b 300 674 338 658 322 674 b 263 636 276 674 263 658 z m 113 636 b 150 599 113 613 128 599 b 188 636 174 599 188 614 b 150 674 188 658 172 674 b 113 636 126 674 113 658 z m 38 636 b 75 599 38 613 53 599 b 113 636 99 599 113 614 b 75 674 113 658 97 674 b 38 636 51 674 38 658 z m 561 636 b 524 674 561 658 546 674 b 486 636 500 674 486 658 b 524 599 486 613 501 599 b 561 636 547 599 561 614 z m 188 636 b 225 599 188 613 203 599 b 263 636 249 599 263 614 b 225 674 263 658 247 674 b 188 636 201 674 188 658 z m 113 561 b 150 524 113 538 128 524 b 188 561 174 524 188 539 b 150 599 188 583 172 599 b 113 561 126 599 113 583 z m 486 561 b 449 599 486 583 471 599 b 411 561 425 599 411 583 b 449 524 411 538 426 524 b 486 561 472 524 486 539 z m 263 561 b 300 524 263 538 278 524 b 338 561 324 524 338 539 b 300 599 338 583 322 599 b 263 561 276 599 263 583 z m 561 561 b 524 599 561 585 546 599 b 486 561 500 599 486 583 b 524 524 486 539 501 524 b 561 561 547 524 561 539 z m 188 561 b 225 524 188 538 203 524 b 263 561 249 524 263 539 b 225 599 263 583 247 599 b 188 561 201 599 188 583 z m 38 561 b 75 524 38 538 53 524 b 113 561 99 524 113 539 b 75 599 113 583 97 599 b 38 561 51 599 38 583 z m 561 561 b 599 524 561 539 576 524 b 636 561 622 524 636 539 b 599 599 636 585 621 599 b 561 561 575 599 561 583 z m 561 486 b 599 449 561 464 576 449 b 636 486 622 449 636 464 b 599 524 636 510 621 524 b 561 486 575 524 561 508 z m 113 486 b 150 449 113 463 128 449 b 188 486 174 449 188 464 b 150 524 188 508 172 524 b 113 486 126 524 113 508 z m 486 486 b 524 449 486 464 501 449 b 561 486 547 449 561 464 b 524 524 561 510 546 524 b 486 486 500 524 486 508 z m 38 486 b 75 449 38 463 53 449 b 113 486 99 449 113 464 b 75 524 113 508 97 524 b 38 486 51 524 38 508 z m 188 486 b 225 449 188 463 203 449 b 263 486 249 449 263 464 b 225 524 263 508 247 524 b 188 486 201 524 188 508 z m 113 411 b 150 374 113 388 128 374 b 188 411 174 374 188 389 b 150 449 188 433 172 449 b 113 411 126 449 113 433 z m 38 411 b 75 374 38 388 53 374 b 113 411 99 374 113 389 b 75 449 113 433 97 449 b 38 411 51 449 38 433 z m 561 411 b 524 449 561 435 546 449 b 486 411 500 449 486 433 b 524 374 486 389 501 374 b 561 411 547 374 561 389 z m 561 411 b 599 374 561 389 576 374 b 636 411 622 374 636 389 b 599 449 636 435 621 449 b 561 411 575 449 561 433 z m 113 336 b 150 299 113 313 128 299 b 188 336 174 299 188 314 b 150 374 188 358 172 374 b 113 336 126 374 113 358 z m 38 336 b 75 299 38 313 53 299 b 113 336 99 299 113 314 b 75 374 113 358 97 374 b 38 336 51 374 38 358 z m 561 336 b 524 374 561 360 546 374 b 486 336 500 374 486 358 b 524 299 486 314 501 299 b 561 336 547 299 561 314 z m 561 336 b 599 299 561 314 576 299 b 636 336 622 299 636 314 b 599 374 636 360 621 374 b 561 336 575 374 561 358 z m 113 263 b 76 299 113 285 99 299 b 38 263 53 299 38 285 b 74 225 38 240 51 225 b 113 261 97 225 113 239 z m 188 263 b 151 299 188 285 174 299 b 113 263 128 299 113 285 b 149 225 113 240 126 225 b 188 261 172 225 188 239 z m 561 261 b 597 225 561 239 575 225 b 636 261 621 225 636 239 b 600 299 636 283 622 299 b 561 263 576 299 561 285 z m 486 261 b 522 225 486 239 500 225 b 561 261 546 225 561 239 b 525 299 561 283 547 299 b 486 263 501 299 486 285 z m 561 188 b 599 150 561 165 576 150 b 636 188 622 150 636 165 b 599 225 636 211 621 225 b 561 188 575 225 561 210 z m 113 188 b 75 225 113 210 97 225 b 38 188 51 225 38 210 b 75 150 38 164 53 150 b 113 188 99 150 113 165 z m 486 188 b 524 150 486 165 501 150 b 561 188 547 150 561 165 b 524 225 561 211 546 225 b 486 188 500 225 486 210 z m 188 188 b 150 225 188 210 172 225 b 113 188 126 225 113 210 b 150 150 113 164 128 150 b 188 188 174 150 188 165 z m 561 113 b 599 75 561 90 576 75 b 636 113 622 75 636 90 b 599 150 636 136 621 150 b 561 113 575 150 561 135 z m 113 113 b 75 150 113 135 97 150 b 38 113 51 150 38 135 b 75 75 38 89 53 75 b 113 113 99 75 113 90 z m 188 113 b 150 150 188 135 172 150 b 113 113 126 150 113 135 b 150 75 113 89 128 75 b 188 113 174 75 188 90 z m 486 113 b 524 75 486 90 501 75 b 561 113 547 75 561 90 b 524 150 561 136 546 150 b 486 113 500 150 486 135 z m 38 38 b 75 0 38 15 53 0 b 113 38 99 0 113 15 b 75 75 113 61 97 75 b 38 38 51 75 38 60 z m 561 38 b 599 0 561 15 576 0 b 636 38 622 0 636 15 b 599 75 636 61 621 75 b 561 38 575 75 561 60 z m 113 38 b 150 0 113 15 128 0 b 188 38 174 0 188 15 b 150 75 188 61 172 75 b 113 38 126 75 113 60 z m 486 38 b 524 0 486 15 501 0 b 561 38 547 0 561 15 b 524 75 561 61 546 75 b 486 38 500 75 486 60 z "},"I":{"ha":225,"x_min":0,"x_max":0,"o":"m 38 935 b 75 897 38 913 53 897 b 113 935 99 897 113 913 b 75 972 113 958 97 972 b 38 935 51 972 38 957 z m 113 935 b 150 897 113 913 128 897 b 188 935 174 897 188 913 b 150 972 188 958 172 972 b 113 935 126 972 113 957 z m 38 860 b 75 822 38 838 53 822 b 113 860 99 822 113 838 b 75 897 113 883 97 897 b 38 860 51 897 38 882 z m 113 860 b 150 822 113 838 128 822 b 188 860 174 822 188 838 b 150 897 188 883 172 897 b 113 860 126 897 113 882 z m 38 785 b 75 747 38 763 53 747 b 113 785 99 747 113 763 b 75 822 113 808 97 822 b 38 785 51 822 38 807 z m 113 785 b 150 747 113 763 128 747 b 188 785 174 747 188 763 b 150 822 188 808 172 822 b 113 785 126 822 113 807 z m 38 710 b 74 674 38 688 51 674 b 113 710 97 674 113 688 b 76 747 113 732 99 747 b 38 711 53 747 38 733 z m 113 710 b 149 674 113 688 126 674 b 188 710 172 674 188 688 b 151 747 188 732 174 747 b 113 711 128 747 113 733 z m 38 636 b 75 599 38 614 53 599 b 113 636 99 599 113 614 b 75 674 113 660 97 674 b 38 636 51 674 38 658 z m 113 636 b 150 599 113 614 128 599 b 188 636 174 599 188 614 b 150 674 188 660 172 674 b 113 636 126 674 113 658 z m 38 561 b 75 524 38 539 53 524 b 113 561 99 524 113 539 b 75 599 113 585 97 599 b 38 561 51 599 38 583 z m 113 561 b 150 524 113 539 128 524 b 188 561 174 524 188 539 b 150 599 188 585 172 599 b 113 561 126 599 113 583 z m 38 486 b 75 449 38 464 53 449 b 113 486 99 449 113 464 b 75 524 113 510 97 524 b 38 486 51 524 38 508 z m 113 486 b 150 449 113 464 128 449 b 188 486 174 449 188 464 b 150 524 188 510 172 524 b 113 486 126 524 113 508 z m 38 411 b 75 374 38 389 53 374 b 113 411 99 374 113 389 b 75 449 113 435 97 449 b 38 411 51 449 38 433 z m 113 411 b 150 374 113 389 128 374 b 188 411 174 374 188 389 b 150 449 188 435 172 449 b 113 411 126 449 113 433 z m 38 336 b 75 299 38 314 53 299 b 113 336 99 299 113 314 b 75 374 113 360 97 374 b 38 336 51 374 38 358 z m 113 336 b 150 299 113 314 128 299 b 188 336 174 299 188 314 b 150 374 188 360 172 374 b 113 336 126 374 113 358 z m 38 261 b 74 225 38 239 51 225 b 113 261 97 225 113 239 b 76 299 113 283 99 299 b 38 263 53 299 38 285 z m 113 261 b 149 225 113 239 126 225 b 188 261 172 225 188 239 b 151 299 188 283 174 299 b 113 263 128 299 113 285 z m 38 188 b 75 150 38 165 53 150 b 113 188 99 150 113 165 b 75 225 113 211 97 225 b 38 188 51 225 38 210 z m 113 188 b 150 150 113 165 128 150 b 188 188 174 150 188 165 b 150 225 188 211 172 225 b 113 188 126 225 113 210 z m 38 113 b 75 75 38 90 53 75 b 113 113 99 75 113 90 b 75 150 113 136 97 150 b 38 113 51 150 38 135 z m 113 113 b 150 75 113 90 128 75 b 188 113 174 75 188 90 b 150 150 188 136 172 150 b 113 113 126 150 113 135 z m 38 38 b 75 0 38 15 53 0 b 113 38 99 0 113 15 b 75 75 113 61 97 75 b 38 38 51 75 38 60 z m 113 38 b 150 0 113 15 128 0 b 188 38 174 0 188 15 b 150 75 188 61 172 75 b 113 38 126 75 113 60 z "},"i":{"ha":225,"x_min":0,"x_max":0,"o":"m 38 935 b 75 897 38 913 53 897 b 113 935 99 897 113 913 b 75 972 113 958 97 972 b 38 935 51 972 38 957 z m 113 935 b 150 897 113 913 128 897 b 188 935 174 897 188 913 b 150 972 188 958 172 972 b 113 935 126 972 113 957 z m 38 860 b 75 822 38 838 53 822 b 113 860 99 822 113 838 b 75 897 113 883 97 897 b 38 860 51 897 38 882 z m 113 860 b 150 822 113 838 128 822 b 188 860 174 822 188 838 b 150 897 188 883 172 897 b 113 860 126 897 113 882 z m 38 711 b 75 674 38 689 53 674 b 113 711 99 674 113 689 b 75 749 113 735 97 749 b 38 711 51 749 38 733 z m 113 711 b 150 674 113 689 128 674 b 188 711 174 674 188 689 b 150 749 188 735 172 749 b 113 711 126 749 113 733 z m 38 636 b 75 599 38 614 53 599 b 113 636 99 599 113 614 b 75 674 113 660 97 674 b 38 636 51 674 38 658 z m 113 636 b 150 599 113 614 128 599 b 188 636 174 599 188 614 b 150 674 188 660 172 674 b 113 636 126 674 113 658 z m 38 561 b 75 524 38 539 53 524 b 113 561 99 524 113 539 b 75 599 113 585 97 599 b 38 561 51 599 38 583 z m 113 561 b 150 524 113 539 128 524 b 188 561 174 524 188 539 b 150 599 188 585 172 599 b 113 561 126 599 113 583 z m 38 486 b 75 449 38 464 53 449 b 113 486 99 449 113 464 b 75 524 113 510 97 524 b 38 486 51 524 38 508 z m 113 486 b 150 449 113 464 128 449 b 188 486 174 449 188 464 b 150 524 188 510 172 524 b 113 486 126 524 113 508 z m 38 411 b 75 374 38 389 53 374 b 113 411 99 374 113 389 b 75 449 113 435 97 449 b 38 411 51 449 38 433 z m 113 411 b 150 374 113 389 128 374 b 188 411 174 374 188 389 b 150 449 188 435 172 449 b 113 411 126 449 113 433 z m 38 336 b 75 299 38 314 53 299 b 113 336 99 299 113 314 b 75 374 113 360 97 374 b 38 336 51 374 38 358 z m 113 336 b 150 299 113 314 128 299 b 188 336 174 299 188 314 b 150 374 188 360 172 374 b 113 336 126 374 113 358 z m 38 261 b 74 225 38 239 51 225 b 113 261 97 225 113 239 b 76 299 113 283 99 299 b 38 263 53 299 38 285 z m 113 261 b 149 225 113 239 126 225 b 188 261 172 225 188 239 b 151 299 188 283 174 299 b 113 263 128 299 113 285 z m 38 188 b 75 150 38 165 53 150 b 113 188 99 150 113 165 b 75 225 113 211 97 225 b 38 188 51 225 38 210 z m 113 188 b 150 150 113 165 128 150 b 188 188 174 150 188 165 b 150 225 188 211 172 225 b 113 188 126 225 113 210 z m 38 113 b 75 75 38 90 53 75 b 113 113 99 75 113 90 b 75 150 113 136 97 150 b 38 113 51 150 38 135 z m 113 113 b 150 75 113 90 128 75 b 188 113 174 75 188 90 b 150 150 188 136 172 150 b 113 113 126 150 113 135 z m 38 38 b 75 0 38 15 53 0 b 113 38 99 0 113 15 b 75 75 113 61 97 75 b 38 38 51 75 38 60 z m 113 38 b 150 0 113 15 128 0 b 188 38 174 0 188 15 b 150 75 188 61 172 75 b 113 38 126 75 113 60 z "}}}
